<?xml version="1.0" encoding="utf-8" standalone="no"?>
<!DOCTYPE svg PUBLIC "-//W3C//DTD SVG 1.1//EN"
  "http://www.w3.org/Graphics/SVG/1.1/DTD/svg11.dtd">
<svg xmlns:xlink="http://www.w3.org/1999/xlink" width="420.82625pt" height="325.986375pt" viewBox="0 0 420.82625 325.986375" xmlns="http://www.w3.org/2000/svg" version="1.1">
 <metadata>
  <rdf:RDF xmlns:dc="http://purl.org/dc/elements/1.1/" xmlns:cc="http://creativecommons.org/ns#" xmlns:rdf="http://www.w3.org/1999/02/22-rdf-syntax-ns#">
   <cc:Work>
    <dc:type rdf:resource="http://purl.org/dc/dcmitype/StillImage"/>
    <dc:date>2023-04-17T13:38:20.968024</dc:date>
    <dc:format>image/svg+xml</dc:format>
    <dc:creator>
     <cc:Agent>
      <dc:title>Matplotlib v3.5.2, https://matplotlib.org/</dc:title>
     </cc:Agent>
    </dc:creator>
   </cc:Work>
  </rdf:RDF>
 </metadata>
 <defs>
  <style type="text/css">*{stroke-linejoin: round; stroke-linecap: butt}</style>
 </defs>
 <g id="figure_1">
  <g id="patch_1">
   <path d="M 0 325.986375 
L 420.82625 325.986375 
L 420.82625 0 
L 0 0 
z
" style="fill: #ffffff"/>
  </g>
  <g id="axes_1">
   <g id="patch_2">
    <path d="M 56.50625 288.430125 
L 413.62625 288.430125 
L 413.62625 22.318125 
L 56.50625 22.318125 
z
" style="fill: #ffffff"/>
   </g>
   <g id="matplotlib.axis_1">
    <g id="xtick_1">
     <g id="line2d_1">
      <defs>
       <path id="m39c6d8ca73" d="M 0 0 
L 0 3.5 
" style="stroke: #000000; stroke-width: 0.8"/>
      </defs>
      <g>
       <use xlink:href="#m39c6d8ca73" x="72.738977" y="288.430125" style="stroke: #000000; stroke-width: 0.8"/>
      </g>
     </g>
     <g id="text_1">
      <!-- 0 -->
      <g transform="translate(69.557727 303.028562)scale(0.1 -0.1)">
       <defs>
        <path id="DejaVuSans-30" d="M 2034 4250 
Q 1547 4250 1301 3770 
Q 1056 3291 1056 2328 
Q 1056 1369 1301 889 
Q 1547 409 2034 409 
Q 2525 409 2770 889 
Q 3016 1369 3016 2328 
Q 3016 3291 2770 3770 
Q 2525 4250 2034 4250 
z
M 2034 4750 
Q 2819 4750 3233 4129 
Q 3647 3509 3647 2328 
Q 3647 1150 3233 529 
Q 2819 -91 2034 -91 
Q 1250 -91 836 529 
Q 422 1150 422 2328 
Q 422 3509 836 4129 
Q 1250 4750 2034 4750 
z
" transform="scale(0.015625)"/>
       </defs>
       <use xlink:href="#DejaVuSans-30"/>
      </g>
     </g>
    </g>
    <g id="xtick_2">
     <g id="line2d_2">
      <g>
       <use xlink:href="#m39c6d8ca73" x="148.948964" y="288.430125" style="stroke: #000000; stroke-width: 0.8"/>
      </g>
     </g>
     <g id="text_2">
      <!-- 50 -->
      <g transform="translate(142.586464 303.028562)scale(0.1 -0.1)">
       <defs>
        <path id="DejaVuSans-35" d="M 691 4666 
L 3169 4666 
L 3169 4134 
L 1269 4134 
L 1269 2991 
Q 1406 3038 1543 3061 
Q 1681 3084 1819 3084 
Q 2600 3084 3056 2656 
Q 3513 2228 3513 1497 
Q 3513 744 3044 326 
Q 2575 -91 1722 -91 
Q 1428 -91 1123 -41 
Q 819 9 494 109 
L 494 744 
Q 775 591 1075 516 
Q 1375 441 1709 441 
Q 2250 441 2565 725 
Q 2881 1009 2881 1497 
Q 2881 1984 2565 2268 
Q 2250 2553 1709 2553 
Q 1456 2553 1204 2497 
Q 953 2441 691 2322 
L 691 4666 
z
" transform="scale(0.015625)"/>
       </defs>
       <use xlink:href="#DejaVuSans-35"/>
       <use xlink:href="#DejaVuSans-30" x="63.623047"/>
      </g>
     </g>
    </g>
    <g id="xtick_3">
     <g id="line2d_3">
      <g>
       <use xlink:href="#m39c6d8ca73" x="225.158952" y="288.430125" style="stroke: #000000; stroke-width: 0.8"/>
      </g>
     </g>
     <g id="text_3">
      <!-- 100 -->
      <g transform="translate(215.615202 303.028562)scale(0.1 -0.1)">
       <defs>
        <path id="DejaVuSans-31" d="M 794 531 
L 1825 531 
L 1825 4091 
L 703 3866 
L 703 4441 
L 1819 4666 
L 2450 4666 
L 2450 531 
L 3481 531 
L 3481 0 
L 794 0 
L 794 531 
z
" transform="scale(0.015625)"/>
       </defs>
       <use xlink:href="#DejaVuSans-31"/>
       <use xlink:href="#DejaVuSans-30" x="63.623047"/>
       <use xlink:href="#DejaVuSans-30" x="127.246094"/>
      </g>
     </g>
    </g>
    <g id="xtick_4">
     <g id="line2d_4">
      <g>
       <use xlink:href="#m39c6d8ca73" x="301.368939" y="288.430125" style="stroke: #000000; stroke-width: 0.8"/>
      </g>
     </g>
     <g id="text_4">
      <!-- 150 -->
      <g transform="translate(291.825189 303.028562)scale(0.1 -0.1)">
       <use xlink:href="#DejaVuSans-31"/>
       <use xlink:href="#DejaVuSans-35" x="63.623047"/>
       <use xlink:href="#DejaVuSans-30" x="127.246094"/>
      </g>
     </g>
    </g>
    <g id="xtick_5">
     <g id="line2d_5">
      <g>
       <use xlink:href="#m39c6d8ca73" x="377.578926" y="288.430125" style="stroke: #000000; stroke-width: 0.8"/>
      </g>
     </g>
     <g id="text_5">
      <!-- 200 -->
      <g transform="translate(368.035176 303.028562)scale(0.1 -0.1)">
       <defs>
        <path id="DejaVuSans-32" d="M 1228 531 
L 3431 531 
L 3431 0 
L 469 0 
L 469 531 
Q 828 903 1448 1529 
Q 2069 2156 2228 2338 
Q 2531 2678 2651 2914 
Q 2772 3150 2772 3378 
Q 2772 3750 2511 3984 
Q 2250 4219 1831 4219 
Q 1534 4219 1204 4116 
Q 875 4013 500 3803 
L 500 4441 
Q 881 4594 1212 4672 
Q 1544 4750 1819 4750 
Q 2544 4750 2975 4387 
Q 3406 4025 3406 3419 
Q 3406 3131 3298 2873 
Q 3191 2616 2906 2266 
Q 2828 2175 2409 1742 
Q 1991 1309 1228 531 
z
" transform="scale(0.015625)"/>
       </defs>
       <use xlink:href="#DejaVuSans-32"/>
       <use xlink:href="#DejaVuSans-30" x="63.623047"/>
       <use xlink:href="#DejaVuSans-30" x="127.246094"/>
      </g>
     </g>
    </g>
    <g id="text_6">
     <!-- Instance No. -->
     <g transform="translate(203.908437 316.706687)scale(0.1 -0.1)">
      <defs>
       <path id="DejaVuSans-49" d="M 628 4666 
L 1259 4666 
L 1259 0 
L 628 0 
L 628 4666 
z
" transform="scale(0.015625)"/>
       <path id="DejaVuSans-6e" d="M 3513 2113 
L 3513 0 
L 2938 0 
L 2938 2094 
Q 2938 2591 2744 2837 
Q 2550 3084 2163 3084 
Q 1697 3084 1428 2787 
Q 1159 2491 1159 1978 
L 1159 0 
L 581 0 
L 581 3500 
L 1159 3500 
L 1159 2956 
Q 1366 3272 1645 3428 
Q 1925 3584 2291 3584 
Q 2894 3584 3203 3211 
Q 3513 2838 3513 2113 
z
" transform="scale(0.015625)"/>
       <path id="DejaVuSans-73" d="M 2834 3397 
L 2834 2853 
Q 2591 2978 2328 3040 
Q 2066 3103 1784 3103 
Q 1356 3103 1142 2972 
Q 928 2841 928 2578 
Q 928 2378 1081 2264 
Q 1234 2150 1697 2047 
L 1894 2003 
Q 2506 1872 2764 1633 
Q 3022 1394 3022 966 
Q 3022 478 2636 193 
Q 2250 -91 1575 -91 
Q 1294 -91 989 -36 
Q 684 19 347 128 
L 347 722 
Q 666 556 975 473 
Q 1284 391 1588 391 
Q 1994 391 2212 530 
Q 2431 669 2431 922 
Q 2431 1156 2273 1281 
Q 2116 1406 1581 1522 
L 1381 1569 
Q 847 1681 609 1914 
Q 372 2147 372 2553 
Q 372 3047 722 3315 
Q 1072 3584 1716 3584 
Q 2034 3584 2315 3537 
Q 2597 3491 2834 3397 
z
" transform="scale(0.015625)"/>
       <path id="DejaVuSans-74" d="M 1172 4494 
L 1172 3500 
L 2356 3500 
L 2356 3053 
L 1172 3053 
L 1172 1153 
Q 1172 725 1289 603 
Q 1406 481 1766 481 
L 2356 481 
L 2356 0 
L 1766 0 
Q 1100 0 847 248 
Q 594 497 594 1153 
L 594 3053 
L 172 3053 
L 172 3500 
L 594 3500 
L 594 4494 
L 1172 4494 
z
" transform="scale(0.015625)"/>
       <path id="DejaVuSans-61" d="M 2194 1759 
Q 1497 1759 1228 1600 
Q 959 1441 959 1056 
Q 959 750 1161 570 
Q 1363 391 1709 391 
Q 2188 391 2477 730 
Q 2766 1069 2766 1631 
L 2766 1759 
L 2194 1759 
z
M 3341 1997 
L 3341 0 
L 2766 0 
L 2766 531 
Q 2569 213 2275 61 
Q 1981 -91 1556 -91 
Q 1019 -91 701 211 
Q 384 513 384 1019 
Q 384 1609 779 1909 
Q 1175 2209 1959 2209 
L 2766 2209 
L 2766 2266 
Q 2766 2663 2505 2880 
Q 2244 3097 1772 3097 
Q 1472 3097 1187 3025 
Q 903 2953 641 2809 
L 641 3341 
Q 956 3463 1253 3523 
Q 1550 3584 1831 3584 
Q 2591 3584 2966 3190 
Q 3341 2797 3341 1997 
z
" transform="scale(0.015625)"/>
       <path id="DejaVuSans-63" d="M 3122 3366 
L 3122 2828 
Q 2878 2963 2633 3030 
Q 2388 3097 2138 3097 
Q 1578 3097 1268 2742 
Q 959 2388 959 1747 
Q 959 1106 1268 751 
Q 1578 397 2138 397 
Q 2388 397 2633 464 
Q 2878 531 3122 666 
L 3122 134 
Q 2881 22 2623 -34 
Q 2366 -91 2075 -91 
Q 1284 -91 818 406 
Q 353 903 353 1747 
Q 353 2603 823 3093 
Q 1294 3584 2113 3584 
Q 2378 3584 2631 3529 
Q 2884 3475 3122 3366 
z
" transform="scale(0.015625)"/>
       <path id="DejaVuSans-65" d="M 3597 1894 
L 3597 1613 
L 953 1613 
Q 991 1019 1311 708 
Q 1631 397 2203 397 
Q 2534 397 2845 478 
Q 3156 559 3463 722 
L 3463 178 
Q 3153 47 2828 -22 
Q 2503 -91 2169 -91 
Q 1331 -91 842 396 
Q 353 884 353 1716 
Q 353 2575 817 3079 
Q 1281 3584 2069 3584 
Q 2775 3584 3186 3129 
Q 3597 2675 3597 1894 
z
M 3022 2063 
Q 3016 2534 2758 2815 
Q 2500 3097 2075 3097 
Q 1594 3097 1305 2825 
Q 1016 2553 972 2059 
L 3022 2063 
z
" transform="scale(0.015625)"/>
       <path id="DejaVuSans-20" transform="scale(0.015625)"/>
       <path id="DejaVuSans-4e" d="M 628 4666 
L 1478 4666 
L 3547 763 
L 3547 4666 
L 4159 4666 
L 4159 0 
L 3309 0 
L 1241 3903 
L 1241 0 
L 628 0 
L 628 4666 
z
" transform="scale(0.015625)"/>
       <path id="DejaVuSans-6f" d="M 1959 3097 
Q 1497 3097 1228 2736 
Q 959 2375 959 1747 
Q 959 1119 1226 758 
Q 1494 397 1959 397 
Q 2419 397 2687 759 
Q 2956 1122 2956 1747 
Q 2956 2369 2687 2733 
Q 2419 3097 1959 3097 
z
M 1959 3584 
Q 2709 3584 3137 3096 
Q 3566 2609 3566 1747 
Q 3566 888 3137 398 
Q 2709 -91 1959 -91 
Q 1206 -91 779 398 
Q 353 888 353 1747 
Q 353 2609 779 3096 
Q 1206 3584 1959 3584 
z
" transform="scale(0.015625)"/>
       <path id="DejaVuSans-2e" d="M 684 794 
L 1344 794 
L 1344 0 
L 684 0 
L 684 794 
z
" transform="scale(0.015625)"/>
      </defs>
      <use xlink:href="#DejaVuSans-49"/>
      <use xlink:href="#DejaVuSans-6e" x="29.492188"/>
      <use xlink:href="#DejaVuSans-73" x="92.871094"/>
      <use xlink:href="#DejaVuSans-74" x="144.970703"/>
      <use xlink:href="#DejaVuSans-61" x="184.179688"/>
      <use xlink:href="#DejaVuSans-6e" x="245.458984"/>
      <use xlink:href="#DejaVuSans-63" x="308.837891"/>
      <use xlink:href="#DejaVuSans-65" x="363.818359"/>
      <use xlink:href="#DejaVuSans-20" x="425.341797"/>
      <use xlink:href="#DejaVuSans-4e" x="457.128906"/>
      <use xlink:href="#DejaVuSans-6f" x="531.933594"/>
      <use xlink:href="#DejaVuSans-2e" x="591.365234"/>
     </g>
    </g>
   </g>
   <g id="matplotlib.axis_2">
    <g id="ytick_1">
     <g id="line2d_6">
      <defs>
       <path id="ma35590700a" d="M 0 0 
L -3.5 0 
" style="stroke: #000000; stroke-width: 0.8"/>
      </defs>
      <g>
       <use xlink:href="#ma35590700a" x="56.50625" y="235.447733" style="stroke: #000000; stroke-width: 0.8"/>
      </g>
     </g>
     <g id="text_7">
      <!-- 1.515 -->
      <g transform="translate(20.878125 239.246952)scale(0.1 -0.1)">
       <use xlink:href="#DejaVuSans-31"/>
       <use xlink:href="#DejaVuSans-2e" x="63.623047"/>
       <use xlink:href="#DejaVuSans-35" x="95.410156"/>
       <use xlink:href="#DejaVuSans-31" x="159.033203"/>
       <use xlink:href="#DejaVuSans-35" x="222.65625"/>
      </g>
     </g>
    </g>
    <g id="ytick_2">
     <g id="line2d_7">
      <g>
       <use xlink:href="#ma35590700a" x="56.50625" y="182.348524" style="stroke: #000000; stroke-width: 0.8"/>
      </g>
     </g>
     <g id="text_8">
      <!-- 1.520 -->
      <g transform="translate(20.878125 186.147742)scale(0.1 -0.1)">
       <use xlink:href="#DejaVuSans-31"/>
       <use xlink:href="#DejaVuSans-2e" x="63.623047"/>
       <use xlink:href="#DejaVuSans-35" x="95.410156"/>
       <use xlink:href="#DejaVuSans-32" x="159.033203"/>
       <use xlink:href="#DejaVuSans-30" x="222.65625"/>
      </g>
     </g>
    </g>
    <g id="ytick_3">
     <g id="line2d_8">
      <g>
       <use xlink:href="#ma35590700a" x="56.50625" y="129.249314" style="stroke: #000000; stroke-width: 0.8"/>
      </g>
     </g>
     <g id="text_9">
      <!-- 1.525 -->
      <g transform="translate(20.878125 133.048533)scale(0.1 -0.1)">
       <use xlink:href="#DejaVuSans-31"/>
       <use xlink:href="#DejaVuSans-2e" x="63.623047"/>
       <use xlink:href="#DejaVuSans-35" x="95.410156"/>
       <use xlink:href="#DejaVuSans-32" x="159.033203"/>
       <use xlink:href="#DejaVuSans-35" x="222.65625"/>
      </g>
     </g>
    </g>
    <g id="ytick_4">
     <g id="line2d_9">
      <g>
       <use xlink:href="#ma35590700a" x="56.50625" y="76.150104" style="stroke: #000000; stroke-width: 0.8"/>
      </g>
     </g>
     <g id="text_10">
      <!-- 1.530 -->
      <g transform="translate(20.878125 79.949323)scale(0.1 -0.1)">
       <defs>
        <path id="DejaVuSans-33" d="M 2597 2516 
Q 3050 2419 3304 2112 
Q 3559 1806 3559 1356 
Q 3559 666 3084 287 
Q 2609 -91 1734 -91 
Q 1441 -91 1130 -33 
Q 819 25 488 141 
L 488 750 
Q 750 597 1062 519 
Q 1375 441 1716 441 
Q 2309 441 2620 675 
Q 2931 909 2931 1356 
Q 2931 1769 2642 2001 
Q 2353 2234 1838 2234 
L 1294 2234 
L 1294 2753 
L 1863 2753 
Q 2328 2753 2575 2939 
Q 2822 3125 2822 3475 
Q 2822 3834 2567 4026 
Q 2313 4219 1838 4219 
Q 1578 4219 1281 4162 
Q 984 4106 628 3988 
L 628 4550 
Q 988 4650 1302 4700 
Q 1616 4750 1894 4750 
Q 2613 4750 3031 4423 
Q 3450 4097 3450 3541 
Q 3450 3153 3228 2886 
Q 3006 2619 2597 2516 
z
" transform="scale(0.015625)"/>
       </defs>
       <use xlink:href="#DejaVuSans-31"/>
       <use xlink:href="#DejaVuSans-2e" x="63.623047"/>
       <use xlink:href="#DejaVuSans-35" x="95.410156"/>
       <use xlink:href="#DejaVuSans-33" x="159.033203"/>
       <use xlink:href="#DejaVuSans-30" x="222.65625"/>
      </g>
     </g>
    </g>
    <g id="ytick_5">
     <g id="line2d_10">
      <g>
       <use xlink:href="#ma35590700a" x="56.50625" y="23.050894" style="stroke: #000000; stroke-width: 0.8"/>
      </g>
     </g>
     <g id="text_11">
      <!-- 1.535 -->
      <g transform="translate(20.878125 26.850113)scale(0.1 -0.1)">
       <use xlink:href="#DejaVuSans-31"/>
       <use xlink:href="#DejaVuSans-2e" x="63.623047"/>
       <use xlink:href="#DejaVuSans-35" x="95.410156"/>
       <use xlink:href="#DejaVuSans-33" x="159.033203"/>
       <use xlink:href="#DejaVuSans-35" x="222.65625"/>
      </g>
     </g>
    </g>
    <g id="text_12">
     <!-- Refractive Index -->
     <g transform="translate(14.798437 196.069437)rotate(-90)scale(0.1 -0.1)">
      <defs>
       <path id="DejaVuSans-52" d="M 2841 2188 
Q 3044 2119 3236 1894 
Q 3428 1669 3622 1275 
L 4263 0 
L 3584 0 
L 2988 1197 
Q 2756 1666 2539 1819 
Q 2322 1972 1947 1972 
L 1259 1972 
L 1259 0 
L 628 0 
L 628 4666 
L 2053 4666 
Q 2853 4666 3247 4331 
Q 3641 3997 3641 3322 
Q 3641 2881 3436 2590 
Q 3231 2300 2841 2188 
z
M 1259 4147 
L 1259 2491 
L 2053 2491 
Q 2509 2491 2742 2702 
Q 2975 2913 2975 3322 
Q 2975 3731 2742 3939 
Q 2509 4147 2053 4147 
L 1259 4147 
z
" transform="scale(0.015625)"/>
       <path id="DejaVuSans-66" d="M 2375 4863 
L 2375 4384 
L 1825 4384 
Q 1516 4384 1395 4259 
Q 1275 4134 1275 3809 
L 1275 3500 
L 2222 3500 
L 2222 3053 
L 1275 3053 
L 1275 0 
L 697 0 
L 697 3053 
L 147 3053 
L 147 3500 
L 697 3500 
L 697 3744 
Q 697 4328 969 4595 
Q 1241 4863 1831 4863 
L 2375 4863 
z
" transform="scale(0.015625)"/>
       <path id="DejaVuSans-72" d="M 2631 2963 
Q 2534 3019 2420 3045 
Q 2306 3072 2169 3072 
Q 1681 3072 1420 2755 
Q 1159 2438 1159 1844 
L 1159 0 
L 581 0 
L 581 3500 
L 1159 3500 
L 1159 2956 
Q 1341 3275 1631 3429 
Q 1922 3584 2338 3584 
Q 2397 3584 2469 3576 
Q 2541 3569 2628 3553 
L 2631 2963 
z
" transform="scale(0.015625)"/>
       <path id="DejaVuSans-69" d="M 603 3500 
L 1178 3500 
L 1178 0 
L 603 0 
L 603 3500 
z
M 603 4863 
L 1178 4863 
L 1178 4134 
L 603 4134 
L 603 4863 
z
" transform="scale(0.015625)"/>
       <path id="DejaVuSans-76" d="M 191 3500 
L 800 3500 
L 1894 563 
L 2988 3500 
L 3597 3500 
L 2284 0 
L 1503 0 
L 191 3500 
z
" transform="scale(0.015625)"/>
       <path id="DejaVuSans-64" d="M 2906 2969 
L 2906 4863 
L 3481 4863 
L 3481 0 
L 2906 0 
L 2906 525 
Q 2725 213 2448 61 
Q 2172 -91 1784 -91 
Q 1150 -91 751 415 
Q 353 922 353 1747 
Q 353 2572 751 3078 
Q 1150 3584 1784 3584 
Q 2172 3584 2448 3432 
Q 2725 3281 2906 2969 
z
M 947 1747 
Q 947 1113 1208 752 
Q 1469 391 1925 391 
Q 2381 391 2643 752 
Q 2906 1113 2906 1747 
Q 2906 2381 2643 2742 
Q 2381 3103 1925 3103 
Q 1469 3103 1208 2742 
Q 947 2381 947 1747 
z
" transform="scale(0.015625)"/>
       <path id="DejaVuSans-78" d="M 3513 3500 
L 2247 1797 
L 3578 0 
L 2900 0 
L 1881 1375 
L 863 0 
L 184 0 
L 1544 1831 
L 300 3500 
L 978 3500 
L 1906 2253 
L 2834 3500 
L 3513 3500 
z
" transform="scale(0.015625)"/>
      </defs>
      <use xlink:href="#DejaVuSans-52"/>
      <use xlink:href="#DejaVuSans-65" x="64.982422"/>
      <use xlink:href="#DejaVuSans-66" x="126.505859"/>
      <use xlink:href="#DejaVuSans-72" x="161.710938"/>
      <use xlink:href="#DejaVuSans-61" x="202.824219"/>
      <use xlink:href="#DejaVuSans-63" x="264.103516"/>
      <use xlink:href="#DejaVuSans-74" x="319.083984"/>
      <use xlink:href="#DejaVuSans-69" x="358.292969"/>
      <use xlink:href="#DejaVuSans-76" x="386.076172"/>
      <use xlink:href="#DejaVuSans-65" x="445.255859"/>
      <use xlink:href="#DejaVuSans-20" x="506.779297"/>
      <use xlink:href="#DejaVuSans-49" x="538.566406"/>
      <use xlink:href="#DejaVuSans-6e" x="568.058594"/>
      <use xlink:href="#DejaVuSans-64" x="631.4375"/>
      <use xlink:href="#DejaVuSans-65" x="694.914062"/>
      <use xlink:href="#DejaVuSans-78" x="754.6875"/>
     </g>
    </g>
   </g>
   <g id="line2d_11">
    <path d="M 72.738977 219.021745 
L 74.263177 213.774242 
L 75.787377 215.054152 
L 77.311577 172.639896 
L 78.835776 213.962874 
L 80.359976 205.759299 
L 81.884176 214.466736 
L 83.408375 225.903633 
L 84.932575 224.799695 
L 86.456775 216.03529 
L 87.980975 225.473199 
L 89.505174 220.301655 
L 91.029374 220.773867 
L 92.553574 208.339374 
L 94.077774 135.560496 
L 95.601973 205.6327 
L 97.126173 204.781959 
L 98.650373 218.781208 
L 100.174573 186.625219 
L 101.698772 207.554464 
L 103.222972 197.231632 
L 104.747172 228.65335 
L 106.271372 222.710822 
L 107.795571 168.736868 
L 109.319771 204.971857 
L 110.843971 185.587113 
L 112.368171 157.289842 
L 113.89237 203.29063 
L 115.41657 155.602286 
L 116.94077 164.150209 
L 118.46497 165.233891 
L 119.989169 216.64043 
L 121.513369 225.030105 
L 123.037569 184.5604 
L 124.561769 221.44737 
L 126.085968 138.329203 
L 127.610168 204.633839 
L 129.134368 205.685872 
L 130.658568 107.625297 
L 132.182767 215.336466 
L 133.706967 200.421911 
L 135.231167 187.187316 
L 136.755367 212.751327 
L 138.279566 217.801337 
L 139.803766 179.877526 
L 141.327966 212.955151 
L 142.852165 205.460527 
L 144.376365 155.621276 
L 145.900565 191.261252 
L 147.424765 202.567754 
L 148.948964 165.875745 
L 150.473164 222.020861 
L 151.997364 220.425721 
L 153.521564 206.325194 
L 155.045763 200.835888 
L 156.569963 156.983474 
L 158.094163 157.4924 
L 159.618363 208.757149 
L 161.142562 244.503468 
L 162.666762 141.629623 
L 164.190962 199.896528 
L 165.715162 188.231753 
L 167.239361 201.230875 
L 168.763561 218.1786 
L 170.287761 214.312286 
L 171.811961 224.887048 
L 173.33616 210.98528 
L 174.86036 207.850704 
L 176.38456 208.834374 
L 177.90876 203.928686 
L 179.432959 201.419506 
L 180.957159 209.011611 
L 182.481359 197.365826 
L 184.005559 155.833961 
L 185.529758 220.444711 
L 187.053958 213.978066 
L 188.578158 218.888817 
L 190.102358 216.14543 
L 191.626557 219.7864 
L 193.150757 218.764751 
L 194.674957 197.051862 
L 196.199157 210.36748 
L 197.723356 219.095172 
L 199.247556 242.622216 
L 200.771756 204.085668 
L 202.295956 218.303933 
L 203.820155 209.89147 
L 205.344355 209.24835 
L 206.868555 214.794625 
L 208.392754 149.034362 
L 209.916954 200.230748 
L 211.441154 204.241384 
L 212.965354 176.134012 
L 214.489553 217.446861 
L 216.013753 98.307657 
L 217.537953 202.304429 
L 219.062153 204.332535 
L 220.586352 220.36622 
L 222.110552 224.436358 
L 225.158952 195.200994 
L 226.683151 195.150354 
L 228.207351 165.560515 
L 229.731551 248.725524 
L 231.255751 232.667785 
L 232.77995 227.153159 
L 234.30415 227.055679 
L 235.82835 210.834628 
L 237.35255 225.641575 
L 238.876749 225.270641 
L 240.400949 220.252282 
L 241.925149 204.214799 
L 243.449349 210.418119 
L 244.973548 157.851939 
L 246.497748 198.620416 
L 248.021948 208.473568 
L 249.546148 198.784994 
L 251.070347 225.521306 
L 252.594547 206.859439 
L 254.118747 205.095923 
L 255.642947 227.715256 
L 257.167146 214.684485 
L 258.691346 210.65106 
L 260.215546 202.957677 
L 261.739746 194.184409 
L 263.263945 197.226568 
L 264.788145 263.018481 
L 266.312345 149.839528 
L 267.836544 208.864757 
L 269.360744 215.784625 
L 272.409144 188.076037 
L 273.933343 214.278104 
L 275.457543 205.932739 
L 276.981743 189.147059 
L 278.505943 153.942581 
L 280.030142 222.601948 
L 281.554342 223.452689 
L 283.078542 216.496108 
L 284.602742 226.794886 
L 286.126941 204.806013 
L 287.651141 200.440901 
L 289.175341 108.308929 
L 290.699541 216.597386 
L 292.22374 206.863237 
L 293.74794 212.017057 
L 295.27214 207.519016 
L 296.79634 191.285306 
L 298.320539 185.517484 
L 299.844739 186.646741 
L 301.368939 174.674332 
L 302.893139 214.579408 
L 304.417338 207.1177 
L 305.941538 212.776647 
L 307.465738 203.242523 
L 308.989938 209.096432 
L 310.514137 175.45038 
L 312.038337 214.807285 
L 313.562537 237.816541 
L 315.086737 188.406459 
L 316.610936 209.323043 
L 318.135136 65.742755 
L 319.659336 219.119226 
L 321.183536 171.491649 
L 322.707735 201.235939 
L 324.231935 215.390904 
L 325.756135 211.090357 
L 327.280335 166.623941 
L 328.804534 182.642434 
L 330.328734 190.785242 
L 331.852934 224.76045 
L 333.377133 237.71273 
L 334.901333 217.945659 
L 336.425533 210.315575 
L 337.949733 209.901598 
L 339.473932 210.415587 
L 340.998132 189.2572 
L 342.522332 157.130329 
L 344.046532 214.035035 
L 345.570731 222.543712 
L 347.094931 210.861214 
L 348.619131 53.187993 
L 350.143331 167.843084 
L 351.66753 196.297336 
L 353.19173 102.111938 
L 354.71593 180.633318 
L 356.24013 166.003609 
L 357.764329 201.215683 
L 359.288529 204.555348 
L 360.812729 199.23062 
L 362.336929 251.729703 
L 363.861128 228.290013 
L 365.385328 211.395459 
L 366.909528 212.322159 
L 368.433728 223.905911 
L 369.957927 207.579784 
L 371.482127 208.438121 
L 373.006327 207.025283 
L 374.530527 213.318488 
L 376.054726 165.603558 
L 377.578926 165.814978 
L 379.103126 223.001998 
L 380.627326 96.49097 
L 382.151525 206.786012 
L 383.675725 215.992246 
L 386.724125 170.861189 
L 388.248324 152.708247 
L 389.772524 192.781699 
L 391.296724 167.449363 
L 394.345123 248.234322 
L 395.869323 241.081513 
L 397.393523 211.951226 
L 397.393523 211.951226 
" clip-path="url(#pf1e4c2d241)" style="fill: none; stroke: #ff0000; stroke-width: 1.5; stroke-linecap: square"/>
   </g>
   <g id="line2d_12">
    <path d="M 72.738977 207.729946 
L 74.263177 209.110525 
L 75.787377 207.729946 
L 77.311577 185.95927 
L 80.359976 228.332439 
L 81.884176 208.473335 
L 83.408375 225.57128 
L 84.932575 225.252685 
L 86.456775 220.048963 
L 87.980975 225.677479 
L 89.505174 225.465082 
L 91.029374 222.91632 
L 92.553574 211.022097 
L 94.077774 131.904274 
L 95.601973 198.70308 
L 97.126173 198.915477 
L 98.650373 215.588629 
L 100.174573 175.127031 
L 101.698772 217.394002 
L 103.222972 148.896021 
L 104.747172 223.022518 
L 106.271372 227.907646 
L 107.795571 161.533633 
L 109.319771 205.393581 
L 110.843971 192.01258 
L 112.368171 159.72826 
L 113.89237 204.331596 
L 115.41657 158.666276 
L 116.94077 166.206364 
L 118.46497 166.206364 
L 119.989169 223.447312 
L 121.513369 225.889876 
L 123.037569 199.234072 
L 124.561769 215.376232 
L 126.085968 138.807172 
L 127.610168 195.941921 
L 129.134368 217.712597 
L 130.658568 117.142694 
L 132.182767 215.270034 
L 133.706967 214.84524 
L 135.231167 189.357619 
L 136.755367 222.385328 
L 138.279566 175.445626 
L 139.803766 171.622483 
L 141.327966 208.579533 
L 142.852165 205.818374 
L 144.376365 160.046855 
L 145.900565 193.180762 
L 147.424765 199.658866 
L 148.948964 164.082395 
L 150.473164 221.960534 
L 151.997364 225.889876 
L 153.521564 218.455986 
L 155.045763 206.880359 
L 156.569963 168.861324 
L 158.094163 169.498515 
L 159.618363 233.960956 
L 161.142562 254.457251 
L 162.666762 177.781992 
L 164.190962 176.189015 
L 165.715162 169.710912 
L 167.239361 198.06589 
L 168.763561 199.552668 
L 170.287761 229.500622 
L 171.811961 211.340692 
L 173.33616 210.491105 
L 174.86036 207.411351 
L 176.38456 205.287382 
L 177.90876 206.243168 
L 179.432959 205.074985 
L 180.957159 265.714283 
L 182.481359 192.437373 
L 184.005559 158.241482 
L 185.529758 227.58905 
L 187.053958 222.172931 
L 188.578158 224.296899 
L 190.102358 219.305574 
L 191.626557 218.137391 
L 193.150757 213.252264 
L 194.674957 199.446469 
L 196.199157 217.924994 
L 197.723356 217.818796 
L 199.247556 274.63495 
L 200.771756 210.8097 
L 202.295956 220.579955 
L 203.820155 215.801026 
L 205.344355 213.039867 
L 206.868555 208.260938 
L 208.392754 148.365029 
L 209.916954 202.73862 
L 211.441154 205.924573 
L 212.965354 184.791087 
L 214.489553 226.102272 
L 216.013753 103.867891 
L 217.537953 198.596882 
L 219.062153 163.551403 
L 220.586352 213.039867 
L 222.110552 216.969208 
L 223.634752 219.942764 
L 225.158952 206.13697 
L 226.683151 204.013001 
L 228.207351 164.188594 
L 229.731551 254.988243 
L 231.255751 222.385328 
L 232.77995 230.668805 
L 234.30415 223.872106 
L 235.82835 220.048963 
L 237.35255 200.296057 
L 238.876749 222.91632 
L 240.400949 225.252685 
L 241.925149 205.287382 
L 243.449349 209.216724 
L 244.973548 159.72826 
L 246.497748 196.260517 
L 248.021948 208.473335 
L 249.546148 198.490683 
L 251.070347 225.57128 
L 252.594547 202.420025 
L 254.118747 200.508453 
L 255.642947 216.969208 
L 257.167146 218.243589 
L 258.691346 223.765907 
L 260.215546 218.986978 
L 261.739746 191.375389 
L 263.263945 194.242747 
L 264.788145 276.334125 
L 266.312345 143.5861 
L 267.836544 212.19028 
L 269.360744 219.411772 
L 270.884944 191.056794 
L 272.409144 191.800183 
L 273.933343 211.977883 
L 275.457543 206.986557 
L 276.981743 190.207207 
L 278.505943 150.488998 
L 280.030142 221.53574 
L 281.554342 228.120042 
L 283.078542 220.048963 
L 284.602742 220.579955 
L 286.126941 197.216302 
L 287.651141 201.464239 
L 289.175341 105.354669 
L 290.699541 213.358462 
L 292.22374 202.207628 
L 293.74794 202.420025 
L 295.27214 202.951017 
L 296.79634 205.818374 
L 298.320539 185.640675 
L 299.844739 189.039024 
L 301.368939 185.640675 
L 302.893139 209.641517 
L 304.417338 207.517549 
L 305.941538 207.517549 
L 307.465738 210.384906 
L 308.989938 204.331596 
L 310.514137 171.83488 
L 312.038337 219.942764 
L 313.562537 245.11179 
L 315.086737 199.234072 
L 316.610936 209.641517 
L 318.135136 34.414125 
L 319.659336 213.464661 
L 321.183536 180.224555 
L 322.707735 203.588208 
L 324.231935 220.261359 
L 325.756135 223.765907 
L 327.280335 166.312562 
L 328.804534 182.985714 
L 330.328734 192.437373 
L 331.852934 232.155582 
L 333.377133 234.598146 
L 334.901333 209.747716 
L 336.425533 208.367136 
L 337.949733 208.898129 
L 339.473932 208.367136 
L 340.998132 192.968366 
L 342.522332 111.514178 
L 344.046532 201.039445 
L 345.570731 221.748137 
L 347.094931 218.986978 
L 348.619131 62.875301 
L 350.143331 158.772474 
L 351.66753 201.676636 
L 353.19173 111.832773 
L 354.71593 173.746452 
L 356.24013 163.551403 
L 357.764329 204.75639 
L 359.288529 198.172088 
L 360.812729 200.508453 
L 362.336929 256.793616 
L 363.861128 224.615495 
L 366.909528 207.198954 
L 368.433728 225.996074 
L 369.957927 208.79193 
L 371.482127 212.084081 
L 373.006327 203.906803 
L 374.530527 206.880359 
L 376.054726 164.082395 
L 377.578926 166.206364 
L 379.103126 225.889876 
L 380.627326 99.832352 
L 382.151525 193.817953 
L 383.675725 217.075407 
L 385.199925 200.189858 
L 386.724125 159.940657 
L 388.248324 143.161307 
L 389.772524 191.269191 
L 391.296724 156.117514 
L 392.820923 223.447312 
L 394.345123 219.199375 
L 395.869323 233.960956 
L 397.393523 218.668383 
L 397.393523 218.668383 
" clip-path="url(#pf1e4c2d241)" style="fill: none; stroke: #0000ff; stroke-width: 1.5; stroke-linecap: square"/>
   </g>
   <g id="patch_3">
    <path d="M 56.50625 288.430125 
L 56.50625 22.318125 
" style="fill: none; stroke: #000000; stroke-width: 0.8; stroke-linejoin: miter; stroke-linecap: square"/>
   </g>
   <g id="patch_4">
    <path d="M 413.62625 288.430125 
L 413.62625 22.318125 
" style="fill: none; stroke: #000000; stroke-width: 0.8; stroke-linejoin: miter; stroke-linecap: square"/>
   </g>
   <g id="patch_5">
    <path d="M 56.50625 288.430125 
L 413.62625 288.430125 
" style="fill: none; stroke: #000000; stroke-width: 0.8; stroke-linejoin: miter; stroke-linecap: square"/>
   </g>
   <g id="patch_6">
    <path d="M 56.50625 22.318125 
L 413.62625 22.318125 
" style="fill: none; stroke: #000000; stroke-width: 0.8; stroke-linejoin: miter; stroke-linecap: square"/>
   </g>
   <g id="text_13">
    <!-- ANN Predictions vs. True Value -->
    <g transform="translate(143.625313 16.318125)scale(0.12 -0.12)">
     <defs>
      <path id="DejaVuSans-41" d="M 2188 4044 
L 1331 1722 
L 3047 1722 
L 2188 4044 
z
M 1831 4666 
L 2547 4666 
L 4325 0 
L 3669 0 
L 3244 1197 
L 1141 1197 
L 716 0 
L 50 0 
L 1831 4666 
z
" transform="scale(0.015625)"/>
      <path id="DejaVuSans-50" d="M 1259 4147 
L 1259 2394 
L 2053 2394 
Q 2494 2394 2734 2622 
Q 2975 2850 2975 3272 
Q 2975 3691 2734 3919 
Q 2494 4147 2053 4147 
L 1259 4147 
z
M 628 4666 
L 2053 4666 
Q 2838 4666 3239 4311 
Q 3641 3956 3641 3272 
Q 3641 2581 3239 2228 
Q 2838 1875 2053 1875 
L 1259 1875 
L 1259 0 
L 628 0 
L 628 4666 
z
" transform="scale(0.015625)"/>
      <path id="DejaVuSans-54" d="M -19 4666 
L 3928 4666 
L 3928 4134 
L 2272 4134 
L 2272 0 
L 1638 0 
L 1638 4134 
L -19 4134 
L -19 4666 
z
" transform="scale(0.015625)"/>
      <path id="DejaVuSans-75" d="M 544 1381 
L 544 3500 
L 1119 3500 
L 1119 1403 
Q 1119 906 1312 657 
Q 1506 409 1894 409 
Q 2359 409 2629 706 
Q 2900 1003 2900 1516 
L 2900 3500 
L 3475 3500 
L 3475 0 
L 2900 0 
L 2900 538 
Q 2691 219 2414 64 
Q 2138 -91 1772 -91 
Q 1169 -91 856 284 
Q 544 659 544 1381 
z
M 1991 3584 
L 1991 3584 
z
" transform="scale(0.015625)"/>
      <path id="DejaVuSans-56" d="M 1831 0 
L 50 4666 
L 709 4666 
L 2188 738 
L 3669 4666 
L 4325 4666 
L 2547 0 
L 1831 0 
z
" transform="scale(0.015625)"/>
      <path id="DejaVuSans-6c" d="M 603 4863 
L 1178 4863 
L 1178 0 
L 603 0 
L 603 4863 
z
" transform="scale(0.015625)"/>
     </defs>
     <use xlink:href="#DejaVuSans-41"/>
     <use xlink:href="#DejaVuSans-4e" x="68.408203"/>
     <use xlink:href="#DejaVuSans-4e" x="143.212891"/>
     <use xlink:href="#DejaVuSans-20" x="218.017578"/>
     <use xlink:href="#DejaVuSans-50" x="249.804688"/>
     <use xlink:href="#DejaVuSans-72" x="308.357422"/>
     <use xlink:href="#DejaVuSans-65" x="347.220703"/>
     <use xlink:href="#DejaVuSans-64" x="408.744141"/>
     <use xlink:href="#DejaVuSans-69" x="472.220703"/>
     <use xlink:href="#DejaVuSans-63" x="500.003906"/>
     <use xlink:href="#DejaVuSans-74" x="554.984375"/>
     <use xlink:href="#DejaVuSans-69" x="594.193359"/>
     <use xlink:href="#DejaVuSans-6f" x="621.976562"/>
     <use xlink:href="#DejaVuSans-6e" x="683.158203"/>
     <use xlink:href="#DejaVuSans-73" x="746.537109"/>
     <use xlink:href="#DejaVuSans-20" x="798.636719"/>
     <use xlink:href="#DejaVuSans-76" x="830.423828"/>
     <use xlink:href="#DejaVuSans-73" x="889.603516"/>
     <use xlink:href="#DejaVuSans-2e" x="941.703125"/>
     <use xlink:href="#DejaVuSans-20" x="973.490234"/>
     <use xlink:href="#DejaVuSans-54" x="1005.277344"/>
     <use xlink:href="#DejaVuSans-72" x="1051.611328"/>
     <use xlink:href="#DejaVuSans-75" x="1092.724609"/>
     <use xlink:href="#DejaVuSans-65" x="1156.103516"/>
     <use xlink:href="#DejaVuSans-20" x="1217.626953"/>
     <use xlink:href="#DejaVuSans-56" x="1249.414062"/>
     <use xlink:href="#DejaVuSans-61" x="1310.072266"/>
     <use xlink:href="#DejaVuSans-6c" x="1371.351562"/>
     <use xlink:href="#DejaVuSans-75" x="1399.134766"/>
     <use xlink:href="#DejaVuSans-65" x="1462.513672"/>
    </g>
   </g>
   <g id="legend_1">
    <g id="patch_7">
     <path d="M 63.50625 59.674375 
L 147.38125 59.674375 
Q 149.38125 59.674375 149.38125 57.674375 
L 149.38125 29.318125 
Q 149.38125 27.318125 147.38125 27.318125 
L 63.50625 27.318125 
Q 61.50625 27.318125 61.50625 29.318125 
L 61.50625 57.674375 
Q 61.50625 59.674375 63.50625 59.674375 
z
" style="fill: #ffffff; opacity: 0.8; stroke: #cccccc; stroke-linejoin: miter"/>
    </g>
    <g id="line2d_13">
     <path d="M 65.50625 35.416562 
L 75.50625 35.416562 
L 85.50625 35.416562 
" style="fill: none; stroke: #ff0000; stroke-width: 1.5; stroke-linecap: square"/>
    </g>
    <g id="text_14">
     <!-- Prediction -->
     <g transform="translate(93.50625 38.916562)scale(0.1 -0.1)">
      <use xlink:href="#DejaVuSans-50"/>
      <use xlink:href="#DejaVuSans-72" x="58.552734"/>
      <use xlink:href="#DejaVuSans-65" x="97.416016"/>
      <use xlink:href="#DejaVuSans-64" x="158.939453"/>
      <use xlink:href="#DejaVuSans-69" x="222.416016"/>
      <use xlink:href="#DejaVuSans-63" x="250.199219"/>
      <use xlink:href="#DejaVuSans-74" x="305.179688"/>
      <use xlink:href="#DejaVuSans-69" x="344.388672"/>
      <use xlink:href="#DejaVuSans-6f" x="372.171875"/>
      <use xlink:href="#DejaVuSans-6e" x="433.353516"/>
     </g>
    </g>
    <g id="line2d_14">
     <path d="M 65.50625 50.094687 
L 75.50625 50.094687 
L 85.50625 50.094687 
" style="fill: none; stroke: #0000ff; stroke-width: 1.5; stroke-linecap: square"/>
    </g>
    <g id="text_15">
     <!-- True Value -->
     <g transform="translate(93.50625 53.594687)scale(0.1 -0.1)">
      <use xlink:href="#DejaVuSans-54"/>
      <use xlink:href="#DejaVuSans-72" x="46.333984"/>
      <use xlink:href="#DejaVuSans-75" x="87.447266"/>
      <use xlink:href="#DejaVuSans-65" x="150.826172"/>
      <use xlink:href="#DejaVuSans-20" x="212.349609"/>
      <use xlink:href="#DejaVuSans-56" x="244.136719"/>
      <use xlink:href="#DejaVuSans-61" x="304.794922"/>
      <use xlink:href="#DejaVuSans-6c" x="366.074219"/>
      <use xlink:href="#DejaVuSans-75" x="393.857422"/>
      <use xlink:href="#DejaVuSans-65" x="457.236328"/>
     </g>
    </g>
   </g>
  </g>
 </g>
 <defs>
  <clipPath id="pf1e4c2d241">
   <rect x="56.50625" y="22.318125" width="357.12" height="266.112"/>
  </clipPath>
 </defs>
</svg>
