<?xml version="1.0" encoding="utf-8" standalone="no"?>
<!DOCTYPE svg PUBLIC "-//W3C//DTD SVG 1.1//EN"
  "http://www.w3.org/Graphics/SVG/1.1/DTD/svg11.dtd">
<svg xmlns:xlink="http://www.w3.org/1999/xlink" width="420.82625pt" height="325.986375pt" viewBox="0 0 420.82625 325.986375" xmlns="http://www.w3.org/2000/svg" version="1.1">
 <metadata>
  <rdf:RDF xmlns:dc="http://purl.org/dc/elements/1.1/" xmlns:cc="http://creativecommons.org/ns#" xmlns:rdf="http://www.w3.org/1999/02/22-rdf-syntax-ns#">
   <cc:Work>
    <dc:type rdf:resource="http://purl.org/dc/dcmitype/StillImage"/>
    <dc:date>2023-04-15T14:48:08.419098</dc:date>
    <dc:format>image/svg+xml</dc:format>
    <dc:creator>
     <cc:Agent>
      <dc:title>Matplotlib v3.5.2, https://matplotlib.org/</dc:title>
     </cc:Agent>
    </dc:creator>
   </cc:Work>
  </rdf:RDF>
 </metadata>
 <defs>
  <style type="text/css">*{stroke-linejoin: round; stroke-linecap: butt}</style>
 </defs>
 <g id="figure_1">
  <g id="patch_1">
   <path d="M 0 325.986375 
L 420.82625 325.986375 
L 420.82625 0 
L 0 0 
z
" style="fill: #ffffff"/>
  </g>
  <g id="axes_1">
   <g id="patch_2">
    <path d="M 56.50625 288.430125 
L 413.62625 288.430125 
L 413.62625 22.318125 
L 56.50625 22.318125 
z
" style="fill: #ffffff"/>
   </g>
   <g id="matplotlib.axis_1">
    <g id="xtick_1">
     <g id="line2d_1">
      <defs>
       <path id="mcd8ea0739d" d="M 0 0 
L 0 3.5 
" style="stroke: #000000; stroke-width: 0.8"/>
      </defs>
      <g>
       <use xlink:href="#mcd8ea0739d" x="72.738977" y="288.430125" style="stroke: #000000; stroke-width: 0.8"/>
      </g>
     </g>
     <g id="text_1">
      <!-- 0 -->
      <g transform="translate(69.557727 303.028562)scale(0.1 -0.1)">
       <defs>
        <path id="DejaVuSans-30" d="M 2034 4250 
Q 1547 4250 1301 3770 
Q 1056 3291 1056 2328 
Q 1056 1369 1301 889 
Q 1547 409 2034 409 
Q 2525 409 2770 889 
Q 3016 1369 3016 2328 
Q 3016 3291 2770 3770 
Q 2525 4250 2034 4250 
z
M 2034 4750 
Q 2819 4750 3233 4129 
Q 3647 3509 3647 2328 
Q 3647 1150 3233 529 
Q 2819 -91 2034 -91 
Q 1250 -91 836 529 
Q 422 1150 422 2328 
Q 422 3509 836 4129 
Q 1250 4750 2034 4750 
z
" transform="scale(0.015625)"/>
       </defs>
       <use xlink:href="#DejaVuSans-30"/>
      </g>
     </g>
    </g>
    <g id="xtick_2">
     <g id="line2d_2">
      <g>
       <use xlink:href="#mcd8ea0739d" x="148.948964" y="288.430125" style="stroke: #000000; stroke-width: 0.8"/>
      </g>
     </g>
     <g id="text_2">
      <!-- 50 -->
      <g transform="translate(142.586464 303.028562)scale(0.1 -0.1)">
       <defs>
        <path id="DejaVuSans-35" d="M 691 4666 
L 3169 4666 
L 3169 4134 
L 1269 4134 
L 1269 2991 
Q 1406 3038 1543 3061 
Q 1681 3084 1819 3084 
Q 2600 3084 3056 2656 
Q 3513 2228 3513 1497 
Q 3513 744 3044 326 
Q 2575 -91 1722 -91 
Q 1428 -91 1123 -41 
Q 819 9 494 109 
L 494 744 
Q 775 591 1075 516 
Q 1375 441 1709 441 
Q 2250 441 2565 725 
Q 2881 1009 2881 1497 
Q 2881 1984 2565 2268 
Q 2250 2553 1709 2553 
Q 1456 2553 1204 2497 
Q 953 2441 691 2322 
L 691 4666 
z
" transform="scale(0.015625)"/>
       </defs>
       <use xlink:href="#DejaVuSans-35"/>
       <use xlink:href="#DejaVuSans-30" x="63.623047"/>
      </g>
     </g>
    </g>
    <g id="xtick_3">
     <g id="line2d_3">
      <g>
       <use xlink:href="#mcd8ea0739d" x="225.158952" y="288.430125" style="stroke: #000000; stroke-width: 0.8"/>
      </g>
     </g>
     <g id="text_3">
      <!-- 100 -->
      <g transform="translate(215.615202 303.028562)scale(0.1 -0.1)">
       <defs>
        <path id="DejaVuSans-31" d="M 794 531 
L 1825 531 
L 1825 4091 
L 703 3866 
L 703 4441 
L 1819 4666 
L 2450 4666 
L 2450 531 
L 3481 531 
L 3481 0 
L 794 0 
L 794 531 
z
" transform="scale(0.015625)"/>
       </defs>
       <use xlink:href="#DejaVuSans-31"/>
       <use xlink:href="#DejaVuSans-30" x="63.623047"/>
       <use xlink:href="#DejaVuSans-30" x="127.246094"/>
      </g>
     </g>
    </g>
    <g id="xtick_4">
     <g id="line2d_4">
      <g>
       <use xlink:href="#mcd8ea0739d" x="301.368939" y="288.430125" style="stroke: #000000; stroke-width: 0.8"/>
      </g>
     </g>
     <g id="text_4">
      <!-- 150 -->
      <g transform="translate(291.825189 303.028562)scale(0.1 -0.1)">
       <use xlink:href="#DejaVuSans-31"/>
       <use xlink:href="#DejaVuSans-35" x="63.623047"/>
       <use xlink:href="#DejaVuSans-30" x="127.246094"/>
      </g>
     </g>
    </g>
    <g id="xtick_5">
     <g id="line2d_5">
      <g>
       <use xlink:href="#mcd8ea0739d" x="377.578926" y="288.430125" style="stroke: #000000; stroke-width: 0.8"/>
      </g>
     </g>
     <g id="text_5">
      <!-- 200 -->
      <g transform="translate(368.035176 303.028562)scale(0.1 -0.1)">
       <defs>
        <path id="DejaVuSans-32" d="M 1228 531 
L 3431 531 
L 3431 0 
L 469 0 
L 469 531 
Q 828 903 1448 1529 
Q 2069 2156 2228 2338 
Q 2531 2678 2651 2914 
Q 2772 3150 2772 3378 
Q 2772 3750 2511 3984 
Q 2250 4219 1831 4219 
Q 1534 4219 1204 4116 
Q 875 4013 500 3803 
L 500 4441 
Q 881 4594 1212 4672 
Q 1544 4750 1819 4750 
Q 2544 4750 2975 4387 
Q 3406 4025 3406 3419 
Q 3406 3131 3298 2873 
Q 3191 2616 2906 2266 
Q 2828 2175 2409 1742 
Q 1991 1309 1228 531 
z
" transform="scale(0.015625)"/>
       </defs>
       <use xlink:href="#DejaVuSans-32"/>
       <use xlink:href="#DejaVuSans-30" x="63.623047"/>
       <use xlink:href="#DejaVuSans-30" x="127.246094"/>
      </g>
     </g>
    </g>
    <g id="text_6">
     <!-- Instance No. -->
     <g transform="translate(203.908437 316.706687)scale(0.1 -0.1)">
      <defs>
       <path id="DejaVuSans-49" d="M 628 4666 
L 1259 4666 
L 1259 0 
L 628 0 
L 628 4666 
z
" transform="scale(0.015625)"/>
       <path id="DejaVuSans-6e" d="M 3513 2113 
L 3513 0 
L 2938 0 
L 2938 2094 
Q 2938 2591 2744 2837 
Q 2550 3084 2163 3084 
Q 1697 3084 1428 2787 
Q 1159 2491 1159 1978 
L 1159 0 
L 581 0 
L 581 3500 
L 1159 3500 
L 1159 2956 
Q 1366 3272 1645 3428 
Q 1925 3584 2291 3584 
Q 2894 3584 3203 3211 
Q 3513 2838 3513 2113 
z
" transform="scale(0.015625)"/>
       <path id="DejaVuSans-73" d="M 2834 3397 
L 2834 2853 
Q 2591 2978 2328 3040 
Q 2066 3103 1784 3103 
Q 1356 3103 1142 2972 
Q 928 2841 928 2578 
Q 928 2378 1081 2264 
Q 1234 2150 1697 2047 
L 1894 2003 
Q 2506 1872 2764 1633 
Q 3022 1394 3022 966 
Q 3022 478 2636 193 
Q 2250 -91 1575 -91 
Q 1294 -91 989 -36 
Q 684 19 347 128 
L 347 722 
Q 666 556 975 473 
Q 1284 391 1588 391 
Q 1994 391 2212 530 
Q 2431 669 2431 922 
Q 2431 1156 2273 1281 
Q 2116 1406 1581 1522 
L 1381 1569 
Q 847 1681 609 1914 
Q 372 2147 372 2553 
Q 372 3047 722 3315 
Q 1072 3584 1716 3584 
Q 2034 3584 2315 3537 
Q 2597 3491 2834 3397 
z
" transform="scale(0.015625)"/>
       <path id="DejaVuSans-74" d="M 1172 4494 
L 1172 3500 
L 2356 3500 
L 2356 3053 
L 1172 3053 
L 1172 1153 
Q 1172 725 1289 603 
Q 1406 481 1766 481 
L 2356 481 
L 2356 0 
L 1766 0 
Q 1100 0 847 248 
Q 594 497 594 1153 
L 594 3053 
L 172 3053 
L 172 3500 
L 594 3500 
L 594 4494 
L 1172 4494 
z
" transform="scale(0.015625)"/>
       <path id="DejaVuSans-61" d="M 2194 1759 
Q 1497 1759 1228 1600 
Q 959 1441 959 1056 
Q 959 750 1161 570 
Q 1363 391 1709 391 
Q 2188 391 2477 730 
Q 2766 1069 2766 1631 
L 2766 1759 
L 2194 1759 
z
M 3341 1997 
L 3341 0 
L 2766 0 
L 2766 531 
Q 2569 213 2275 61 
Q 1981 -91 1556 -91 
Q 1019 -91 701 211 
Q 384 513 384 1019 
Q 384 1609 779 1909 
Q 1175 2209 1959 2209 
L 2766 2209 
L 2766 2266 
Q 2766 2663 2505 2880 
Q 2244 3097 1772 3097 
Q 1472 3097 1187 3025 
Q 903 2953 641 2809 
L 641 3341 
Q 956 3463 1253 3523 
Q 1550 3584 1831 3584 
Q 2591 3584 2966 3190 
Q 3341 2797 3341 1997 
z
" transform="scale(0.015625)"/>
       <path id="DejaVuSans-63" d="M 3122 3366 
L 3122 2828 
Q 2878 2963 2633 3030 
Q 2388 3097 2138 3097 
Q 1578 3097 1268 2742 
Q 959 2388 959 1747 
Q 959 1106 1268 751 
Q 1578 397 2138 397 
Q 2388 397 2633 464 
Q 2878 531 3122 666 
L 3122 134 
Q 2881 22 2623 -34 
Q 2366 -91 2075 -91 
Q 1284 -91 818 406 
Q 353 903 353 1747 
Q 353 2603 823 3093 
Q 1294 3584 2113 3584 
Q 2378 3584 2631 3529 
Q 2884 3475 3122 3366 
z
" transform="scale(0.015625)"/>
       <path id="DejaVuSans-65" d="M 3597 1894 
L 3597 1613 
L 953 1613 
Q 991 1019 1311 708 
Q 1631 397 2203 397 
Q 2534 397 2845 478 
Q 3156 559 3463 722 
L 3463 178 
Q 3153 47 2828 -22 
Q 2503 -91 2169 -91 
Q 1331 -91 842 396 
Q 353 884 353 1716 
Q 353 2575 817 3079 
Q 1281 3584 2069 3584 
Q 2775 3584 3186 3129 
Q 3597 2675 3597 1894 
z
M 3022 2063 
Q 3016 2534 2758 2815 
Q 2500 3097 2075 3097 
Q 1594 3097 1305 2825 
Q 1016 2553 972 2059 
L 3022 2063 
z
" transform="scale(0.015625)"/>
       <path id="DejaVuSans-20" transform="scale(0.015625)"/>
       <path id="DejaVuSans-4e" d="M 628 4666 
L 1478 4666 
L 3547 763 
L 3547 4666 
L 4159 4666 
L 4159 0 
L 3309 0 
L 1241 3903 
L 1241 0 
L 628 0 
L 628 4666 
z
" transform="scale(0.015625)"/>
       <path id="DejaVuSans-6f" d="M 1959 3097 
Q 1497 3097 1228 2736 
Q 959 2375 959 1747 
Q 959 1119 1226 758 
Q 1494 397 1959 397 
Q 2419 397 2687 759 
Q 2956 1122 2956 1747 
Q 2956 2369 2687 2733 
Q 2419 3097 1959 3097 
z
M 1959 3584 
Q 2709 3584 3137 3096 
Q 3566 2609 3566 1747 
Q 3566 888 3137 398 
Q 2709 -91 1959 -91 
Q 1206 -91 779 398 
Q 353 888 353 1747 
Q 353 2609 779 3096 
Q 1206 3584 1959 3584 
z
" transform="scale(0.015625)"/>
       <path id="DejaVuSans-2e" d="M 684 794 
L 1344 794 
L 1344 0 
L 684 0 
L 684 794 
z
" transform="scale(0.015625)"/>
      </defs>
      <use xlink:href="#DejaVuSans-49"/>
      <use xlink:href="#DejaVuSans-6e" x="29.492188"/>
      <use xlink:href="#DejaVuSans-73" x="92.871094"/>
      <use xlink:href="#DejaVuSans-74" x="144.970703"/>
      <use xlink:href="#DejaVuSans-61" x="184.179688"/>
      <use xlink:href="#DejaVuSans-6e" x="245.458984"/>
      <use xlink:href="#DejaVuSans-63" x="308.837891"/>
      <use xlink:href="#DejaVuSans-65" x="363.818359"/>
      <use xlink:href="#DejaVuSans-20" x="425.341797"/>
      <use xlink:href="#DejaVuSans-4e" x="457.128906"/>
      <use xlink:href="#DejaVuSans-6f" x="531.933594"/>
      <use xlink:href="#DejaVuSans-2e" x="591.365234"/>
     </g>
    </g>
   </g>
   <g id="matplotlib.axis_2">
    <g id="ytick_1">
     <g id="line2d_6">
      <defs>
       <path id="m7f48cd8815" d="M 0 0 
L -3.5 0 
" style="stroke: #000000; stroke-width: 0.8"/>
      </defs>
      <g>
       <use xlink:href="#m7f48cd8815" x="56.50625" y="284.627808" style="stroke: #000000; stroke-width: 0.8"/>
      </g>
     </g>
     <g id="text_7">
      <!-- 1.510 -->
      <g transform="translate(20.878125 288.427027)scale(0.1 -0.1)">
       <use xlink:href="#DejaVuSans-31"/>
       <use xlink:href="#DejaVuSans-2e" x="63.623047"/>
       <use xlink:href="#DejaVuSans-35" x="95.410156"/>
       <use xlink:href="#DejaVuSans-31" x="159.033203"/>
       <use xlink:href="#DejaVuSans-30" x="222.65625"/>
      </g>
     </g>
    </g>
    <g id="ytick_2">
     <g id="line2d_7">
      <g>
       <use xlink:href="#m7f48cd8815" x="56.50625" y="232.347473" style="stroke: #000000; stroke-width: 0.8"/>
      </g>
     </g>
     <g id="text_8">
      <!-- 1.515 -->
      <g transform="translate(20.878125 236.146692)scale(0.1 -0.1)">
       <use xlink:href="#DejaVuSans-31"/>
       <use xlink:href="#DejaVuSans-2e" x="63.623047"/>
       <use xlink:href="#DejaVuSans-35" x="95.410156"/>
       <use xlink:href="#DejaVuSans-31" x="159.033203"/>
       <use xlink:href="#DejaVuSans-35" x="222.65625"/>
      </g>
     </g>
    </g>
    <g id="ytick_3">
     <g id="line2d_8">
      <g>
       <use xlink:href="#m7f48cd8815" x="56.50625" y="180.067138" style="stroke: #000000; stroke-width: 0.8"/>
      </g>
     </g>
     <g id="text_9">
      <!-- 1.520 -->
      <g transform="translate(20.878125 183.866357)scale(0.1 -0.1)">
       <use xlink:href="#DejaVuSans-31"/>
       <use xlink:href="#DejaVuSans-2e" x="63.623047"/>
       <use xlink:href="#DejaVuSans-35" x="95.410156"/>
       <use xlink:href="#DejaVuSans-32" x="159.033203"/>
       <use xlink:href="#DejaVuSans-30" x="222.65625"/>
      </g>
     </g>
    </g>
    <g id="ytick_4">
     <g id="line2d_9">
      <g>
       <use xlink:href="#m7f48cd8815" x="56.50625" y="127.786803" style="stroke: #000000; stroke-width: 0.8"/>
      </g>
     </g>
     <g id="text_10">
      <!-- 1.525 -->
      <g transform="translate(20.878125 131.586022)scale(0.1 -0.1)">
       <use xlink:href="#DejaVuSans-31"/>
       <use xlink:href="#DejaVuSans-2e" x="63.623047"/>
       <use xlink:href="#DejaVuSans-35" x="95.410156"/>
       <use xlink:href="#DejaVuSans-32" x="159.033203"/>
       <use xlink:href="#DejaVuSans-35" x="222.65625"/>
      </g>
     </g>
    </g>
    <g id="ytick_5">
     <g id="line2d_10">
      <g>
       <use xlink:href="#m7f48cd8815" x="56.50625" y="75.506468" style="stroke: #000000; stroke-width: 0.8"/>
      </g>
     </g>
     <g id="text_11">
      <!-- 1.530 -->
      <g transform="translate(20.878125 79.305687)scale(0.1 -0.1)">
       <defs>
        <path id="DejaVuSans-33" d="M 2597 2516 
Q 3050 2419 3304 2112 
Q 3559 1806 3559 1356 
Q 3559 666 3084 287 
Q 2609 -91 1734 -91 
Q 1441 -91 1130 -33 
Q 819 25 488 141 
L 488 750 
Q 750 597 1062 519 
Q 1375 441 1716 441 
Q 2309 441 2620 675 
Q 2931 909 2931 1356 
Q 2931 1769 2642 2001 
Q 2353 2234 1838 2234 
L 1294 2234 
L 1294 2753 
L 1863 2753 
Q 2328 2753 2575 2939 
Q 2822 3125 2822 3475 
Q 2822 3834 2567 4026 
Q 2313 4219 1838 4219 
Q 1578 4219 1281 4162 
Q 984 4106 628 3988 
L 628 4550 
Q 988 4650 1302 4700 
Q 1616 4750 1894 4750 
Q 2613 4750 3031 4423 
Q 3450 4097 3450 3541 
Q 3450 3153 3228 2886 
Q 3006 2619 2597 2516 
z
" transform="scale(0.015625)"/>
       </defs>
       <use xlink:href="#DejaVuSans-31"/>
       <use xlink:href="#DejaVuSans-2e" x="63.623047"/>
       <use xlink:href="#DejaVuSans-35" x="95.410156"/>
       <use xlink:href="#DejaVuSans-33" x="159.033203"/>
       <use xlink:href="#DejaVuSans-30" x="222.65625"/>
      </g>
     </g>
    </g>
    <g id="ytick_6">
     <g id="line2d_11">
      <g>
       <use xlink:href="#m7f48cd8815" x="56.50625" y="23.226133" style="stroke: #000000; stroke-width: 0.8"/>
      </g>
     </g>
     <g id="text_12">
      <!-- 1.535 -->
      <g transform="translate(20.878125 27.025352)scale(0.1 -0.1)">
       <use xlink:href="#DejaVuSans-31"/>
       <use xlink:href="#DejaVuSans-2e" x="63.623047"/>
       <use xlink:href="#DejaVuSans-35" x="95.410156"/>
       <use xlink:href="#DejaVuSans-33" x="159.033203"/>
       <use xlink:href="#DejaVuSans-35" x="222.65625"/>
      </g>
     </g>
    </g>
    <g id="text_13">
     <!-- Refractive Index -->
     <g transform="translate(14.798437 196.069437)rotate(-90)scale(0.1 -0.1)">
      <defs>
       <path id="DejaVuSans-52" d="M 2841 2188 
Q 3044 2119 3236 1894 
Q 3428 1669 3622 1275 
L 4263 0 
L 3584 0 
L 2988 1197 
Q 2756 1666 2539 1819 
Q 2322 1972 1947 1972 
L 1259 1972 
L 1259 0 
L 628 0 
L 628 4666 
L 2053 4666 
Q 2853 4666 3247 4331 
Q 3641 3997 3641 3322 
Q 3641 2881 3436 2590 
Q 3231 2300 2841 2188 
z
M 1259 4147 
L 1259 2491 
L 2053 2491 
Q 2509 2491 2742 2702 
Q 2975 2913 2975 3322 
Q 2975 3731 2742 3939 
Q 2509 4147 2053 4147 
L 1259 4147 
z
" transform="scale(0.015625)"/>
       <path id="DejaVuSans-66" d="M 2375 4863 
L 2375 4384 
L 1825 4384 
Q 1516 4384 1395 4259 
Q 1275 4134 1275 3809 
L 1275 3500 
L 2222 3500 
L 2222 3053 
L 1275 3053 
L 1275 0 
L 697 0 
L 697 3053 
L 147 3053 
L 147 3500 
L 697 3500 
L 697 3744 
Q 697 4328 969 4595 
Q 1241 4863 1831 4863 
L 2375 4863 
z
" transform="scale(0.015625)"/>
       <path id="DejaVuSans-72" d="M 2631 2963 
Q 2534 3019 2420 3045 
Q 2306 3072 2169 3072 
Q 1681 3072 1420 2755 
Q 1159 2438 1159 1844 
L 1159 0 
L 581 0 
L 581 3500 
L 1159 3500 
L 1159 2956 
Q 1341 3275 1631 3429 
Q 1922 3584 2338 3584 
Q 2397 3584 2469 3576 
Q 2541 3569 2628 3553 
L 2631 2963 
z
" transform="scale(0.015625)"/>
       <path id="DejaVuSans-69" d="M 603 3500 
L 1178 3500 
L 1178 0 
L 603 0 
L 603 3500 
z
M 603 4863 
L 1178 4863 
L 1178 4134 
L 603 4134 
L 603 4863 
z
" transform="scale(0.015625)"/>
       <path id="DejaVuSans-76" d="M 191 3500 
L 800 3500 
L 1894 563 
L 2988 3500 
L 3597 3500 
L 2284 0 
L 1503 0 
L 191 3500 
z
" transform="scale(0.015625)"/>
       <path id="DejaVuSans-64" d="M 2906 2969 
L 2906 4863 
L 3481 4863 
L 3481 0 
L 2906 0 
L 2906 525 
Q 2725 213 2448 61 
Q 2172 -91 1784 -91 
Q 1150 -91 751 415 
Q 353 922 353 1747 
Q 353 2572 751 3078 
Q 1150 3584 1784 3584 
Q 2172 3584 2448 3432 
Q 2725 3281 2906 2969 
z
M 947 1747 
Q 947 1113 1208 752 
Q 1469 391 1925 391 
Q 2381 391 2643 752 
Q 2906 1113 2906 1747 
Q 2906 2381 2643 2742 
Q 2381 3103 1925 3103 
Q 1469 3103 1208 2742 
Q 947 2381 947 1747 
z
" transform="scale(0.015625)"/>
       <path id="DejaVuSans-78" d="M 3513 3500 
L 2247 1797 
L 3578 0 
L 2900 0 
L 1881 1375 
L 863 0 
L 184 0 
L 1544 1831 
L 300 3500 
L 978 3500 
L 1906 2253 
L 2834 3500 
L 3513 3500 
z
" transform="scale(0.015625)"/>
      </defs>
      <use xlink:href="#DejaVuSans-52"/>
      <use xlink:href="#DejaVuSans-65" x="64.982422"/>
      <use xlink:href="#DejaVuSans-66" x="126.505859"/>
      <use xlink:href="#DejaVuSans-72" x="161.710938"/>
      <use xlink:href="#DejaVuSans-61" x="202.824219"/>
      <use xlink:href="#DejaVuSans-63" x="264.103516"/>
      <use xlink:href="#DejaVuSans-74" x="319.083984"/>
      <use xlink:href="#DejaVuSans-69" x="358.292969"/>
      <use xlink:href="#DejaVuSans-76" x="386.076172"/>
      <use xlink:href="#DejaVuSans-65" x="445.255859"/>
      <use xlink:href="#DejaVuSans-20" x="506.779297"/>
      <use xlink:href="#DejaVuSans-49" x="538.566406"/>
      <use xlink:href="#DejaVuSans-6e" x="568.058594"/>
      <use xlink:href="#DejaVuSans-64" x="631.4375"/>
      <use xlink:href="#DejaVuSans-65" x="694.914062"/>
      <use xlink:href="#DejaVuSans-78" x="754.6875"/>
     </g>
    </g>
   </g>
   <g id="line2d_12">
    <path d="M 72.738977 200.825906 
L 74.263177 211.054542 
L 77.311577 203.16065 
L 78.835776 156.181263 
L 80.359976 156.181263 
L 81.884176 156.423474 
L 83.408375 210.177777 
L 84.932575 224.457752 
L 87.980975 223.868168 
L 89.505174 218.258153 
L 92.553574 208.529004 
L 94.077774 157.714495 
L 95.601973 243.460014 
L 97.126173 140.742439 
L 100.174573 223.718651 
L 101.698772 239.393935 
L 103.222972 208.779318 
L 104.747172 207.118801 
L 106.271372 209.510327 
L 107.795571 204.505985 
L 109.319771 207.558818 
L 110.843971 203.349708 
L 112.368171 204.255124 
L 113.89237 185.376266 
L 115.41657 150.440016 
L 116.94077 186.399376 
L 118.46497 210.911877 
L 119.989169 218.929526 
L 121.513369 223.645098 
L 124.561769 204.918137 
L 126.085968 212.395131 
L 127.610168 212.548678 
L 129.134368 216.968247 
L 130.658568 192.405193 
L 132.182767 207.787593 
L 133.706967 167.906775 
L 135.231167 187.351191 
L 136.755367 193.343207 
L 138.279566 210.167279 
L 139.803766 198.34644 
L 141.327966 168.878438 
L 142.852165 211.012269 
L 144.376365 199.89417 
L 145.900565 200.630076 
L 147.424765 193.969982 
L 148.948964 164.64779 
L 150.473164 236.344803 
L 151.997364 197.028132 
L 153.521564 141.453512 
L 155.045763 51.741179 
L 156.569963 213.276091 
L 158.094163 200.447447 
L 159.618363 202.287849 
L 161.142562 169.331519 
L 162.666762 198.632526 
L 164.190962 217.98078 
L 165.715162 207.212469 
L 167.239361 199.353858 
L 168.763561 183.858251 
L 170.287761 207.76023 
L 171.811961 235.17474 
L 174.86036 185.198331 
L 176.38456 207.212469 
L 177.90876 195.588381 
L 179.432959 199.278057 
L 180.957159 164.477365 
L 182.481359 201.813731 
L 184.005559 206.782609 
L 185.529758 207.754157 
L 187.053958 110.885855 
L 188.578158 100.750568 
L 190.102358 202.242398 
L 191.626557 219.73729 
L 193.150757 226.851716 
L 194.674957 201.009002 
L 196.199157 197.387672 
L 197.723356 192.615207 
L 199.247556 165.863152 
L 200.771756 193.794151 
L 202.295956 208.547788 
L 203.820155 224.701103 
L 205.344355 200.868136 
L 206.868555 214.233166 
L 208.392754 219.025512 
L 209.916954 210.440032 
L 211.441154 210.403386 
L 212.965354 204.267805 
L 214.489553 202.139615 
L 216.013753 202.560034 
L 217.537953 156.89507 
L 219.062153 204.810305 
L 220.586352 164.567479 
L 222.110552 165.724637 
L 223.634752 219.384834 
L 225.158952 210.959235 
L 226.683151 182.399357 
L 228.207351 161.771716 
L 229.731551 208.852976 
L 231.255751 241.305622 
L 232.77995 191.440372 
L 234.30415 169.065691 
L 235.82835 205.476653 
L 237.35255 221.574032 
L 238.876749 201.631696 
L 240.400949 205.551536 
L 241.925149 181.535036 
L 243.449349 172.493497 
L 244.973548 155.50988 
L 246.497748 152.601126 
L 248.021948 201.637094 
L 249.546148 202.168007 
L 251.070347 146.048712 
L 252.594547 97.876957 
L 254.118747 179.411518 
L 255.642947 203.453462 
L 257.167146 204.590916 
L 258.691346 189.035011 
L 260.215546 175.220003 
L 261.739746 180.703292 
L 263.263945 204.18863 
L 264.788145 188.784704 
L 266.312345 197.660993 
L 267.836544 276.334125 
L 270.884944 209.595064 
L 272.409144 168.061272 
L 273.933343 200.546666 
L 275.457543 203.915979 
L 276.981743 201.331394 
L 278.505943 188.750938 
L 280.030142 199.384538 
L 281.554342 206.031876 
L 283.078542 174.775629 
L 284.602742 212.472433 
L 286.126941 224.848267 
L 287.651141 184.966268 
L 289.175341 218.633012 
L 290.699541 201.003234 
L 292.22374 202.24864 
L 293.74794 112.087288 
L 295.27214 216.858814 
L 296.79634 197.330061 
L 298.320539 190.893802 
L 299.844739 167.851755 
L 301.368939 151.758373 
L 302.893139 180.283685 
L 304.417338 215.36317 
L 305.941538 223.28738 
L 307.465738 207.648911 
L 308.989938 157.184959 
L 310.514137 213.309703 
L 312.038337 46.627473 
L 313.562537 203.807165 
L 315.086737 202.723314 
L 316.610936 203.621844 
L 318.135136 198.98694 
L 319.659336 201.741121 
L 321.183536 188.8691 
L 322.707735 159.870834 
L 324.231935 181.091392 
L 325.756135 150.634879 
L 328.804534 224.275289 
L 330.328734 221.690944 
L 331.852934 212.986128 
L 333.377133 213.504032 
L 334.901333 220.908227 
L 336.425533 211.563243 
L 337.949733 212.902398 
L 339.473932 217.671011 
L 340.998132 220.937958 
L 342.522332 215.9757 
L 344.046532 220.512698 
L 345.570731 198.731896 
L 347.094931 215.806683 
L 348.619131 183.838971 
L 350.143331 222.572043 
L 351.66753 197.807809 
L 353.19173 213.977378 
L 354.71593 255.320641 
L 356.24013 222.354417 
L 357.764329 226.789535 
L 359.288529 233.3524 
L 360.812729 223.314839 
L 362.336929 207.314984 
L 363.861128 214.979782 
L 365.385328 210.288513 
L 366.909528 222.000836 
L 368.433728 206.987682 
L 369.957927 210.468769 
L 371.482127 205.449984 
L 373.006327 195.986683 
L 374.530527 210.530944 
L 376.054726 166.077145 
L 377.578926 219.358825 
L 379.103126 222.241127 
L 380.627326 220.472779 
L 382.151525 210.623219 
L 383.675725 217.011905 
L 385.199925 216.832942 
L 386.724125 203.766614 
L 388.248324 161.533681 
L 389.772524 189.018614 
L 391.296724 107.601341 
L 392.820923 215.649486 
L 394.345123 207.316765 
L 395.869323 205.303441 
L 397.393523 246.217191 
L 397.393523 246.217191 
" clip-path="url(#p369b0c2b25)" style="fill: none; stroke: #ff0000; stroke-width: 1.5; stroke-linecap: square"/>
   </g>
   <g id="line2d_13">
    <path d="M 72.738977 202.652243 
L 74.263177 204.325214 
L 75.787377 206.520988 
L 77.311577 203.593289 
L 78.835776 157.795716 
L 80.359976 157.795716 
L 81.884176 158.109398 
L 83.408375 205.789063 
L 84.932575 222.937013 
L 87.980975 222.623331 
L 89.505174 221.368603 
L 91.029374 214.258477 
L 92.553574 199.829105 
L 94.077774 166.787933 
L 95.601973 251.063833 
L 97.126173 175.571029 
L 98.650373 186.65446 
L 100.174573 220.95036 
L 101.698772 230.883624 
L 103.222972 219.486511 
L 104.747172 213.003749 
L 106.271372 204.534335 
L 107.795571 204.848017 
L 109.319771 207.775716 
L 110.843971 204.325214 
L 112.368171 201.292954 
L 113.89237 190.523205 
L 115.41657 146.607724 
L 116.94077 187.804628 
L 118.46497 198.469816 
L 119.989169 224.609984 
L 121.513369 222.623331 
L 123.037569 216.454251 
L 124.561769 200.351908 
L 126.085968 212.480946 
L 127.610168 215.408645 
L 129.134368 217.395297 
L 130.658568 201.397515 
L 132.182767 230.883624 
L 133.706967 164.278477 
L 135.231167 190.000402 
L 136.755367 147.130527 
L 138.279566 226.492076 
L 139.803766 188.641113 
L 141.327966 183.622201 
L 142.852165 205.893624 
L 144.376365 201.711197 
L 145.900565 202.443122 
L 147.424765 190.000402 
L 148.948964 164.173916 
L 150.473164 241.862494 
L 151.997364 198.888059 
L 153.521564 137.197264 
L 155.045763 62.436385 
L 156.569963 210.598854 
L 158.094163 161.5599 
L 159.618363 214.885841 
L 161.142562 177.975925 
L 162.666762 200.979272 
L 164.190962 210.285172 
L 165.715162 220.845799 
L 167.239361 216.140569 
L 168.763561 186.968142 
L 170.287761 213.212871 
L 171.811961 231.510988 
L 173.33616 205.579942 
L 174.86036 189.373038 
L 176.38456 205.684502 
L 177.90876 200.142787 
L 179.432959 197.110527 
L 180.957159 164.173916 
L 182.481359 194.705632 
L 184.005559 206.93923 
L 185.529758 216.140569 
L 187.053958 104.260653 
L 188.578158 102.796803 
L 190.102358 196.169481 
L 191.626557 215.304084 
L 193.150757 214.153917 
L 194.674957 215.617766 
L 196.199157 196.901406 
L 197.723356 203.488728 
L 199.247556 162.187264 
L 200.771756 197.947013 
L 202.295956 215.826887 
L 203.820155 220.113875 
L 205.344355 208.089398 
L 206.868555 207.043791 
L 208.392754 222.309649 
L 209.916954 206.93923 
L 211.441154 206.416427 
L 212.965354 209.344126 
L 214.489553 202.756804 
L 216.013753 203.175046 
L 217.537953 156.750109 
L 219.062153 205.789063 
L 220.586352 162.082703 
L 222.110552 162.082703 
L 223.634752 219.068268 
L 225.158952 217.081615 
L 226.683151 196.692285 
L 228.207351 161.5599 
L 229.731551 215.094963 
L 231.255751 251.586636 
L 232.77995 191.777933 
L 234.30415 183.308519 
L 235.82835 209.448686 
L 237.35255 208.612201 
L 238.876749 206.102745 
L 240.400949 201.711197 
L 241.925149 189.582159 
L 243.449349 182.472034 
L 244.973548 156.331866 
L 246.497748 148.698937 
L 248.021948 195.96036 
L 249.546148 199.829105 
L 251.070347 130.40082 
L 252.594547 98.823498 
L 254.118747 171.597724 
L 255.642947 214.572159 
L 257.167146 217.081615 
L 258.691346 197.633331 
L 260.215546 158.004837 
L 261.739746 180.694502 
L 264.788145 167.624418 
L 266.312345 195.542117 
L 267.836544 272.603331 
L 269.360744 270.93036 
L 270.884944 204.848017 
L 272.409144 159.573247 
L 273.933343 207.671155 
L 275.457543 204.743456 
L 276.981743 225.341908 
L 278.505943 190.732327 
L 280.030142 203.279607 
L 281.554342 262.147264 
L 283.078542 169.715632 
L 284.602742 220.532117 
L 286.126941 217.708979 
L 287.651141 196.692285 
L 289.175341 212.585507 
L 290.699541 196.378603 
L 292.22374 193.450904 
L 293.74794 115.866887 
L 295.27214 210.494293 
L 296.79634 212.062703 
L 298.320539 188.954795 
L 299.844739 154.240653 
L 301.368939 141.902494 
L 302.893139 169.506511 
L 304.417338 205.057138 
L 305.941538 220.009314 
L 307.465738 205.684502 
L 308.989938 110.325171 
L 310.514137 217.186176 
L 312.038337 34.414125 
L 313.562537 191.359691 
L 315.086737 197.947013 
L 316.610936 199.619983 
L 318.135136 202.12944 
L 319.659336 195.646678 
L 321.183536 203.175046 
L 322.707735 167.415297 
L 324.231935 183.308519 
L 325.756135 141.484251 
L 327.280335 188.850234 
L 328.804534 227.642243 
L 330.328734 197.737891 
L 331.852934 217.708979 
L 333.377133 216.558812 
L 334.901333 223.041574 
L 336.425533 205.057138 
L 337.949733 217.186176 
L 339.473932 222.51877 
L 340.998132 225.132787 
L 342.522332 223.146134 
L 344.046532 218.859147 
L 345.570731 196.064921 
L 347.094931 212.794628 
L 348.619131 172.957013 
L 350.143331 214.153917 
L 351.66753 204.220653 
L 353.19173 214.990402 
L 354.71593 253.364168 
L 356.24013 197.005967 
L 357.764329 221.682285 
L 359.288529 219.486511 
L 360.812729 229.106092 
L 362.336929 217.186176 
L 363.861128 173.270695 
L 365.385328 210.285172 
L 366.909528 224.923666 
L 368.433728 206.207306 
L 369.957927 209.239565 
L 371.482127 202.652243 
L 373.006327 193.764586 
L 374.530527 204.220653 
L 376.054726 164.173916 
L 377.578926 218.650025 
L 379.103126 222.309649 
L 380.627326 222.937013 
L 382.151525 219.277389 
L 383.675725 220.009314 
L 385.199925 222.937013 
L 386.724125 208.298519 
L 388.248324 156.854669 
L 389.772524 199.09718 
L 391.296724 110.638853 
L 392.820923 210.703415 
L 394.345123 220.845799 
L 395.869323 220.532117 
L 397.393523 216.349691 
L 397.393523 216.349691 
" clip-path="url(#p369b0c2b25)" style="fill: none; stroke: #0000ff; stroke-width: 1.5; stroke-linecap: square"/>
   </g>
   <g id="patch_3">
    <path d="M 56.50625 288.430125 
L 56.50625 22.318125 
" style="fill: none; stroke: #000000; stroke-width: 0.8; stroke-linejoin: miter; stroke-linecap: square"/>
   </g>
   <g id="patch_4">
    <path d="M 413.62625 288.430125 
L 413.62625 22.318125 
" style="fill: none; stroke: #000000; stroke-width: 0.8; stroke-linejoin: miter; stroke-linecap: square"/>
   </g>
   <g id="patch_5">
    <path d="M 56.50625 288.430125 
L 413.62625 288.430125 
" style="fill: none; stroke: #000000; stroke-width: 0.8; stroke-linejoin: miter; stroke-linecap: square"/>
   </g>
   <g id="patch_6">
    <path d="M 56.50625 22.318125 
L 413.62625 22.318125 
" style="fill: none; stroke: #000000; stroke-width: 0.8; stroke-linejoin: miter; stroke-linecap: square"/>
   </g>
   <g id="text_14">
    <!-- ANN Predictions vs. True Value -->
    <g transform="translate(143.625313 16.318125)scale(0.12 -0.12)">
     <defs>
      <path id="DejaVuSans-41" d="M 2188 4044 
L 1331 1722 
L 3047 1722 
L 2188 4044 
z
M 1831 4666 
L 2547 4666 
L 4325 0 
L 3669 0 
L 3244 1197 
L 1141 1197 
L 716 0 
L 50 0 
L 1831 4666 
z
" transform="scale(0.015625)"/>
      <path id="DejaVuSans-50" d="M 1259 4147 
L 1259 2394 
L 2053 2394 
Q 2494 2394 2734 2622 
Q 2975 2850 2975 3272 
Q 2975 3691 2734 3919 
Q 2494 4147 2053 4147 
L 1259 4147 
z
M 628 4666 
L 2053 4666 
Q 2838 4666 3239 4311 
Q 3641 3956 3641 3272 
Q 3641 2581 3239 2228 
Q 2838 1875 2053 1875 
L 1259 1875 
L 1259 0 
L 628 0 
L 628 4666 
z
" transform="scale(0.015625)"/>
      <path id="DejaVuSans-54" d="M -19 4666 
L 3928 4666 
L 3928 4134 
L 2272 4134 
L 2272 0 
L 1638 0 
L 1638 4134 
L -19 4134 
L -19 4666 
z
" transform="scale(0.015625)"/>
      <path id="DejaVuSans-75" d="M 544 1381 
L 544 3500 
L 1119 3500 
L 1119 1403 
Q 1119 906 1312 657 
Q 1506 409 1894 409 
Q 2359 409 2629 706 
Q 2900 1003 2900 1516 
L 2900 3500 
L 3475 3500 
L 3475 0 
L 2900 0 
L 2900 538 
Q 2691 219 2414 64 
Q 2138 -91 1772 -91 
Q 1169 -91 856 284 
Q 544 659 544 1381 
z
M 1991 3584 
L 1991 3584 
z
" transform="scale(0.015625)"/>
      <path id="DejaVuSans-56" d="M 1831 0 
L 50 4666 
L 709 4666 
L 2188 738 
L 3669 4666 
L 4325 4666 
L 2547 0 
L 1831 0 
z
" transform="scale(0.015625)"/>
      <path id="DejaVuSans-6c" d="M 603 4863 
L 1178 4863 
L 1178 0 
L 603 0 
L 603 4863 
z
" transform="scale(0.015625)"/>
     </defs>
     <use xlink:href="#DejaVuSans-41"/>
     <use xlink:href="#DejaVuSans-4e" x="68.408203"/>
     <use xlink:href="#DejaVuSans-4e" x="143.212891"/>
     <use xlink:href="#DejaVuSans-20" x="218.017578"/>
     <use xlink:href="#DejaVuSans-50" x="249.804688"/>
     <use xlink:href="#DejaVuSans-72" x="308.357422"/>
     <use xlink:href="#DejaVuSans-65" x="347.220703"/>
     <use xlink:href="#DejaVuSans-64" x="408.744141"/>
     <use xlink:href="#DejaVuSans-69" x="472.220703"/>
     <use xlink:href="#DejaVuSans-63" x="500.003906"/>
     <use xlink:href="#DejaVuSans-74" x="554.984375"/>
     <use xlink:href="#DejaVuSans-69" x="594.193359"/>
     <use xlink:href="#DejaVuSans-6f" x="621.976562"/>
     <use xlink:href="#DejaVuSans-6e" x="683.158203"/>
     <use xlink:href="#DejaVuSans-73" x="746.537109"/>
     <use xlink:href="#DejaVuSans-20" x="798.636719"/>
     <use xlink:href="#DejaVuSans-76" x="830.423828"/>
     <use xlink:href="#DejaVuSans-73" x="889.603516"/>
     <use xlink:href="#DejaVuSans-2e" x="941.703125"/>
     <use xlink:href="#DejaVuSans-20" x="973.490234"/>
     <use xlink:href="#DejaVuSans-54" x="1005.277344"/>
     <use xlink:href="#DejaVuSans-72" x="1051.611328"/>
     <use xlink:href="#DejaVuSans-75" x="1092.724609"/>
     <use xlink:href="#DejaVuSans-65" x="1156.103516"/>
     <use xlink:href="#DejaVuSans-20" x="1217.626953"/>
     <use xlink:href="#DejaVuSans-56" x="1249.414062"/>
     <use xlink:href="#DejaVuSans-61" x="1310.072266"/>
     <use xlink:href="#DejaVuSans-6c" x="1371.351562"/>
     <use xlink:href="#DejaVuSans-75" x="1399.134766"/>
     <use xlink:href="#DejaVuSans-65" x="1462.513672"/>
    </g>
   </g>
   <g id="legend_1">
    <g id="patch_7">
     <path d="M 322.75125 59.674375 
L 406.62625 59.674375 
Q 408.62625 59.674375 408.62625 57.674375 
L 408.62625 29.318125 
Q 408.62625 27.318125 406.62625 27.318125 
L 322.75125 27.318125 
Q 320.75125 27.318125 320.75125 29.318125 
L 320.75125 57.674375 
Q 320.75125 59.674375 322.75125 59.674375 
z
" style="fill: #ffffff; opacity: 0.8; stroke: #cccccc; stroke-linejoin: miter"/>
    </g>
    <g id="line2d_14">
     <path d="M 324.75125 35.416562 
L 334.75125 35.416562 
L 344.75125 35.416562 
" style="fill: none; stroke: #ff0000; stroke-width: 1.5; stroke-linecap: square"/>
    </g>
    <g id="text_15">
     <!-- Prediction -->
     <g transform="translate(352.75125 38.916562)scale(0.1 -0.1)">
      <use xlink:href="#DejaVuSans-50"/>
      <use xlink:href="#DejaVuSans-72" x="58.552734"/>
      <use xlink:href="#DejaVuSans-65" x="97.416016"/>
      <use xlink:href="#DejaVuSans-64" x="158.939453"/>
      <use xlink:href="#DejaVuSans-69" x="222.416016"/>
      <use xlink:href="#DejaVuSans-63" x="250.199219"/>
      <use xlink:href="#DejaVuSans-74" x="305.179688"/>
      <use xlink:href="#DejaVuSans-69" x="344.388672"/>
      <use xlink:href="#DejaVuSans-6f" x="372.171875"/>
      <use xlink:href="#DejaVuSans-6e" x="433.353516"/>
     </g>
    </g>
    <g id="line2d_15">
     <path d="M 324.75125 50.094687 
L 334.75125 50.094687 
L 344.75125 50.094687 
" style="fill: none; stroke: #0000ff; stroke-width: 1.5; stroke-linecap: square"/>
    </g>
    <g id="text_16">
     <!-- True Value -->
     <g transform="translate(352.75125 53.594687)scale(0.1 -0.1)">
      <use xlink:href="#DejaVuSans-54"/>
      <use xlink:href="#DejaVuSans-72" x="46.333984"/>
      <use xlink:href="#DejaVuSans-75" x="87.447266"/>
      <use xlink:href="#DejaVuSans-65" x="150.826172"/>
      <use xlink:href="#DejaVuSans-20" x="212.349609"/>
      <use xlink:href="#DejaVuSans-56" x="244.136719"/>
      <use xlink:href="#DejaVuSans-61" x="304.794922"/>
      <use xlink:href="#DejaVuSans-6c" x="366.074219"/>
      <use xlink:href="#DejaVuSans-75" x="393.857422"/>
      <use xlink:href="#DejaVuSans-65" x="457.236328"/>
     </g>
    </g>
   </g>
  </g>
 </g>
 <defs>
  <clipPath id="p369b0c2b25">
   <rect x="56.50625" y="22.318125" width="357.12" height="266.112"/>
  </clipPath>
 </defs>
</svg>
