<?xml version="1.0" encoding="utf-8" standalone="no"?>
<!DOCTYPE svg PUBLIC "-//W3C//DTD SVG 1.1//EN"
  "http://www.w3.org/Graphics/SVG/1.1/DTD/svg11.dtd">
<svg xmlns:xlink="http://www.w3.org/1999/xlink" width="408.10125pt" height="325.986375pt" viewBox="0 0 408.10125 325.986375" xmlns="http://www.w3.org/2000/svg" version="1.1">
 <metadata>
  <rdf:RDF xmlns:dc="http://purl.org/dc/elements/1.1/" xmlns:cc="http://creativecommons.org/ns#" xmlns:rdf="http://www.w3.org/1999/02/22-rdf-syntax-ns#">
   <cc:Work>
    <dc:type rdf:resource="http://purl.org/dc/dcmitype/StillImage"/>
    <dc:date>2023-04-15T14:40:45.993286</dc:date>
    <dc:format>image/svg+xml</dc:format>
    <dc:creator>
     <cc:Agent>
      <dc:title>Matplotlib v3.5.2, https://matplotlib.org/</dc:title>
     </cc:Agent>
    </dc:creator>
   </cc:Work>
  </rdf:RDF>
 </metadata>
 <defs>
  <style type="text/css">*{stroke-linejoin: round; stroke-linecap: butt}</style>
 </defs>
 <g id="figure_1">
  <g id="patch_1">
   <path d="M 0 325.986375 
L 408.10125 325.986375 
L 408.10125 0 
L 0 0 
z
" style="fill: #ffffff"/>
  </g>
  <g id="axes_1">
   <g id="patch_2">
    <path d="M 43.78125 288.430125 
L 400.90125 288.430125 
L 400.90125 22.318125 
L 43.78125 22.318125 
z
" style="fill: #ffffff"/>
   </g>
   <g id="PathCollection_1">
    <defs>
     <path id="mdbd28e0aa9" d="M 0 3 
C 0.795609 3 1.55874 2.683901 2.12132 2.12132 
C 2.683901 1.55874 3 0.795609 3 0 
C 3 -0.795609 2.683901 -1.55874 2.12132 -2.12132 
C 1.55874 -2.683901 0.795609 -3 0 -3 
C -0.795609 -3 -1.55874 -2.683901 -2.12132 -2.12132 
C -2.683901 -1.55874 -3 -0.795609 -3 0 
C -3 0.795609 -2.683901 1.55874 -2.12132 2.12132 
C -1.55874 2.683901 -0.795609 3 0 3 
z
" style="stroke: #1f77b4"/>
    </defs>
    <g clip-path="url(#p1c56c3908b)">
     <use xlink:href="#mdbd28e0aa9" x="161.447469" y="125.475379" style="fill: #1f77b4; stroke: #1f77b4"/>
     <use xlink:href="#mdbd28e0aa9" x="159.374489" y="125.531956" style="fill: #1f77b4; stroke: #1f77b4"/>
     <use xlink:href="#mdbd28e0aa9" x="156.653703" y="126.052225" style="fill: #1f77b4; stroke: #1f77b4"/>
     <use xlink:href="#mdbd28e0aa9" x="160.281418" y="126.394297" style="fill: #1f77b4; stroke: #1f77b4"/>
     <use xlink:href="#mdbd28e0aa9" x="217.029239" y="125.128749" style="fill: #1f77b4; stroke: #1f77b4"/>
     <use xlink:href="#mdbd28e0aa9" x="217.029239" y="125.128749" style="fill: #1f77b4; stroke: #1f77b4"/>
     <use xlink:href="#mdbd28e0aa9" x="216.640556" y="124.36888" style="fill: #1f77b4; stroke: #1f77b4"/>
     <use xlink:href="#mdbd28e0aa9" x="157.560632" y="125.808644" style="fill: #1f77b4; stroke: #1f77b4"/>
     <use xlink:href="#mdbd28e0aa9" x="136.312589" y="124.900803" style="fill: #1f77b4; stroke: #1f77b4"/>
     <use xlink:href="#mdbd28e0aa9" x="136.571712" y="124.151489" style="fill: #1f77b4; stroke: #1f77b4"/>
     <use xlink:href="#mdbd28e0aa9" x="136.701273" y="126.266085" style="fill: #1f77b4; stroke: #1f77b4"/>
     <use xlink:href="#mdbd28e0aa9" x="138.256008" y="126.219487" style="fill: #1f77b4; stroke: #1f77b4"/>
     <use xlink:href="#mdbd28e0aa9" x="147.066172" y="126.295464" style="fill: #1f77b4; stroke: #1f77b4"/>
     <use xlink:href="#mdbd28e0aa9" x="164.945622" y="125.658385" style="fill: #1f77b4; stroke: #1f77b4"/>
     <use xlink:href="#mdbd28e0aa9" x="205.886973" y="123.94849" style="fill: #1f77b4; stroke: #1f77b4"/>
     <use xlink:href="#mdbd28e0aa9" x="101.460617" y="125.705757" style="fill: #1f77b4; stroke: #1f77b4"/>
     <use xlink:href="#mdbd28e0aa9" x="195.003829" y="123.880908" style="fill: #1f77b4; stroke: #1f77b4"/>
     <use xlink:href="#mdbd28e0aa9" x="181.270338" y="125.121328" style="fill: #1f77b4; stroke: #1f77b4"/>
     <use xlink:href="#mdbd28e0aa9" x="138.774253" y="125.003113" style="fill: #1f77b4; stroke: #1f77b4"/>
     <use xlink:href="#mdbd28e0aa9" x="126.465935" y="126.107054" style="fill: #1f77b4; stroke: #1f77b4"/>
     <use xlink:href="#mdbd28e0aa9" x="140.58811" y="123.551083" style="fill: #1f77b4; stroke: #1f77b4"/>
     <use xlink:href="#mdbd28e0aa9" x="148.620907" y="126.435257" style="fill: #1f77b4; stroke: #1f77b4"/>
     <use xlink:href="#mdbd28e0aa9" x="159.115367" y="125.504829" style="fill: #1f77b4; stroke: #1f77b4"/>
     <use xlink:href="#mdbd28e0aa9" x="158.726683" y="125.504829" style="fill: #1f77b4; stroke: #1f77b4"/>
     <use xlink:href="#mdbd28e0aa9" x="155.098968" y="125.504829" style="fill: #1f77b4; stroke: #1f77b4"/>
     <use xlink:href="#mdbd28e0aa9" x="159.374489" y="125.504829" style="fill: #1f77b4; stroke: #1f77b4"/>
     <use xlink:href="#mdbd28e0aa9" x="163.131765" y="125.504829" style="fill: #1f77b4; stroke: #1f77b4"/>
     <use xlink:href="#mdbd28e0aa9" x="176.476572" y="125.504829" style="fill: #1f77b4; stroke: #1f77b4"/>
     <use xlink:href="#mdbd28e0aa9" x="230.892292" y="125.504829" style="fill: #1f77b4; stroke: #1f77b4"/>
     <use xlink:href="#mdbd28e0aa9" x="179.845165" y="125.504829" style="fill: #1f77b4; stroke: #1f77b4"/>
     <use xlink:href="#mdbd28e0aa9" x="166.629918" y="125.504829" style="fill: #1f77b4; stroke: #1f77b4"/>
     <use xlink:href="#mdbd28e0aa9" x="134.239609" y="125.504829" style="fill: #1f77b4; stroke: #1f77b4"/>
     <use xlink:href="#mdbd28e0aa9" x="136.701273" y="125.504829" style="fill: #1f77b4; stroke: #1f77b4"/>
     <use xlink:href="#mdbd28e0aa9" x="144.345386" y="125.504829" style="fill: #1f77b4; stroke: #1f77b4"/>
     <use xlink:href="#mdbd28e0aa9" x="164.297816" y="125.504829" style="fill: #1f77b4; stroke: #1f77b4"/>
     <use xlink:href="#mdbd28e0aa9" x="149.268713" y="125.504829" style="fill: #1f77b4; stroke: #1f77b4"/>
     <use xlink:href="#mdbd28e0aa9" x="145.640998" y="125.504829" style="fill: #1f77b4; stroke: #1f77b4"/>
     <use xlink:href="#mdbd28e0aa9" x="143.179335" y="125.504829" style="fill: #1f77b4; stroke: #1f77b4"/>
     <use xlink:href="#mdbd28e0aa9" x="163.002204" y="125.504829" style="fill: #1f77b4; stroke: #1f77b4"/>
     <use xlink:href="#mdbd28e0aa9" x="126.465935" y="125.504829" style="fill: #1f77b4; stroke: #1f77b4"/>
     <use xlink:href="#mdbd28e0aa9" x="208.996443" y="125.504829" style="fill: #1f77b4; stroke: #1f77b4"/>
     <use xlink:href="#mdbd28e0aa9" x="177.124379" y="125.504829" style="fill: #1f77b4; stroke: #1f77b4"/>
     <use xlink:href="#mdbd28e0aa9" x="230.244485" y="125.504829" style="fill: #1f77b4; stroke: #1f77b4"/>
     <use xlink:href="#mdbd28e0aa9" x="131.907507" y="125.504829" style="fill: #1f77b4; stroke: #1f77b4"/>
     <use xlink:href="#mdbd28e0aa9" x="178.808675" y="197.28784" style="fill: #1f77b4; stroke: #1f77b4"/>
     <use xlink:href="#mdbd28e0aa9" x="185.027614" y="254.672343" style="fill: #1f77b4; stroke: #1f77b4"/>
     <use xlink:href="#mdbd28e0aa9" x="157.431071" y="43.783755" style="fill: #1f77b4; stroke: #1f77b4"/>
     <use xlink:href="#mdbd28e0aa9" x="162.61352" y="80.258879" style="fill: #1f77b4; stroke: #1f77b4"/>
     <use xlink:href="#mdbd28e0aa9" x="161.706591" y="89.715022" style="fill: #1f77b4; stroke: #1f77b4"/>
     <use xlink:href="#mdbd28e0aa9" x="177.124379" y="138.726833" style="fill: #1f77b4; stroke: #1f77b4"/>
     <use xlink:href="#mdbd28e0aa9" x="209.126004" y="166.980074" style="fill: #1f77b4; stroke: #1f77b4"/>
     <use xlink:href="#mdbd28e0aa9" x="112.862005" y="171.856721" style="fill: #1f77b4; stroke: #1f77b4"/>
     <use xlink:href="#mdbd28e0aa9" x="166.111674" y="34.414125" style="fill: #1f77b4; stroke: #1f77b4"/>
     <use xlink:href="#mdbd28e0aa9" x="242.552803" y="276.334125" style="fill: #1f77b4; stroke: #1f77b4"/>
     <use xlink:href="#mdbd28e0aa9" x="335.189087" y="175.660281" style="fill: #1f77b4; stroke: #1f77b4"/>
     <use xlink:href="#mdbd28e0aa9" x="151.600815" y="165.471864" style="fill: #1f77b4; stroke: #1f77b4"/>
     <use xlink:href="#mdbd28e0aa9" x="212.365035" y="113.75982" style="fill: #1f77b4; stroke: #1f77b4"/>
     <use xlink:href="#mdbd28e0aa9" x="146.288804" y="95.627307" style="fill: #1f77b4; stroke: #1f77b4"/>
     <use xlink:href="#mdbd28e0aa9" x="192.023921" y="233.496084" style="fill: #1f77b4; stroke: #1f77b4"/>
     <use xlink:href="#mdbd28e0aa9" x="163.520449" y="195.670277" style="fill: #1f77b4; stroke: #1f77b4"/>
     <use xlink:href="#mdbd28e0aa9" x="151.989499" y="69.17721" style="fill: #1f77b4; stroke: #1f77b4"/>
     <use xlink:href="#mdbd28e0aa9" x="138.903814" y="116.648858" style="fill: #1f77b4; stroke: #1f77b4"/>
     <use xlink:href="#mdbd28e0aa9" x="144.73407" y="131.944498" style="fill: #1f77b4; stroke: #1f77b4"/>
     <use xlink:href="#mdbd28e0aa9" x="180.881654" y="154.45749" style="fill: #1f77b4; stroke: #1f77b4"/>
     <use xlink:href="#mdbd28e0aa9" x="148.361784" y="88.100034" style="fill: #1f77b4; stroke: #1f77b4"/>
     <use xlink:href="#mdbd28e0aa9" x="125.688568" y="109.027507" style="fill: #1f77b4; stroke: #1f77b4"/>
     <use xlink:href="#mdbd28e0aa9" x="157.819754" y="125.518501" style="fill: #1f77b4; stroke: #1f77b4"/>
     <use xlink:href="#mdbd28e0aa9" x="177.901746" y="125.518501" style="fill: #1f77b4; stroke: #1f77b4"/>
     <use xlink:href="#mdbd28e0aa9" x="157.690193" y="125.518501" style="fill: #1f77b4; stroke: #1f77b4"/>
     <use xlink:href="#mdbd28e0aa9" x="164.556939" y="125.518501" style="fill: #1f77b4; stroke: #1f77b4"/>
     <use xlink:href="#mdbd28e0aa9" x="168.314215" y="125.518501" style="fill: #1f77b4; stroke: #1f77b4"/>
     <use xlink:href="#mdbd28e0aa9" x="209.126004" y="125.518501" style="fill: #1f77b4; stroke: #1f77b4"/>
     <use xlink:href="#mdbd28e0aa9" x="171.294123" y="125.518501" style="fill: #1f77b4; stroke: #1f77b4"/>
     <use xlink:href="#mdbd28e0aa9" x="156.135458" y="125.518501" style="fill: #1f77b4; stroke: #1f77b4"/>
     <use xlink:href="#mdbd28e0aa9" x="144.73407" y="125.518501" style="fill: #1f77b4; stroke: #1f77b4"/>
     <use xlink:href="#mdbd28e0aa9" x="283.364592" y="125.518501" style="fill: #1f77b4; stroke: #1f77b4"/>
     <use xlink:href="#mdbd28e0aa9" x="285.17845" y="125.518501" style="fill: #1f77b4; stroke: #1f77b4"/>
     <use xlink:href="#mdbd28e0aa9" x="169.480266" y="125.518501" style="fill: #1f77b4; stroke: #1f77b4"/>
     <use xlink:href="#mdbd28e0aa9" x="145.770559" y="125.518501" style="fill: #1f77b4; stroke: #1f77b4"/>
     <use xlink:href="#mdbd28e0aa9" x="147.195733" y="125.518501" style="fill: #1f77b4; stroke: #1f77b4"/>
     <use xlink:href="#mdbd28e0aa9" x="145.381876" y="125.518501" style="fill: #1f77b4; stroke: #1f77b4"/>
     <use xlink:href="#mdbd28e0aa9" x="168.573337" y="125.518501" style="fill: #1f77b4; stroke: #1f77b4"/>
     <use xlink:href="#mdbd28e0aa9" x="160.410979" y="125.518501" style="fill: #1f77b4; stroke: #1f77b4"/>
     <use xlink:href="#mdbd28e0aa9" x="211.587667" y="125.518501" style="fill: #1f77b4; stroke: #1f77b4"/>
     <use xlink:href="#mdbd28e0aa9" x="167.277725" y="125.518501" style="fill: #1f77b4; stroke: #1f77b4"/>
     <use xlink:href="#mdbd28e0aa9" x="145.122753" y="125.518501" style="fill: #1f77b4; stroke: #1f77b4"/>
     <use xlink:href="#mdbd28e0aa9" x="139.810743" y="125.518501" style="fill: #1f77b4; stroke: #1f77b4"/>
     <use xlink:href="#mdbd28e0aa9" x="154.710285" y="125.518501" style="fill: #1f77b4; stroke: #1f77b4"/>
     <use xlink:href="#mdbd28e0aa9" x="156.005897" y="125.744862" style="fill: #1f77b4; stroke: #1f77b4"/>
     <use xlink:href="#mdbd28e0aa9" x="137.089957" y="125.744862" style="fill: #1f77b4; stroke: #1f77b4"/>
     <use xlink:href="#mdbd28e0aa9" x="156.135458" y="125.744862" style="fill: #1f77b4; stroke: #1f77b4"/>
     <use xlink:href="#mdbd28e0aa9" x="156.783265" y="125.744862" style="fill: #1f77b4; stroke: #1f77b4"/>
     <use xlink:href="#mdbd28e0aa9" x="153.15555" y="125.744862" style="fill: #1f77b4; stroke: #1f77b4"/>
     <use xlink:href="#mdbd28e0aa9" x="161.317908" y="125.744862" style="fill: #1f77b4; stroke: #1f77b4"/>
     <use xlink:href="#mdbd28e0aa9" x="160.799663" y="125.744862" style="fill: #1f77b4; stroke: #1f77b4"/>
     <use xlink:href="#mdbd28e0aa9" x="218.324852" y="125.744862" style="fill: #1f77b4; stroke: #1f77b4"/>
     <use xlink:href="#mdbd28e0aa9" x="157.560632" y="125.744862" style="fill: #1f77b4; stroke: #1f77b4"/>
     <use xlink:href="#mdbd28e0aa9" x="211.717229" y="125.744862" style="fill: #1f77b4; stroke: #1f77b4"/>
     <use xlink:href="#mdbd28e0aa9" x="211.717229" y="125.744862" style="fill: #1f77b4; stroke: #1f77b4"/>
     <use xlink:href="#mdbd28e0aa9" x="141.106355" y="125.744862" style="fill: #1f77b4; stroke: #1f77b4"/>
     <use xlink:href="#mdbd28e0aa9" x="143.568018" y="125.744862" style="fill: #1f77b4; stroke: #1f77b4"/>
     <use xlink:href="#mdbd28e0aa9" x="168.832459" y="125.744862" style="fill: #1f77b4; stroke: #1f77b4"/>
     <use xlink:href="#mdbd28e0aa9" x="212.365035" y="125.744862" style="fill: #1f77b4; stroke: #1f77b4"/>
     <use xlink:href="#mdbd28e0aa9" x="146.029682" y="125.744862" style="fill: #1f77b4; stroke: #1f77b4"/>
     <use xlink:href="#mdbd28e0aa9" x="100.812811" y="125.744862" style="fill: #1f77b4; stroke: #1f77b4"/>
     <use xlink:href="#mdbd28e0aa9" x="174.921838" y="125.744862" style="fill: #1f77b4; stroke: #1f77b4"/>
     <use xlink:href="#mdbd28e0aa9" x="185.416298" y="125.744862" style="fill: #1f77b4; stroke: #1f77b4"/>
     <use xlink:href="#mdbd28e0aa9" x="153.025989" y="125.744862" style="fill: #1f77b4; stroke: #1f77b4"/>
     <use xlink:href="#mdbd28e0aa9" x="154.062479" y="125.744862" style="fill: #1f77b4; stroke: #1f77b4"/>
     <use xlink:href="#mdbd28e0aa9" x="157.171948" y="125.673695" style="fill: #1f77b4; stroke: #1f77b4"/>
     <use xlink:href="#mdbd28e0aa9" x="162.61352" y="125.804987" style="fill: #1f77b4; stroke: #1f77b4"/>
     <use xlink:href="#mdbd28e0aa9" x="177.642624" y="126.261925" style="fill: #1f77b4; stroke: #1f77b4"/>
     <use xlink:href="#mdbd28e0aa9" x="186.452788" y="126.72821" style="fill: #1f77b4; stroke: #1f77b4"/>
     <use xlink:href="#mdbd28e0aa9" x="218.843097" y="126.692186" style="fill: #1f77b4; stroke: #1f77b4"/>
     <use xlink:href="#mdbd28e0aa9" x="228.301067" y="126.320014" style="fill: #1f77b4; stroke: #1f77b4"/>
     <use xlink:href="#mdbd28e0aa9" x="169.739388" y="126.222694" style="fill: #1f77b4; stroke: #1f77b4"/>
     <use xlink:href="#mdbd28e0aa9" x="164.945622" y="125.509332" style="fill: #1f77b4; stroke: #1f77b4"/>
     <use xlink:href="#mdbd28e0aa9" x="250.974283" y="124.801447" style="fill: #1f77b4; stroke: #1f77b4"/>
     <use xlink:href="#mdbd28e0aa9" x="290.101776" y="124.874739" style="fill: #1f77b4; stroke: #1f77b4"/>
     <use xlink:href="#mdbd28e0aa9" x="199.927156" y="125.63151" style="fill: #1f77b4; stroke: #1f77b4"/>
     <use xlink:href="#mdbd28e0aa9" x="146.677488" y="125.81457" style="fill: #1f77b4; stroke: #1f77b4"/>
     <use xlink:href="#mdbd28e0aa9" x="143.568018" y="125.591739" style="fill: #1f77b4; stroke: #1f77b4"/>
     <use xlink:href="#mdbd28e0aa9" x="167.666408" y="126.076812" style="fill: #1f77b4; stroke: #1f77b4"/>
     <use xlink:href="#mdbd28e0aa9" x="216.770117" y="126.512837" style="fill: #1f77b4; stroke: #1f77b4"/>
     <use xlink:href="#mdbd28e0aa9" x="188.655329" y="124.294057" style="fill: #1f77b4; stroke: #1f77b4"/>
     <use xlink:href="#mdbd28e0aa9" x="196.947248" y="125.429898" style="fill: #1f77b4; stroke: #1f77b4"/>
     <use xlink:href="#mdbd28e0aa9" x="204.850483" y="124.34233" style="fill: #1f77b4; stroke: #1f77b4"/>
     <use xlink:href="#mdbd28e0aa9" x="170.257633" y="125.545627" style="fill: #1f77b4; stroke: #1f77b4"/>
     <use xlink:href="#mdbd28e0aa9" x="74.771002" y="122.221105" style="fill: #1f77b4; stroke: #1f77b4"/>
     <use xlink:href="#mdbd28e0aa9" x="76.843982" y="125.306045" style="fill: #1f77b4; stroke: #1f77b4"/>
     <use xlink:href="#mdbd28e0aa9" x="158.726683" y="125.503641" style="fill: #1f77b4; stroke: #1f77b4"/>
     <use xlink:href="#mdbd28e0aa9" x="214.826698" y="125.503641" style="fill: #1f77b4; stroke: #1f77b4"/>
     <use xlink:href="#mdbd28e0aa9" x="155.22853" y="125.503641" style="fill: #1f77b4; stroke: #1f77b4"/>
     <use xlink:href="#mdbd28e0aa9" x="158.856244" y="125.503641" style="fill: #1f77b4; stroke: #1f77b4"/>
     <use xlink:href="#mdbd28e0aa9" x="133.332681" y="125.503641" style="fill: #1f77b4; stroke: #1f77b4"/>
     <use xlink:href="#mdbd28e0aa9" x="176.21745" y="125.503641" style="fill: #1f77b4; stroke: #1f77b4"/>
     <use xlink:href="#mdbd28e0aa9" x="160.670102" y="125.503641" style="fill: #1f77b4; stroke: #1f77b4"/>
     <use xlink:href="#mdbd28e0aa9" x="87.727126" y="125.503641" style="fill: #1f77b4; stroke: #1f77b4"/>
     <use xlink:href="#mdbd28e0aa9" x="202.259258" y="125.503641" style="fill: #1f77b4; stroke: #1f77b4"/>
     <use xlink:href="#mdbd28e0aa9" x="139.292498" y="125.503641" style="fill: #1f77b4; stroke: #1f77b4"/>
     <use xlink:href="#mdbd28e0aa9" x="142.790651" y="125.503641" style="fill: #1f77b4; stroke: #1f77b4"/>
     <use xlink:href="#mdbd28e0aa9" x="168.832459" y="125.503641" style="fill: #1f77b4; stroke: #1f77b4"/>
     <use xlink:href="#mdbd28e0aa9" x="149.139152" y="125.503641" style="fill: #1f77b4; stroke: #1f77b4"/>
     <use xlink:href="#mdbd28e0aa9" x="169.221143" y="125.503641" style="fill: #1f77b4; stroke: #1f77b4"/>
     <use xlink:href="#mdbd28e0aa9" x="172.848858" y="125.503641" style="fill: #1f77b4; stroke: #1f77b4"/>
     <use xlink:href="#mdbd28e0aa9" x="268.983295" y="125.503641" style="fill: #1f77b4; stroke: #1f77b4"/>
     <use xlink:href="#mdbd28e0aa9" x="151.730376" y="125.503641" style="fill: #1f77b4; stroke: #1f77b4"/>
     <use xlink:href="#mdbd28e0aa9" x="149.786958" y="125.503641" style="fill: #1f77b4; stroke: #1f77b4"/>
     <use xlink:href="#mdbd28e0aa9" x="178.419991" y="125.503641" style="fill: #1f77b4; stroke: #1f77b4"/>
     <use xlink:href="#mdbd28e0aa9" x="221.434321" y="125.503641" style="fill: #1f77b4; stroke: #1f77b4"/>
     <use xlink:href="#mdbd28e0aa9" x="236.722547" y="125.503641" style="fill: #1f77b4; stroke: #1f77b4"/>
     <use xlink:href="#mdbd28e0aa9" x="202.518381" y="176.026887" style="fill: #1f77b4; stroke: #1f77b4"/>
     <use xlink:href="#mdbd28e0aa9" x="158.467561" y="127.590876" style="fill: #1f77b4; stroke: #1f77b4"/>
     <use xlink:href="#mdbd28e0aa9" x="139.940304" y="113.275991" style="fill: #1f77b4; stroke: #1f77b4"/>
     <use xlink:href="#mdbd28e0aa9" x="157.690193" y="110.524351" style="fill: #1f77b4; stroke: #1f77b4"/>
     <use xlink:href="#mdbd28e0aa9" x="275.850041" y="184.63427" style="fill: #1f77b4; stroke: #1f77b4"/>
     <use xlink:href="#mdbd28e0aa9" x="143.438457" y="128.061016" style="fill: #1f77b4; stroke: #1f77b4"/>
     <use xlink:href="#mdbd28e0aa9" x="369.911498" y="215.442041" style="fill: #1f77b4; stroke: #1f77b4"/>
     <use xlink:href="#mdbd28e0aa9" x="175.440083" y="131.136536" style="fill: #1f77b4; stroke: #1f77b4"/>
     <use xlink:href="#mdbd28e0aa9" x="167.277725" y="140.96494" style="fill: #1f77b4; stroke: #1f77b4"/>
     <use xlink:href="#mdbd28e0aa9" x="165.204745" y="130.035531" style="fill: #1f77b4; stroke: #1f77b4"/>
     <use xlink:href="#mdbd28e0aa9" x="162.095275" y="136.270633" style="fill: #1f77b4; stroke: #1f77b4"/>
     <use xlink:href="#mdbd28e0aa9" x="170.128072" y="106.92433" style="fill: #1f77b4; stroke: #1f77b4"/>
     <use xlink:href="#mdbd28e0aa9" x="160.799663" y="106.4724" style="fill: #1f77b4; stroke: #1f77b4"/>
     <use xlink:href="#mdbd28e0aa9" x="205.109606" y="172.762526" style="fill: #1f77b4; stroke: #1f77b4"/>
     <use xlink:href="#mdbd28e0aa9" x="185.416298" y="97.52462" style="fill: #1f77b4; stroke: #1f77b4"/>
     <use xlink:href="#mdbd28e0aa9" x="237.240792" y="179.450405" style="fill: #1f77b4; stroke: #1f77b4"/>
     <use xlink:href="#mdbd28e0aa9" x="178.549552" y="168.889798" style="fill: #1f77b4; stroke: #1f77b4"/>
     <use xlink:href="#mdbd28e0aa9" x="130.482334" y="134.343563" style="fill: #1f77b4; stroke: #1f77b4"/>
     <use xlink:href="#mdbd28e0aa9" x="167.536847" y="74.683028" style="fill: #1f77b4; stroke: #1f77b4"/>
     <use xlink:href="#mdbd28e0aa9" x="142.790651" y="168.963018" style="fill: #1f77b4; stroke: #1f77b4"/>
     <use xlink:href="#mdbd28e0aa9" x="144.215825" y="90.760999" style="fill: #1f77b4; stroke: #1f77b4"/>
     <use xlink:href="#mdbd28e0aa9" x="136.183028" y="117.370054" style="fill: #1f77b4; stroke: #1f77b4"/>
     <use xlink:href="#mdbd28e0aa9" x="158.467561" y="107.399082" style="fill: #1f77b4; stroke: #1f77b4"/>
     <use xlink:href="#mdbd28e0aa9" x="143.438457" y="136.364027" style="fill: #1f77b4; stroke: #1f77b4"/>
     <use xlink:href="#mdbd28e0aa9" x="136.830834" y="127.6907" style="fill: #1f77b4; stroke: #1f77b4"/>
     <use xlink:href="#mdbd28e0aa9" x="133.591803" y="123.724272" style="fill: #1f77b4; stroke: #1f77b4"/>
     <use xlink:href="#mdbd28e0aa9" x="136.053467" y="131.388258" style="fill: #1f77b4; stroke: #1f77b4"/>
     <use xlink:href="#mdbd28e0aa9" x="141.365477" y="112.971384" style="fill: #1f77b4; stroke: #1f77b4"/>
     <use xlink:href="#mdbd28e0aa9" x="169.609827" y="120.10278" style="fill: #1f77b4; stroke: #1f77b4"/>
     <use xlink:href="#mdbd28e0aa9" x="148.880029" y="126.906767" style="fill: #1f77b4; stroke: #1f77b4"/>
     <use xlink:href="#mdbd28e0aa9" x="198.24286" y="139.210123" style="fill: #1f77b4; stroke: #1f77b4"/>
     <use xlink:href="#mdbd28e0aa9" x="147.195733" y="123.241631" style="fill: #1f77b4; stroke: #1f77b4"/>
     <use xlink:href="#mdbd28e0aa9" x="159.50405" y="125.462536" style="fill: #1f77b4; stroke: #1f77b4"/>
     <use xlink:href="#mdbd28e0aa9" x="146.159243" y="109.122324" style="fill: #1f77b4; stroke: #1f77b4"/>
     <use xlink:href="#mdbd28e0aa9" x="98.61027" y="127.713018" style="fill: #1f77b4; stroke: #1f77b4"/>
     <use xlink:href="#mdbd28e0aa9" x="168.443776" y="141.112966" style="fill: #1f77b4; stroke: #1f77b4"/>
     <use xlink:href="#mdbd28e0aa9" x="137.867324" y="159.776484" style="fill: #1f77b4; stroke: #1f77b4"/>
     <use xlink:href="#mdbd28e0aa9" x="140.58811" y="167.379516" style="fill: #1f77b4; stroke: #1f77b4"/>
     <use xlink:href="#mdbd28e0aa9" x="128.668476" y="162.094764" style="fill: #1f77b4; stroke: #1f77b4"/>
     <use xlink:href="#mdbd28e0aa9" x="143.438457" y="126.369602" style="fill: #1f77b4; stroke: #1f77b4"/>
     <use xlink:href="#mdbd28e0aa9" x="197.854176" y="112.898362" style="fill: #1f77b4; stroke: #1f77b4"/>
     <use xlink:href="#mdbd28e0aa9" x="151.989499" y="113.130415" style="fill: #1f77b4; stroke: #1f77b4"/>
     <use xlink:href="#mdbd28e0aa9" x="133.850926" y="133.25079" style="fill: #1f77b4; stroke: #1f77b4"/>
     <use xlink:href="#mdbd28e0aa9" x="157.042387" y="130.447455" style="fill: #1f77b4; stroke: #1f77b4"/>
     <use xlink:href="#mdbd28e0aa9" x="153.285111" y="140.082047" style="fill: #1f77b4; stroke: #1f77b4"/>
     <use xlink:href="#mdbd28e0aa9" x="161.447469" y="134.298244" style="fill: #1f77b4; stroke: #1f77b4"/>
     <use xlink:href="#mdbd28e0aa9" x="172.460174" y="123.985127" style="fill: #1f77b4; stroke: #1f77b4"/>
     <use xlink:href="#mdbd28e0aa9" x="159.50405" y="141.940706" style="fill: #1f77b4; stroke: #1f77b4"/>
     <use xlink:href="#mdbd28e0aa9" x="209.126004" y="121.606092" style="fill: #1f77b4; stroke: #1f77b4"/>
     <use xlink:href="#mdbd28e0aa9" x="141.6246" y="129.543847" style="fill: #1f77b4; stroke: #1f77b4"/>
     <use xlink:href="#mdbd28e0aa9" x="137.089957" y="136.671588" style="fill: #1f77b4; stroke: #1f77b4"/>
     <use xlink:href="#mdbd28e0aa9" x="136.312589" y="136.603105" style="fill: #1f77b4; stroke: #1f77b4"/>
     <use xlink:href="#mdbd28e0aa9" x="140.847232" y="128.621363" style="fill: #1f77b4; stroke: #1f77b4"/>
     <use xlink:href="#mdbd28e0aa9" x="139.940304" y="137.168188" style="fill: #1f77b4; stroke: #1f77b4"/>
     <use xlink:href="#mdbd28e0aa9" x="136.312589" y="134.426456" style="fill: #1f77b4; stroke: #1f77b4"/>
     <use xlink:href="#mdbd28e0aa9" x="154.451162" y="148.550086" style="fill: #1f77b4; stroke: #1f77b4"/>
     <use xlink:href="#mdbd28e0aa9" x="218.19529" y="109.198894" style="fill: #1f77b4; stroke: #1f77b4"/>
     <use xlink:href="#mdbd28e0aa9" x="165.852551" y="140.07812" style="fill: #1f77b4; stroke: #1f77b4"/>
     <use xlink:href="#mdbd28e0aa9" x="275.461357" y="169.37669" style="fill: #1f77b4; stroke: #1f77b4"/>
     <use xlink:href="#mdbd28e0aa9" x="151.471254" y="124.547509" style="fill: #1f77b4; stroke: #1f77b4"/>
     <use xlink:href="#mdbd28e0aa9" x="138.903814" y="128.488576" style="fill: #1f77b4; stroke: #1f77b4"/>
     <use xlink:href="#mdbd28e0aa9" x="139.292498" y="130.674447" style="fill: #1f77b4; stroke: #1f77b4"/>
     <use xlink:href="#mdbd28e0aa9" x="144.474947" y="167.636372" style="fill: #1f77b4; stroke: #1f77b4"/>
    </g>
   </g>
   <g id="matplotlib.axis_1">
    <g id="xtick_1">
     <g id="line2d_1">
      <defs>
       <path id="me918631334" d="M 0 0 
L 0 3.5 
" style="stroke: #000000; stroke-width: 0.8"/>
      </defs>
      <g>
       <use xlink:href="#me918631334" x="59.87146" y="288.430125" style="stroke: #000000; stroke-width: 0.8"/>
      </g>
     </g>
     <g id="text_1">
      <!-- 1.510 -->
      <g transform="translate(45.557397 303.028562)scale(0.1 -0.1)">
       <defs>
        <path id="DejaVuSans-31" d="M 794 531 
L 1825 531 
L 1825 4091 
L 703 3866 
L 703 4441 
L 1819 4666 
L 2450 4666 
L 2450 531 
L 3481 531 
L 3481 0 
L 794 0 
L 794 531 
z
" transform="scale(0.015625)"/>
        <path id="DejaVuSans-2e" d="M 684 794 
L 1344 794 
L 1344 0 
L 684 0 
L 684 794 
z
" transform="scale(0.015625)"/>
        <path id="DejaVuSans-35" d="M 691 4666 
L 3169 4666 
L 3169 4134 
L 1269 4134 
L 1269 2991 
Q 1406 3038 1543 3061 
Q 1681 3084 1819 3084 
Q 2600 3084 3056 2656 
Q 3513 2228 3513 1497 
Q 3513 744 3044 326 
Q 2575 -91 1722 -91 
Q 1428 -91 1123 -41 
Q 819 9 494 109 
L 494 744 
Q 775 591 1075 516 
Q 1375 441 1709 441 
Q 2250 441 2565 725 
Q 2881 1009 2881 1497 
Q 2881 1984 2565 2268 
Q 2250 2553 1709 2553 
Q 1456 2553 1204 2497 
Q 953 2441 691 2322 
L 691 4666 
z
" transform="scale(0.015625)"/>
        <path id="DejaVuSans-30" d="M 2034 4250 
Q 1547 4250 1301 3770 
Q 1056 3291 1056 2328 
Q 1056 1369 1301 889 
Q 1547 409 2034 409 
Q 2525 409 2770 889 
Q 3016 1369 3016 2328 
Q 3016 3291 2770 3770 
Q 2525 4250 2034 4250 
z
M 2034 4750 
Q 2819 4750 3233 4129 
Q 3647 3509 3647 2328 
Q 3647 1150 3233 529 
Q 2819 -91 2034 -91 
Q 1250 -91 836 529 
Q 422 1150 422 2328 
Q 422 3509 836 4129 
Q 1250 4750 2034 4750 
z
" transform="scale(0.015625)"/>
       </defs>
       <use xlink:href="#DejaVuSans-31"/>
       <use xlink:href="#DejaVuSans-2e" x="63.623047"/>
       <use xlink:href="#DejaVuSans-35" x="95.410156"/>
       <use xlink:href="#DejaVuSans-31" x="159.033203"/>
       <use xlink:href="#DejaVuSans-30" x="222.65625"/>
      </g>
     </g>
    </g>
    <g id="xtick_2">
     <g id="line2d_2">
      <g>
       <use xlink:href="#me918631334" x="124.652078" y="288.430125" style="stroke: #000000; stroke-width: 0.8"/>
      </g>
     </g>
     <g id="text_2">
      <!-- 1.515 -->
      <g transform="translate(110.338015 303.028562)scale(0.1 -0.1)">
       <use xlink:href="#DejaVuSans-31"/>
       <use xlink:href="#DejaVuSans-2e" x="63.623047"/>
       <use xlink:href="#DejaVuSans-35" x="95.410156"/>
       <use xlink:href="#DejaVuSans-31" x="159.033203"/>
       <use xlink:href="#DejaVuSans-35" x="222.65625"/>
      </g>
     </g>
    </g>
    <g id="xtick_3">
     <g id="line2d_3">
      <g>
       <use xlink:href="#me918631334" x="189.432696" y="288.430125" style="stroke: #000000; stroke-width: 0.8"/>
      </g>
     </g>
     <g id="text_3">
      <!-- 1.520 -->
      <g transform="translate(175.118634 303.028562)scale(0.1 -0.1)">
       <defs>
        <path id="DejaVuSans-32" d="M 1228 531 
L 3431 531 
L 3431 0 
L 469 0 
L 469 531 
Q 828 903 1448 1529 
Q 2069 2156 2228 2338 
Q 2531 2678 2651 2914 
Q 2772 3150 2772 3378 
Q 2772 3750 2511 3984 
Q 2250 4219 1831 4219 
Q 1534 4219 1204 4116 
Q 875 4013 500 3803 
L 500 4441 
Q 881 4594 1212 4672 
Q 1544 4750 1819 4750 
Q 2544 4750 2975 4387 
Q 3406 4025 3406 3419 
Q 3406 3131 3298 2873 
Q 3191 2616 2906 2266 
Q 2828 2175 2409 1742 
Q 1991 1309 1228 531 
z
" transform="scale(0.015625)"/>
       </defs>
       <use xlink:href="#DejaVuSans-31"/>
       <use xlink:href="#DejaVuSans-2e" x="63.623047"/>
       <use xlink:href="#DejaVuSans-35" x="95.410156"/>
       <use xlink:href="#DejaVuSans-32" x="159.033203"/>
       <use xlink:href="#DejaVuSans-30" x="222.65625"/>
      </g>
     </g>
    </g>
    <g id="xtick_4">
     <g id="line2d_4">
      <g>
       <use xlink:href="#me918631334" x="254.213314" y="288.430125" style="stroke: #000000; stroke-width: 0.8"/>
      </g>
     </g>
     <g id="text_4">
      <!-- 1.525 -->
      <g transform="translate(239.899252 303.028562)scale(0.1 -0.1)">
       <use xlink:href="#DejaVuSans-31"/>
       <use xlink:href="#DejaVuSans-2e" x="63.623047"/>
       <use xlink:href="#DejaVuSans-35" x="95.410156"/>
       <use xlink:href="#DejaVuSans-32" x="159.033203"/>
       <use xlink:href="#DejaVuSans-35" x="222.65625"/>
      </g>
     </g>
    </g>
    <g id="xtick_5">
     <g id="line2d_5">
      <g>
       <use xlink:href="#me918631334" x="318.993932" y="288.430125" style="stroke: #000000; stroke-width: 0.8"/>
      </g>
     </g>
     <g id="text_5">
      <!-- 1.530 -->
      <g transform="translate(304.67987 303.028562)scale(0.1 -0.1)">
       <defs>
        <path id="DejaVuSans-33" d="M 2597 2516 
Q 3050 2419 3304 2112 
Q 3559 1806 3559 1356 
Q 3559 666 3084 287 
Q 2609 -91 1734 -91 
Q 1441 -91 1130 -33 
Q 819 25 488 141 
L 488 750 
Q 750 597 1062 519 
Q 1375 441 1716 441 
Q 2309 441 2620 675 
Q 2931 909 2931 1356 
Q 2931 1769 2642 2001 
Q 2353 2234 1838 2234 
L 1294 2234 
L 1294 2753 
L 1863 2753 
Q 2328 2753 2575 2939 
Q 2822 3125 2822 3475 
Q 2822 3834 2567 4026 
Q 2313 4219 1838 4219 
Q 1578 4219 1281 4162 
Q 984 4106 628 3988 
L 628 4550 
Q 988 4650 1302 4700 
Q 1616 4750 1894 4750 
Q 2613 4750 3031 4423 
Q 3450 4097 3450 3541 
Q 3450 3153 3228 2886 
Q 3006 2619 2597 2516 
z
" transform="scale(0.015625)"/>
       </defs>
       <use xlink:href="#DejaVuSans-31"/>
       <use xlink:href="#DejaVuSans-2e" x="63.623047"/>
       <use xlink:href="#DejaVuSans-35" x="95.410156"/>
       <use xlink:href="#DejaVuSans-33" x="159.033203"/>
       <use xlink:href="#DejaVuSans-30" x="222.65625"/>
      </g>
     </g>
    </g>
    <g id="xtick_6">
     <g id="line2d_6">
      <g>
       <use xlink:href="#me918631334" x="383.77455" y="288.430125" style="stroke: #000000; stroke-width: 0.8"/>
      </g>
     </g>
     <g id="text_6">
      <!-- 1.535 -->
      <g transform="translate(369.460488 303.028562)scale(0.1 -0.1)">
       <use xlink:href="#DejaVuSans-31"/>
       <use xlink:href="#DejaVuSans-2e" x="63.623047"/>
       <use xlink:href="#DejaVuSans-35" x="95.410156"/>
       <use xlink:href="#DejaVuSans-33" x="159.033203"/>
       <use xlink:href="#DejaVuSans-35" x="222.65625"/>
      </g>
     </g>
    </g>
    <g id="text_7">
     <!-- True values -->
     <g transform="translate(193.8725 316.706687)scale(0.1 -0.1)">
      <defs>
       <path id="DejaVuSans-54" d="M -19 4666 
L 3928 4666 
L 3928 4134 
L 2272 4134 
L 2272 0 
L 1638 0 
L 1638 4134 
L -19 4134 
L -19 4666 
z
" transform="scale(0.015625)"/>
       <path id="DejaVuSans-72" d="M 2631 2963 
Q 2534 3019 2420 3045 
Q 2306 3072 2169 3072 
Q 1681 3072 1420 2755 
Q 1159 2438 1159 1844 
L 1159 0 
L 581 0 
L 581 3500 
L 1159 3500 
L 1159 2956 
Q 1341 3275 1631 3429 
Q 1922 3584 2338 3584 
Q 2397 3584 2469 3576 
Q 2541 3569 2628 3553 
L 2631 2963 
z
" transform="scale(0.015625)"/>
       <path id="DejaVuSans-75" d="M 544 1381 
L 544 3500 
L 1119 3500 
L 1119 1403 
Q 1119 906 1312 657 
Q 1506 409 1894 409 
Q 2359 409 2629 706 
Q 2900 1003 2900 1516 
L 2900 3500 
L 3475 3500 
L 3475 0 
L 2900 0 
L 2900 538 
Q 2691 219 2414 64 
Q 2138 -91 1772 -91 
Q 1169 -91 856 284 
Q 544 659 544 1381 
z
M 1991 3584 
L 1991 3584 
z
" transform="scale(0.015625)"/>
       <path id="DejaVuSans-65" d="M 3597 1894 
L 3597 1613 
L 953 1613 
Q 991 1019 1311 708 
Q 1631 397 2203 397 
Q 2534 397 2845 478 
Q 3156 559 3463 722 
L 3463 178 
Q 3153 47 2828 -22 
Q 2503 -91 2169 -91 
Q 1331 -91 842 396 
Q 353 884 353 1716 
Q 353 2575 817 3079 
Q 1281 3584 2069 3584 
Q 2775 3584 3186 3129 
Q 3597 2675 3597 1894 
z
M 3022 2063 
Q 3016 2534 2758 2815 
Q 2500 3097 2075 3097 
Q 1594 3097 1305 2825 
Q 1016 2553 972 2059 
L 3022 2063 
z
" transform="scale(0.015625)"/>
       <path id="DejaVuSans-20" transform="scale(0.015625)"/>
       <path id="DejaVuSans-76" d="M 191 3500 
L 800 3500 
L 1894 563 
L 2988 3500 
L 3597 3500 
L 2284 0 
L 1503 0 
L 191 3500 
z
" transform="scale(0.015625)"/>
       <path id="DejaVuSans-61" d="M 2194 1759 
Q 1497 1759 1228 1600 
Q 959 1441 959 1056 
Q 959 750 1161 570 
Q 1363 391 1709 391 
Q 2188 391 2477 730 
Q 2766 1069 2766 1631 
L 2766 1759 
L 2194 1759 
z
M 3341 1997 
L 3341 0 
L 2766 0 
L 2766 531 
Q 2569 213 2275 61 
Q 1981 -91 1556 -91 
Q 1019 -91 701 211 
Q 384 513 384 1019 
Q 384 1609 779 1909 
Q 1175 2209 1959 2209 
L 2766 2209 
L 2766 2266 
Q 2766 2663 2505 2880 
Q 2244 3097 1772 3097 
Q 1472 3097 1187 3025 
Q 903 2953 641 2809 
L 641 3341 
Q 956 3463 1253 3523 
Q 1550 3584 1831 3584 
Q 2591 3584 2966 3190 
Q 3341 2797 3341 1997 
z
" transform="scale(0.015625)"/>
       <path id="DejaVuSans-6c" d="M 603 4863 
L 1178 4863 
L 1178 0 
L 603 0 
L 603 4863 
z
" transform="scale(0.015625)"/>
       <path id="DejaVuSans-73" d="M 2834 3397 
L 2834 2853 
Q 2591 2978 2328 3040 
Q 2066 3103 1784 3103 
Q 1356 3103 1142 2972 
Q 928 2841 928 2578 
Q 928 2378 1081 2264 
Q 1234 2150 1697 2047 
L 1894 2003 
Q 2506 1872 2764 1633 
Q 3022 1394 3022 966 
Q 3022 478 2636 193 
Q 2250 -91 1575 -91 
Q 1294 -91 989 -36 
Q 684 19 347 128 
L 347 722 
Q 666 556 975 473 
Q 1284 391 1588 391 
Q 1994 391 2212 530 
Q 2431 669 2431 922 
Q 2431 1156 2273 1281 
Q 2116 1406 1581 1522 
L 1381 1569 
Q 847 1681 609 1914 
Q 372 2147 372 2553 
Q 372 3047 722 3315 
Q 1072 3584 1716 3584 
Q 2034 3584 2315 3537 
Q 2597 3491 2834 3397 
z
" transform="scale(0.015625)"/>
      </defs>
      <use xlink:href="#DejaVuSans-54"/>
      <use xlink:href="#DejaVuSans-72" x="46.333984"/>
      <use xlink:href="#DejaVuSans-75" x="87.447266"/>
      <use xlink:href="#DejaVuSans-65" x="150.826172"/>
      <use xlink:href="#DejaVuSans-20" x="212.349609"/>
      <use xlink:href="#DejaVuSans-76" x="244.136719"/>
      <use xlink:href="#DejaVuSans-61" x="303.316406"/>
      <use xlink:href="#DejaVuSans-6c" x="364.595703"/>
      <use xlink:href="#DejaVuSans-75" x="392.378906"/>
      <use xlink:href="#DejaVuSans-65" x="455.757812"/>
      <use xlink:href="#DejaVuSans-73" x="517.28125"/>
     </g>
    </g>
   </g>
   <g id="matplotlib.axis_2">
    <g id="ytick_1">
     <g id="line2d_7">
      <defs>
       <path id="m35e9d2c1a6" d="M 0 0 
L -3.5 0 
" style="stroke: #000000; stroke-width: 0.8"/>
      </defs>
      <g>
       <use xlink:href="#m35e9d2c1a6" x="43.78125" y="264.269968" style="stroke: #000000; stroke-width: 0.8"/>
      </g>
     </g>
     <g id="text_8">
      <!-- 0.6 -->
      <g transform="translate(20.878125 268.069186)scale(0.1 -0.1)">
       <defs>
        <path id="DejaVuSans-36" d="M 2113 2584 
Q 1688 2584 1439 2293 
Q 1191 2003 1191 1497 
Q 1191 994 1439 701 
Q 1688 409 2113 409 
Q 2538 409 2786 701 
Q 3034 994 3034 1497 
Q 3034 2003 2786 2293 
Q 2538 2584 2113 2584 
z
M 3366 4563 
L 3366 3988 
Q 3128 4100 2886 4159 
Q 2644 4219 2406 4219 
Q 1781 4219 1451 3797 
Q 1122 3375 1075 2522 
Q 1259 2794 1537 2939 
Q 1816 3084 2150 3084 
Q 2853 3084 3261 2657 
Q 3669 2231 3669 1497 
Q 3669 778 3244 343 
Q 2819 -91 2113 -91 
Q 1303 -91 875 529 
Q 447 1150 447 2328 
Q 447 3434 972 4092 
Q 1497 4750 2381 4750 
Q 2619 4750 2861 4703 
Q 3103 4656 3366 4563 
z
" transform="scale(0.015625)"/>
       </defs>
       <use xlink:href="#DejaVuSans-30"/>
       <use xlink:href="#DejaVuSans-2e" x="63.623047"/>
       <use xlink:href="#DejaVuSans-36" x="95.410156"/>
      </g>
     </g>
    </g>
    <g id="ytick_2">
     <g id="line2d_8">
      <g>
       <use xlink:href="#m35e9d2c1a6" x="43.78125" y="234.050253" style="stroke: #000000; stroke-width: 0.8"/>
      </g>
     </g>
     <g id="text_9">
      <!-- 0.8 -->
      <g transform="translate(20.878125 237.849472)scale(0.1 -0.1)">
       <defs>
        <path id="DejaVuSans-38" d="M 2034 2216 
Q 1584 2216 1326 1975 
Q 1069 1734 1069 1313 
Q 1069 891 1326 650 
Q 1584 409 2034 409 
Q 2484 409 2743 651 
Q 3003 894 3003 1313 
Q 3003 1734 2745 1975 
Q 2488 2216 2034 2216 
z
M 1403 2484 
Q 997 2584 770 2862 
Q 544 3141 544 3541 
Q 544 4100 942 4425 
Q 1341 4750 2034 4750 
Q 2731 4750 3128 4425 
Q 3525 4100 3525 3541 
Q 3525 3141 3298 2862 
Q 3072 2584 2669 2484 
Q 3125 2378 3379 2068 
Q 3634 1759 3634 1313 
Q 3634 634 3220 271 
Q 2806 -91 2034 -91 
Q 1263 -91 848 271 
Q 434 634 434 1313 
Q 434 1759 690 2068 
Q 947 2378 1403 2484 
z
M 1172 3481 
Q 1172 3119 1398 2916 
Q 1625 2713 2034 2713 
Q 2441 2713 2670 2916 
Q 2900 3119 2900 3481 
Q 2900 3844 2670 4047 
Q 2441 4250 2034 4250 
Q 1625 4250 1398 4047 
Q 1172 3844 1172 3481 
z
" transform="scale(0.015625)"/>
       </defs>
       <use xlink:href="#DejaVuSans-30"/>
       <use xlink:href="#DejaVuSans-2e" x="63.623047"/>
       <use xlink:href="#DejaVuSans-38" x="95.410156"/>
      </g>
     </g>
    </g>
    <g id="ytick_3">
     <g id="line2d_9">
      <g>
       <use xlink:href="#m35e9d2c1a6" x="43.78125" y="203.830539" style="stroke: #000000; stroke-width: 0.8"/>
      </g>
     </g>
     <g id="text_10">
      <!-- 1.0 -->
      <g transform="translate(20.878125 207.629758)scale(0.1 -0.1)">
       <use xlink:href="#DejaVuSans-31"/>
       <use xlink:href="#DejaVuSans-2e" x="63.623047"/>
       <use xlink:href="#DejaVuSans-30" x="95.410156"/>
      </g>
     </g>
    </g>
    <g id="ytick_4">
     <g id="line2d_10">
      <g>
       <use xlink:href="#m35e9d2c1a6" x="43.78125" y="173.610825" style="stroke: #000000; stroke-width: 0.8"/>
      </g>
     </g>
     <g id="text_11">
      <!-- 1.2 -->
      <g transform="translate(20.878125 177.410044)scale(0.1 -0.1)">
       <use xlink:href="#DejaVuSans-31"/>
       <use xlink:href="#DejaVuSans-2e" x="63.623047"/>
       <use xlink:href="#DejaVuSans-32" x="95.410156"/>
      </g>
     </g>
    </g>
    <g id="ytick_5">
     <g id="line2d_11">
      <g>
       <use xlink:href="#m35e9d2c1a6" x="43.78125" y="143.391111" style="stroke: #000000; stroke-width: 0.8"/>
      </g>
     </g>
     <g id="text_12">
      <!-- 1.4 -->
      <g transform="translate(20.878125 147.190329)scale(0.1 -0.1)">
       <defs>
        <path id="DejaVuSans-34" d="M 2419 4116 
L 825 1625 
L 2419 1625 
L 2419 4116 
z
M 2253 4666 
L 3047 4666 
L 3047 1625 
L 3713 1625 
L 3713 1100 
L 3047 1100 
L 3047 0 
L 2419 0 
L 2419 1100 
L 313 1100 
L 313 1709 
L 2253 4666 
z
" transform="scale(0.015625)"/>
       </defs>
       <use xlink:href="#DejaVuSans-31"/>
       <use xlink:href="#DejaVuSans-2e" x="63.623047"/>
       <use xlink:href="#DejaVuSans-34" x="95.410156"/>
      </g>
     </g>
    </g>
    <g id="ytick_6">
     <g id="line2d_12">
      <g>
       <use xlink:href="#m35e9d2c1a6" x="43.78125" y="113.171396" style="stroke: #000000; stroke-width: 0.8"/>
      </g>
     </g>
     <g id="text_13">
      <!-- 1.6 -->
      <g transform="translate(20.878125 116.970615)scale(0.1 -0.1)">
       <use xlink:href="#DejaVuSans-31"/>
       <use xlink:href="#DejaVuSans-2e" x="63.623047"/>
       <use xlink:href="#DejaVuSans-36" x="95.410156"/>
      </g>
     </g>
    </g>
    <g id="ytick_7">
     <g id="line2d_13">
      <g>
       <use xlink:href="#m35e9d2c1a6" x="43.78125" y="82.951682" style="stroke: #000000; stroke-width: 0.8"/>
      </g>
     </g>
     <g id="text_14">
      <!-- 1.8 -->
      <g transform="translate(20.878125 86.750901)scale(0.1 -0.1)">
       <use xlink:href="#DejaVuSans-31"/>
       <use xlink:href="#DejaVuSans-2e" x="63.623047"/>
       <use xlink:href="#DejaVuSans-38" x="95.410156"/>
      </g>
     </g>
    </g>
    <g id="ytick_8">
     <g id="line2d_14">
      <g>
       <use xlink:href="#m35e9d2c1a6" x="43.78125" y="52.731968" style="stroke: #000000; stroke-width: 0.8"/>
      </g>
     </g>
     <g id="text_15">
      <!-- 2.0 -->
      <g transform="translate(20.878125 56.531187)scale(0.1 -0.1)">
       <use xlink:href="#DejaVuSans-32"/>
       <use xlink:href="#DejaVuSans-2e" x="63.623047"/>
       <use xlink:href="#DejaVuSans-30" x="95.410156"/>
      </g>
     </g>
    </g>
    <g id="ytick_9">
     <g id="line2d_15">
      <g>
       <use xlink:href="#m35e9d2c1a6" x="43.78125" y="22.512254" style="stroke: #000000; stroke-width: 0.8"/>
      </g>
     </g>
     <g id="text_16">
      <!-- 2.2 -->
      <g transform="translate(20.878125 26.311472)scale(0.1 -0.1)">
       <use xlink:href="#DejaVuSans-32"/>
       <use xlink:href="#DejaVuSans-2e" x="63.623047"/>
       <use xlink:href="#DejaVuSans-32" x="95.410156"/>
      </g>
     </g>
    </g>
    <g id="text_17">
     <!-- Predicted values -->
     <g transform="translate(14.798438 196.696)rotate(-90)scale(0.1 -0.1)">
      <defs>
       <path id="DejaVuSans-50" d="M 1259 4147 
L 1259 2394 
L 2053 2394 
Q 2494 2394 2734 2622 
Q 2975 2850 2975 3272 
Q 2975 3691 2734 3919 
Q 2494 4147 2053 4147 
L 1259 4147 
z
M 628 4666 
L 2053 4666 
Q 2838 4666 3239 4311 
Q 3641 3956 3641 3272 
Q 3641 2581 3239 2228 
Q 2838 1875 2053 1875 
L 1259 1875 
L 1259 0 
L 628 0 
L 628 4666 
z
" transform="scale(0.015625)"/>
       <path id="DejaVuSans-64" d="M 2906 2969 
L 2906 4863 
L 3481 4863 
L 3481 0 
L 2906 0 
L 2906 525 
Q 2725 213 2448 61 
Q 2172 -91 1784 -91 
Q 1150 -91 751 415 
Q 353 922 353 1747 
Q 353 2572 751 3078 
Q 1150 3584 1784 3584 
Q 2172 3584 2448 3432 
Q 2725 3281 2906 2969 
z
M 947 1747 
Q 947 1113 1208 752 
Q 1469 391 1925 391 
Q 2381 391 2643 752 
Q 2906 1113 2906 1747 
Q 2906 2381 2643 2742 
Q 2381 3103 1925 3103 
Q 1469 3103 1208 2742 
Q 947 2381 947 1747 
z
" transform="scale(0.015625)"/>
       <path id="DejaVuSans-69" d="M 603 3500 
L 1178 3500 
L 1178 0 
L 603 0 
L 603 3500 
z
M 603 4863 
L 1178 4863 
L 1178 4134 
L 603 4134 
L 603 4863 
z
" transform="scale(0.015625)"/>
       <path id="DejaVuSans-63" d="M 3122 3366 
L 3122 2828 
Q 2878 2963 2633 3030 
Q 2388 3097 2138 3097 
Q 1578 3097 1268 2742 
Q 959 2388 959 1747 
Q 959 1106 1268 751 
Q 1578 397 2138 397 
Q 2388 397 2633 464 
Q 2878 531 3122 666 
L 3122 134 
Q 2881 22 2623 -34 
Q 2366 -91 2075 -91 
Q 1284 -91 818 406 
Q 353 903 353 1747 
Q 353 2603 823 3093 
Q 1294 3584 2113 3584 
Q 2378 3584 2631 3529 
Q 2884 3475 3122 3366 
z
" transform="scale(0.015625)"/>
       <path id="DejaVuSans-74" d="M 1172 4494 
L 1172 3500 
L 2356 3500 
L 2356 3053 
L 1172 3053 
L 1172 1153 
Q 1172 725 1289 603 
Q 1406 481 1766 481 
L 2356 481 
L 2356 0 
L 1766 0 
Q 1100 0 847 248 
Q 594 497 594 1153 
L 594 3053 
L 172 3053 
L 172 3500 
L 594 3500 
L 594 4494 
L 1172 4494 
z
" transform="scale(0.015625)"/>
      </defs>
      <use xlink:href="#DejaVuSans-50"/>
      <use xlink:href="#DejaVuSans-72" x="58.552734"/>
      <use xlink:href="#DejaVuSans-65" x="97.416016"/>
      <use xlink:href="#DejaVuSans-64" x="158.939453"/>
      <use xlink:href="#DejaVuSans-69" x="222.416016"/>
      <use xlink:href="#DejaVuSans-63" x="250.199219"/>
      <use xlink:href="#DejaVuSans-74" x="305.179688"/>
      <use xlink:href="#DejaVuSans-65" x="344.388672"/>
      <use xlink:href="#DejaVuSans-64" x="405.912109"/>
      <use xlink:href="#DejaVuSans-20" x="469.388672"/>
      <use xlink:href="#DejaVuSans-76" x="501.175781"/>
      <use xlink:href="#DejaVuSans-61" x="560.355469"/>
      <use xlink:href="#DejaVuSans-6c" x="621.634766"/>
      <use xlink:href="#DejaVuSans-75" x="649.417969"/>
      <use xlink:href="#DejaVuSans-65" x="712.796875"/>
      <use xlink:href="#DejaVuSans-73" x="774.320312"/>
     </g>
    </g>
   </g>
   <g id="line2d_16">
    <path d="M 60.013977 126.768606 
L 384.668523 122.982378 
" clip-path="url(#p1c56c3908b)" style="fill: none; stroke: #000000; stroke-width: 1.5; stroke-linecap: square"/>
   </g>
   <g id="patch_3">
    <path d="M 43.78125 288.430125 
L 43.78125 22.318125 
" style="fill: none; stroke: #000000; stroke-width: 0.8; stroke-linejoin: miter; stroke-linecap: square"/>
   </g>
   <g id="patch_4">
    <path d="M 400.90125 288.430125 
L 400.90125 22.318125 
" style="fill: none; stroke: #000000; stroke-width: 0.8; stroke-linejoin: miter; stroke-linecap: square"/>
   </g>
   <g id="patch_5">
    <path d="M 43.78125 288.430125 
L 400.90125 288.430125 
" style="fill: none; stroke: #000000; stroke-width: 0.8; stroke-linejoin: miter; stroke-linecap: square"/>
   </g>
   <g id="patch_6">
    <path d="M 43.78125 22.318125 
L 400.90125 22.318125 
" style="fill: none; stroke: #000000; stroke-width: 0.8; stroke-linejoin: miter; stroke-linecap: square"/>
   </g>
   <g id="text_18">
    <!-- ANN vs. True value -->
    <g transform="translate(165.825 16.318125)scale(0.12 -0.12)">
     <defs>
      <path id="DejaVuSans-41" d="M 2188 4044 
L 1331 1722 
L 3047 1722 
L 2188 4044 
z
M 1831 4666 
L 2547 4666 
L 4325 0 
L 3669 0 
L 3244 1197 
L 1141 1197 
L 716 0 
L 50 0 
L 1831 4666 
z
" transform="scale(0.015625)"/>
      <path id="DejaVuSans-4e" d="M 628 4666 
L 1478 4666 
L 3547 763 
L 3547 4666 
L 4159 4666 
L 4159 0 
L 3309 0 
L 1241 3903 
L 1241 0 
L 628 0 
L 628 4666 
z
" transform="scale(0.015625)"/>
     </defs>
     <use xlink:href="#DejaVuSans-41"/>
     <use xlink:href="#DejaVuSans-4e" x="68.408203"/>
     <use xlink:href="#DejaVuSans-4e" x="143.212891"/>
     <use xlink:href="#DejaVuSans-20" x="218.017578"/>
     <use xlink:href="#DejaVuSans-76" x="249.804688"/>
     <use xlink:href="#DejaVuSans-73" x="308.984375"/>
     <use xlink:href="#DejaVuSans-2e" x="361.083984"/>
     <use xlink:href="#DejaVuSans-20" x="392.871094"/>
     <use xlink:href="#DejaVuSans-54" x="424.658203"/>
     <use xlink:href="#DejaVuSans-72" x="470.992188"/>
     <use xlink:href="#DejaVuSans-75" x="512.105469"/>
     <use xlink:href="#DejaVuSans-65" x="575.484375"/>
     <use xlink:href="#DejaVuSans-20" x="637.007812"/>
     <use xlink:href="#DejaVuSans-76" x="668.794922"/>
     <use xlink:href="#DejaVuSans-61" x="727.974609"/>
     <use xlink:href="#DejaVuSans-6c" x="789.253906"/>
     <use xlink:href="#DejaVuSans-75" x="817.037109"/>
     <use xlink:href="#DejaVuSans-65" x="880.416016"/>
    </g>
   </g>
   <g id="legend_1">
    <g id="patch_7">
     <path d="M 341.684062 59.674375 
L 393.90125 59.674375 
Q 395.90125 59.674375 395.90125 57.674375 
L 395.90125 29.318125 
Q 395.90125 27.318125 393.90125 27.318125 
L 341.684062 27.318125 
Q 339.684062 27.318125 339.684062 29.318125 
L 339.684062 57.674375 
Q 339.684062 59.674375 341.684062 59.674375 
z
" style="fill: #ffffff; opacity: 0.8; stroke: #cccccc; stroke-linejoin: miter"/>
    </g>
    <g id="PathCollection_2">
     <g>
      <use xlink:href="#mdbd28e0aa9" x="353.684062" y="36.291562" style="fill: #1f77b4; stroke: #1f77b4"/>
     </g>
    </g>
    <g id="line2d_17">
     <path d="M 343.684062 50.094687 
L 353.684062 50.094687 
L 363.684062 50.094687 
" style="fill: none; stroke: #000000; stroke-width: 1.5; stroke-linecap: square"/>
    </g>
    <g id="text_19">
     <!-- y=x -->
     <g transform="translate(371.684062 53.594687)scale(0.1 -0.1)">
      <defs>
       <path id="DejaVuSans-79" d="M 2059 -325 
Q 1816 -950 1584 -1140 
Q 1353 -1331 966 -1331 
L 506 -1331 
L 506 -850 
L 844 -850 
Q 1081 -850 1212 -737 
Q 1344 -625 1503 -206 
L 1606 56 
L 191 3500 
L 800 3500 
L 1894 763 
L 2988 3500 
L 3597 3500 
L 2059 -325 
z
" transform="scale(0.015625)"/>
       <path id="DejaVuSans-3d" d="M 678 2906 
L 4684 2906 
L 4684 2381 
L 678 2381 
L 678 2906 
z
M 678 1631 
L 4684 1631 
L 4684 1100 
L 678 1100 
L 678 1631 
z
" transform="scale(0.015625)"/>
       <path id="DejaVuSans-78" d="M 3513 3500 
L 2247 1797 
L 3578 0 
L 2900 0 
L 1881 1375 
L 863 0 
L 184 0 
L 1544 1831 
L 300 3500 
L 978 3500 
L 1906 2253 
L 2834 3500 
L 3513 3500 
z
" transform="scale(0.015625)"/>
      </defs>
      <use xlink:href="#DejaVuSans-79"/>
      <use xlink:href="#DejaVuSans-3d" x="59.179688"/>
      <use xlink:href="#DejaVuSans-78" x="142.96875"/>
     </g>
    </g>
   </g>
  </g>
 </g>
 <defs>
  <clipPath id="p1c56c3908b">
   <rect x="43.78125" y="22.318125" width="357.12" height="266.112"/>
  </clipPath>
 </defs>
</svg>
