<?xml version="1.0" encoding="utf-8" standalone="no"?>
<!DOCTYPE svg PUBLIC "-//W3C//DTD SVG 1.1//EN"
  "http://www.w3.org/Graphics/SVG/1.1/DTD/svg11.dtd">
<svg xmlns:xlink="http://www.w3.org/1999/xlink" width="414.46375pt" height="325.986375pt" viewBox="0 0 414.46375 325.986375" xmlns="http://www.w3.org/2000/svg" version="1.1">
 <metadata>
  <rdf:RDF xmlns:dc="http://purl.org/dc/elements/1.1/" xmlns:cc="http://creativecommons.org/ns#" xmlns:rdf="http://www.w3.org/1999/02/22-rdf-syntax-ns#">
   <cc:Work>
    <dc:type rdf:resource="http://purl.org/dc/dcmitype/StillImage"/>
    <dc:date>2023-04-14T20:45:16.795497</dc:date>
    <dc:format>image/svg+xml</dc:format>
    <dc:creator>
     <cc:Agent>
      <dc:title>Matplotlib v3.5.2, https://matplotlib.org/</dc:title>
     </cc:Agent>
    </dc:creator>
   </cc:Work>
  </rdf:RDF>
 </metadata>
 <defs>
  <style type="text/css">*{stroke-linejoin: round; stroke-linecap: butt}</style>
 </defs>
 <g id="figure_1">
  <g id="patch_1">
   <path d="M 0 325.986375 
L 414.46375 325.986375 
L 414.46375 0 
L 0 0 
z
" style="fill: #ffffff"/>
  </g>
  <g id="axes_1">
   <g id="patch_2">
    <path d="M 50.14375 288.430125 
L 407.26375 288.430125 
L 407.26375 22.318125 
L 50.14375 22.318125 
z
" style="fill: #ffffff"/>
   </g>
   <g id="PathCollection_1">
    <defs>
     <path id="m1891ac7f62" d="M 0 3 
C 0.795609 3 1.55874 2.683901 2.12132 2.12132 
C 2.683901 1.55874 3 0.795609 3 0 
C 3 -0.795609 2.683901 -1.55874 2.12132 -2.12132 
C 1.55874 -2.683901 0.795609 -3 0 -3 
C -0.795609 -3 -1.55874 -2.683901 -2.12132 -2.12132 
C -2.683901 -1.55874 -3 -0.795609 -3 0 
C -3 0.795609 -2.683901 1.55874 -2.12132 2.12132 
C -1.55874 2.683901 -0.795609 3 0 3 
z
" style="stroke: #1f77b4"/>
    </defs>
    <g clip-path="url(#p82c6327325)">
     <use xlink:href="#m1891ac7f62" x="208.880881" y="236.944367" style="fill: #1f77b4; stroke: #1f77b4"/>
     <use xlink:href="#m1891ac7f62" x="146.302804" y="214.547516" style="fill: #1f77b4; stroke: #1f77b4"/>
     <use xlink:href="#m1891ac7f62" x="162.368397" y="198.5181" style="fill: #1f77b4; stroke: #1f77b4"/>
     <use xlink:href="#m1891ac7f62" x="143.452457" y="211.38324" style="fill: #1f77b4; stroke: #1f77b4"/>
     <use xlink:href="#m1891ac7f62" x="164.182254" y="191.330345" style="fill: #1f77b4; stroke: #1f77b4"/>
     <use xlink:href="#m1891ac7f62" x="185.171175" y="194.620168" style="fill: #1f77b4; stroke: #1f77b4"/>
     <use xlink:href="#m1891ac7f62" x="164.052693" y="203.132065" style="fill: #1f77b4; stroke: #1f77b4"/>
     <use xlink:href="#m1891ac7f62" x="165.089183" y="205.095203" style="fill: #1f77b4; stroke: #1f77b4"/>
     <use xlink:href="#m1891ac7f62" x="142.545528" y="195.036778" style="fill: #1f77b4; stroke: #1f77b4"/>
     <use xlink:href="#m1891ac7f62" x="163.145765" y="202.577553" style="fill: #1f77b4; stroke: #1f77b4"/>
     <use xlink:href="#m1891ac7f62" x="164.830061" y="203.433848" style="fill: #1f77b4; stroke: #1f77b4"/>
     <use xlink:href="#m1891ac7f62" x="221.189198" y="209.866691" style="fill: #1f77b4; stroke: #1f77b4"/>
     <use xlink:href="#m1891ac7f62" x="161.461468" y="217.562809" style="fill: #1f77b4; stroke: #1f77b4"/>
     <use xlink:href="#m1891ac7f62" x="163.534448" y="204.531062" style="fill: #1f77b4; stroke: #1f77b4"/>
     <use xlink:href="#m1891ac7f62" x="165.218744" y="195.485729" style="fill: #1f77b4; stroke: #1f77b4"/>
     <use xlink:href="#m1891ac7f62" x="168.97602" y="206.376829" style="fill: #1f77b4; stroke: #1f77b4"/>
     <use xlink:href="#m1891ac7f62" x="163.016203" y="199.539368" style="fill: #1f77b4; stroke: #1f77b4"/>
     <use xlink:href="#m1891ac7f62" x="163.793571" y="205.873554" style="fill: #1f77b4; stroke: #1f77b4"/>
     <use xlink:href="#m1891ac7f62" x="167.680408" y="211.737349" style="fill: #1f77b4; stroke: #1f77b4"/>
     <use xlink:href="#m1891ac7f62" x="184.005124" y="200.943089" style="fill: #1f77b4; stroke: #1f77b4"/>
     <use xlink:href="#m1891ac7f62" x="169.494265" y="205.948409" style="fill: #1f77b4; stroke: #1f77b4"/>
     <use xlink:href="#m1891ac7f62" x="223.391739" y="194.762429" style="fill: #1f77b4; stroke: #1f77b4"/>
     <use xlink:href="#m1891ac7f62" x="223.391739" y="194.762429" style="fill: #1f77b4; stroke: #1f77b4"/>
     <use xlink:href="#m1891ac7f62" x="168.97602" y="197.002278" style="fill: #1f77b4; stroke: #1f77b4"/>
     <use xlink:href="#m1891ac7f62" x="167.162163" y="200.305001" style="fill: #1f77b4; stroke: #1f77b4"/>
     <use xlink:href="#m1891ac7f62" x="223.003056" y="208.319618" style="fill: #1f77b4; stroke: #1f77b4"/>
     <use xlink:href="#m1891ac7f62" x="182.839072" y="206.819058" style="fill: #1f77b4; stroke: #1f77b4"/>
     <use xlink:href="#m1891ac7f62" x="174.676715" y="199.050264" style="fill: #1f77b4; stroke: #1f77b4"/>
     <use xlink:href="#m1891ac7f62" x="165.86655" y="197.272993" style="fill: #1f77b4; stroke: #1f77b4"/>
     <use xlink:href="#m1891ac7f62" x="94.089626" y="192.545473" style="fill: #1f77b4; stroke: #1f77b4"/>
     <use xlink:href="#m1891ac7f62" x="172.992418" y="207.533091" style="fill: #1f77b4; stroke: #1f77b4"/>
     <use xlink:href="#m1891ac7f62" x="163.923132" y="189.057429" style="fill: #1f77b4; stroke: #1f77b4"/>
     <use xlink:href="#m1891ac7f62" x="218.079729" y="213.605101" style="fill: #1f77b4; stroke: #1f77b4"/>
     <use xlink:href="#m1891ac7f62" x="225.205597" y="218.461437" style="fill: #1f77b4; stroke: #1f77b4"/>
     <use xlink:href="#m1891ac7f62" x="208.621758" y="225.015102" style="fill: #1f77b4; stroke: #1f77b4"/>
     <use xlink:href="#m1891ac7f62" x="215.488504" y="213.907066" style="fill: #1f77b4; stroke: #1f77b4"/>
     <use xlink:href="#m1891ac7f62" x="176.101888" y="201.431284" style="fill: #1f77b4; stroke: #1f77b4"/>
     <use xlink:href="#m1891ac7f62" x="143.063773" y="203.528144" style="fill: #1f77b4; stroke: #1f77b4"/>
     <use xlink:href="#m1891ac7f62" x="147.9871" y="205.375002" style="fill: #1f77b4; stroke: #1f77b4"/>
     <use xlink:href="#m1891ac7f62" x="143.452457" y="201.256682" style="fill: #1f77b4; stroke: #1f77b4"/>
     <use xlink:href="#m1891ac7f62" x="142.675089" y="201.811012" style="fill: #1f77b4; stroke: #1f77b4"/>
     <use xlink:href="#m1891ac7f62" x="149.800957" y="206.529992" style="fill: #1f77b4; stroke: #1f77b4"/>
     <use xlink:href="#m1891ac7f62" x="145.654998" y="195.084744" style="fill: #1f77b4; stroke: #1f77b4"/>
     <use xlink:href="#m1891ac7f62" x="142.675089" y="221.919322" style="fill: #1f77b4; stroke: #1f77b4"/>
     <use xlink:href="#m1891ac7f62" x="142.934212" y="229.271141" style="fill: #1f77b4; stroke: #1f77b4"/>
     <use xlink:href="#m1891ac7f62" x="143.063773" y="199.983777" style="fill: #1f77b4; stroke: #1f77b4"/>
     <use xlink:href="#m1891ac7f62" x="143.193334" y="203.888795" style="fill: #1f77b4; stroke: #1f77b4"/>
     <use xlink:href="#m1891ac7f62" x="119.224505" y="174.648306" style="fill: #1f77b4; stroke: #1f77b4"/>
     <use xlink:href="#m1891ac7f62" x="144.618508" y="221.934584" style="fill: #1f77b4; stroke: #1f77b4"/>
     <use xlink:href="#m1891ac7f62" x="142.415967" y="235.314263" style="fill: #1f77b4; stroke: #1f77b4"/>
     <use xlink:href="#m1891ac7f62" x="147.727977" y="207.047439" style="fill: #1f77b4; stroke: #1f77b4"/>
     <use xlink:href="#m1891ac7f62" x="151.09657" y="201.547746" style="fill: #1f77b4; stroke: #1f77b4"/>
     <use xlink:href="#m1891ac7f62" x="289.727092" y="216.070243" style="fill: #1f77b4; stroke: #1f77b4"/>
     <use xlink:href="#m1891ac7f62" x="248.915303" y="224.777636" style="fill: #1f77b4; stroke: #1f77b4"/>
     <use xlink:href="#m1891ac7f62" x="341.551587" y="276.334125" style="fill: #1f77b4; stroke: #1f77b4"/>
     <use xlink:href="#m1891ac7f62" x="376.273998" y="226.011297" style="fill: #1f77b4; stroke: #1f77b4"/>
     <use xlink:href="#m1891ac7f62" x="224.55779" y="169.616459" style="fill: #1f77b4; stroke: #1f77b4"/>
     <use xlink:href="#m1891ac7f62" x="296.464276" y="201.326269" style="fill: #1f77b4; stroke: #1f77b4"/>
     <use xlink:href="#m1891ac7f62" x="181.802583" y="196.947408" style="fill: #1f77b4; stroke: #1f77b4"/>
     <use xlink:href="#m1891ac7f62" x="175.972327" y="206.972039" style="fill: #1f77b4; stroke: #1f77b4"/>
     <use xlink:href="#m1891ac7f62" x="173.640225" y="212.746626" style="fill: #1f77b4; stroke: #1f77b4"/>
     <use xlink:href="#m1891ac7f62" x="153.428672" y="201.942736" style="fill: #1f77b4; stroke: #1f77b4"/>
     <use xlink:href="#m1891ac7f62" x="157.833754" y="209.738237" style="fill: #1f77b4; stroke: #1f77b4"/>
     <use xlink:href="#m1891ac7f62" x="152.651304" y="209.155564" style="fill: #1f77b4; stroke: #1f77b4"/>
     <use xlink:href="#m1891ac7f62" x="204.60536" y="200.049003" style="fill: #1f77b4; stroke: #1f77b4"/>
     <use xlink:href="#m1891ac7f62" x="275.345795" y="198.439066" style="fill: #1f77b4; stroke: #1f77b4"/>
     <use xlink:href="#m1891ac7f62" x="171.567245" y="200.183088" style="fill: #1f77b4; stroke: #1f77b4"/>
     <use xlink:href="#m1891ac7f62" x="171.308122" y="203.92168" style="fill: #1f77b4; stroke: #1f77b4"/>
     <use xlink:href="#m1891ac7f62" x="168.457775" y="206.52981" style="fill: #1f77b4; stroke: #1f77b4"/>
     <use xlink:href="#m1891ac7f62" x="176.490572" y="192.216437" style="fill: #1f77b4; stroke: #1f77b4"/>
     <use xlink:href="#m1891ac7f62" x="152.392182" y="215.222305" style="fill: #1f77b4; stroke: #1f77b4"/>
     <use xlink:href="#m1891ac7f62" x="212.249473" y="213.223011" style="fill: #1f77b4; stroke: #1f77b4"/>
     <use xlink:href="#m1891ac7f62" x="167.162163" y="202.643506" style="fill: #1f77b4; stroke: #1f77b4"/>
     <use xlink:href="#m1891ac7f62" x="145.266314" y="196.821317" style="fill: #1f77b4; stroke: #1f77b4"/>
     <use xlink:href="#m1891ac7f62" x="156.149458" y="209.516941" style="fill: #1f77b4; stroke: #1f77b4"/>
     <use xlink:href="#m1891ac7f62" x="149.930518" y="204.408422" style="fill: #1f77b4; stroke: #1f77b4"/>
     <use xlink:href="#m1891ac7f62" x="151.09657" y="200.086067" style="fill: #1f77b4; stroke: #1f77b4"/>
     <use xlink:href="#m1891ac7f62" x="169.364704" y="211.792401" style="fill: #1f77b4; stroke: #1f77b4"/>
     <use xlink:href="#m1891ac7f62" x="223.132617" y="202.083726" style="fill: #1f77b4; stroke: #1f77b4"/>
     <use xlink:href="#m1891ac7f62" x="217.950167" y="234.513746" style="fill: #1f77b4; stroke: #1f77b4"/>
     <use xlink:href="#m1891ac7f62" x="215.358943" y="228.040388" style="fill: #1f77b4; stroke: #1f77b4"/>
     <use xlink:href="#m1891ac7f62" x="191.778798" y="195.860551" style="fill: #1f77b4; stroke: #1f77b4"/>
     <use xlink:href="#m1891ac7f62" x="152.521743" y="162.717224" style="fill: #1f77b4; stroke: #1f77b4"/>
     <use xlink:href="#m1891ac7f62" x="195.017829" y="189.712414" style="fill: #1f77b4; stroke: #1f77b4"/>
     <use xlink:href="#m1891ac7f62" x="107.823117" y="216.295354" style="fill: #1f77b4; stroke: #1f77b4"/>
     <use xlink:href="#m1891ac7f62" x="201.366329" y="191.325439" style="fill: #1f77b4; stroke: #1f77b4"/>
     <use xlink:href="#m1891ac7f62" x="211.212983" y="205.814142" style="fill: #1f77b4; stroke: #1f77b4"/>
     <use xlink:href="#m1891ac7f62" x="183.486879" y="224.878473" style="fill: #1f77b4; stroke: #1f77b4"/>
     <use xlink:href="#m1891ac7f62" x="173.640225" y="215.806432" style="fill: #1f77b4; stroke: #1f77b4"/>
     <use xlink:href="#m1891ac7f62" x="176.620133" y="221.550495" style="fill: #1f77b4; stroke: #1f77b4"/>
     <use xlink:href="#m1891ac7f62" x="184.912052" y="216.16363" style="fill: #1f77b4; stroke: #1f77b4"/>
     <use xlink:href="#m1891ac7f62" x="81.133502" y="75.770836" style="fill: #1f77b4; stroke: #1f77b4"/>
     <use xlink:href="#m1891ac7f62" x="83.206482" y="134.510902" style="fill: #1f77b4; stroke: #1f77b4"/>
     <use xlink:href="#m1891ac7f62" x="174.806276" y="170.11283" style="fill: #1f77b4; stroke: #1f77b4"/>
     <use xlink:href="#m1891ac7f62" x="236.606985" y="195.686857" style="fill: #1f77b4; stroke: #1f77b4"/>
     <use xlink:href="#m1891ac7f62" x="243.085047" y="179.907989" style="fill: #1f77b4; stroke: #1f77b4"/>
     <use xlink:href="#m1891ac7f62" x="145.654998" y="224.193328" style="fill: #1f77b4; stroke: #1f77b4"/>
     <use xlink:href="#m1891ac7f62" x="159.388489" y="202.376243" style="fill: #1f77b4; stroke: #1f77b4"/>
     <use xlink:href="#m1891ac7f62" x="160.424979" y="210.428651" style="fill: #1f77b4; stroke: #1f77b4"/>
     <use xlink:href="#m1891ac7f62" x="132.051068" y="197.879649" style="fill: #1f77b4; stroke: #1f77b4"/>
     <use xlink:href="#m1891ac7f62" x="150.837447" y="34.414125" style="fill: #1f77b4; stroke: #1f77b4"/>
     <use xlink:href="#m1891ac7f62" x="161.072785" y="193.793851" style="fill: #1f77b4; stroke: #1f77b4"/>
     <use xlink:href="#m1891ac7f62" x="173.899347" y="122.192098" style="fill: #1f77b4; stroke: #1f77b4"/>
     <use xlink:href="#m1891ac7f62" x="149.153151" y="232.864928" style="fill: #1f77b4; stroke: #1f77b4"/>
     <use xlink:href="#m1891ac7f62" x="146.95061" y="240.493277" style="fill: #1f77b4; stroke: #1f77b4"/>
     <use xlink:href="#m1891ac7f62" x="154.983407" y="199.243035" style="fill: #1f77b4; stroke: #1f77b4"/>
     <use xlink:href="#m1891ac7f62" x="158.351999" y="212.800224" style="fill: #1f77b4; stroke: #1f77b4"/>
     <use xlink:href="#m1891ac7f62" x="164.830061" y="205.880458" style="fill: #1f77b4; stroke: #1f77b4"/>
     <use xlink:href="#m1891ac7f62" x="165.477867" y="205.880458" style="fill: #1f77b4; stroke: #1f77b4"/>
     <use xlink:href="#m1891ac7f62" x="162.497958" y="205.880458" style="fill: #1f77b4; stroke: #1f77b4"/>
     <use xlink:href="#m1891ac7f62" x="140.213426" y="205.880458" style="fill: #1f77b4; stroke: #1f77b4"/>
     <use xlink:href="#m1891ac7f62" x="165.089183" y="205.880458" style="fill: #1f77b4; stroke: #1f77b4"/>
     <use xlink:href="#m1891ac7f62" x="167.809969" y="205.880458" style="fill: #1f77b4; stroke: #1f77b4"/>
     <use xlink:href="#m1891ac7f62" x="184.264246" y="205.880458" style="fill: #1f77b4; stroke: #1f77b4"/>
     <use xlink:href="#m1891ac7f62" x="163.404887" y="205.880458" style="fill: #1f77b4; stroke: #1f77b4"/>
     <use xlink:href="#m1891ac7f62" x="191.390114" y="205.880458" style="fill: #1f77b4; stroke: #1f77b4"/>
     <use xlink:href="#m1891ac7f62" x="161.59103" y="205.880458" style="fill: #1f77b4; stroke: #1f77b4"/>
     <use xlink:href="#m1891ac7f62" x="159.51805" y="205.880458" style="fill: #1f77b4; stroke: #1f77b4"/>
     <use xlink:href="#m1891ac7f62" x="159.647611" y="205.880458" style="fill: #1f77b4; stroke: #1f77b4"/>
     <use xlink:href="#m1891ac7f62" x="165.736989" y="205.880458" style="fill: #1f77b4; stroke: #1f77b4"/>
     <use xlink:href="#m1891ac7f62" x="167.809969" y="205.880458" style="fill: #1f77b4; stroke: #1f77b4"/>
     <use xlink:href="#m1891ac7f62" x="165.736989" y="205.880458" style="fill: #1f77b4; stroke: #1f77b4"/>
     <use xlink:href="#m1891ac7f62" x="166.643918" y="205.880458" style="fill: #1f77b4; stroke: #1f77b4"/>
     <use xlink:href="#m1891ac7f62" x="139.695181" y="205.880458" style="fill: #1f77b4; stroke: #1f77b4"/>
     <use xlink:href="#m1891ac7f62" x="164.052693" y="205.880458" style="fill: #1f77b4; stroke: #1f77b4"/>
     <use xlink:href="#m1891ac7f62" x="168.069091" y="205.880458" style="fill: #1f77b4; stroke: #1f77b4"/>
     <use xlink:href="#m1891ac7f62" x="178.822674" y="205.880458" style="fill: #1f77b4; stroke: #1f77b4"/>
     <use xlink:href="#m1891ac7f62" x="282.212541" y="205.880458" style="fill: #1f77b4; stroke: #1f77b4"/>
     <use xlink:href="#m1891ac7f62" x="224.687352" y="205.880458" style="fill: #1f77b4; stroke: #1f77b4"/>
     <use xlink:href="#m1891ac7f62" x="182.57995" y="205.880458" style="fill: #1f77b4; stroke: #1f77b4"/>
     <use xlink:href="#m1891ac7f62" x="237.254792" y="205.880458" style="fill: #1f77b4; stroke: #1f77b4"/>
     <use xlink:href="#m1891ac7f62" x="186.207665" y="205.880458" style="fill: #1f77b4; stroke: #1f77b4"/>
     <use xlink:href="#m1891ac7f62" x="170.919439" y="205.880458" style="fill: #1f77b4; stroke: #1f77b4"/>
     <use xlink:href="#m1891ac7f62" x="167.032602" y="205.880458" style="fill: #1f77b4; stroke: #1f77b4"/>
     <use xlink:href="#m1891ac7f62" x="163.923132" y="205.880458" style="fill: #1f77b4; stroke: #1f77b4"/>
     <use xlink:href="#m1891ac7f62" x="183.486879" y="205.880458" style="fill: #1f77b4; stroke: #1f77b4"/>
     <use xlink:href="#m1891ac7f62" x="192.815288" y="205.880458" style="fill: #1f77b4; stroke: #1f77b4"/>
     <use xlink:href="#m1891ac7f62" x="218.079729" y="205.880458" style="fill: #1f77b4; stroke: #1f77b4"/>
     <use xlink:href="#m1891ac7f62" x="215.488504" y="205.880458" style="fill: #1f77b4; stroke: #1f77b4"/>
     <use xlink:href="#m1891ac7f62" x="215.488504" y="205.880458" style="fill: #1f77b4; stroke: #1f77b4"/>
     <use xlink:href="#m1891ac7f62" x="234.663567" y="205.880458" style="fill: #1f77b4; stroke: #1f77b4"/>
     <use xlink:href="#m1891ac7f62" x="140.602109" y="205.880458" style="fill: #1f77b4; stroke: #1f77b4"/>
     <use xlink:href="#m1891ac7f62" x="147.468855" y="205.880458" style="fill: #1f77b4; stroke: #1f77b4"/>
     <use xlink:href="#m1891ac7f62" x="149.930518" y="205.880458" style="fill: #1f77b4; stroke: #1f77b4"/>
     <use xlink:href="#m1891ac7f62" x="147.209732" y="205.880458" style="fill: #1f77b4; stroke: #1f77b4"/>
     <use xlink:href="#m1891ac7f62" x="139.954303" y="205.880458" style="fill: #1f77b4; stroke: #1f77b4"/>
     <use xlink:href="#m1891ac7f62" x="149.800957" y="205.880458" style="fill: #1f77b4; stroke: #1f77b4"/>
     <use xlink:href="#m1891ac7f62" x="146.302804" y="205.880458" style="fill: #1f77b4; stroke: #1f77b4"/>
     <use xlink:href="#m1891ac7f62" x="149.153151" y="205.880458" style="fill: #1f77b4; stroke: #1f77b4"/>
     <use xlink:href="#m1891ac7f62" x="175.194959" y="205.880458" style="fill: #1f77b4; stroke: #1f77b4"/>
     <use xlink:href="#m1891ac7f62" x="142.675089" y="205.880458" style="fill: #1f77b4; stroke: #1f77b4"/>
     <use xlink:href="#m1891ac7f62" x="177.656623" y="205.880458" style="fill: #1f77b4; stroke: #1f77b4"/>
     <use xlink:href="#m1891ac7f62" x="175.194959" y="205.880458" style="fill: #1f77b4; stroke: #1f77b4"/>
     <use xlink:href="#m1891ac7f62" x="162.497958" y="205.880458" style="fill: #1f77b4; stroke: #1f77b4"/>
     <use xlink:href="#m1891ac7f62" x="155.501652" y="205.880458" style="fill: #1f77b4; stroke: #1f77b4"/>
     <use xlink:href="#m1891ac7f62" x="171.308122" y="205.880458" style="fill: #1f77b4; stroke: #1f77b4"/>
     <use xlink:href="#m1891ac7f62" x="160.813662" y="205.880458" style="fill: #1f77b4; stroke: #1f77b4"/>
     <use xlink:href="#m1891ac7f62" x="172.474174" y="205.880458" style="fill: #1f77b4; stroke: #1f77b4"/>
     <use xlink:href="#m1891ac7f62" x="257.336783" y="205.880458" style="fill: #1f77b4; stroke: #1f77b4"/>
     <use xlink:href="#m1891ac7f62" x="172.215051" y="205.880458" style="fill: #1f77b4; stroke: #1f77b4"/>
     <use xlink:href="#m1891ac7f62" x="281.823857" y="205.880458" style="fill: #1f77b4; stroke: #1f77b4"/>
     <use xlink:href="#m1891ac7f62" x="291.54095" y="205.880458" style="fill: #1f77b4; stroke: #1f77b4"/>
     <use xlink:href="#m1891ac7f62" x="175.842766" y="205.880458" style="fill: #1f77b4; stroke: #1f77b4"/>
     <use xlink:href="#m1891ac7f62" x="157.963315" y="205.880458" style="fill: #1f77b4; stroke: #1f77b4"/>
     <use xlink:href="#m1891ac7f62" x="150.707886" y="205.880458" style="fill: #1f77b4; stroke: #1f77b4"/>
     <use xlink:href="#m1891ac7f62" x="175.583643" y="205.880458" style="fill: #1f77b4; stroke: #1f77b4"/>
     <use xlink:href="#m1891ac7f62" x="152.133059" y="205.880458" style="fill: #1f77b4; stroke: #1f77b4"/>
     <use xlink:href="#m1891ac7f62" x="155.242529" y="205.880458" style="fill: #1f77b4; stroke: #1f77b4"/>
     <use xlink:href="#m1891ac7f62" x="218.727535" y="205.880458" style="fill: #1f77b4; stroke: #1f77b4"/>
     <use xlink:href="#m1891ac7f62" x="179.211358" y="205.880458" style="fill: #1f77b4; stroke: #1f77b4"/>
     <use xlink:href="#m1891ac7f62" x="206.289656" y="205.880458" style="fill: #1f77b4; stroke: #1f77b4"/>
     <use xlink:href="#m1891ac7f62" x="198.386421" y="205.880458" style="fill: #1f77b4; stroke: #1f77b4"/>
     <use xlink:href="#m1891ac7f62" x="218.727535" y="205.880458" style="fill: #1f77b4; stroke: #1f77b4"/>
     <use xlink:href="#m1891ac7f62" x="169.882949" y="205.880458" style="fill: #1f77b4; stroke: #1f77b4"/>
     <use xlink:href="#m1891ac7f62" x="170.660316" y="205.880458" style="fill: #1f77b4; stroke: #1f77b4"/>
     <use xlink:href="#m1891ac7f62" x="158.351999" y="205.880458" style="fill: #1f77b4; stroke: #1f77b4"/>
     <use xlink:href="#m1891ac7f62" x="153.558233" y="205.880458" style="fill: #1f77b4; stroke: #1f77b4"/>
     <use xlink:href="#m1891ac7f62" x="153.558233" y="205.880458" style="fill: #1f77b4; stroke: #1f77b4"/>
     <use xlink:href="#m1891ac7f62" x="155.631213" y="205.880458" style="fill: #1f77b4; stroke: #1f77b4"/>
     <use xlink:href="#m1891ac7f62" x="152.003498" y="205.880458" style="fill: #1f77b4; stroke: #1f77b4"/>
     <use xlink:href="#m1891ac7f62" x="158.092876" y="205.880458" style="fill: #1f77b4; stroke: #1f77b4"/>
     <use xlink:href="#m1891ac7f62" x="151.744376" y="205.880458" style="fill: #1f77b4; stroke: #1f77b4"/>
     <use xlink:href="#m1891ac7f62" x="174.935837" y="205.880458" style="fill: #1f77b4; stroke: #1f77b4"/>
     <use xlink:href="#m1891ac7f62" x="165.86655" y="205.880458" style="fill: #1f77b4; stroke: #1f77b4"/>
     <use xlink:href="#m1891ac7f62" x="145.266314" y="205.880458" style="fill: #1f77b4; stroke: #1f77b4"/>
     <use xlink:href="#m1891ac7f62" x="153.039988" y="205.880458" style="fill: #1f77b4; stroke: #1f77b4"/>
     <use xlink:href="#m1891ac7f62" x="149.541835" y="205.880458" style="fill: #1f77b4; stroke: #1f77b4"/>
     <use xlink:href="#m1891ac7f62" x="211.472106" y="205.880458" style="fill: #1f77b4; stroke: #1f77b4"/>
     <use xlink:href="#m1891ac7f62" x="166.773479" y="205.880458" style="fill: #1f77b4; stroke: #1f77b4"/>
     <use xlink:href="#m1891ac7f62" x="174.028908" y="205.880458" style="fill: #1f77b4; stroke: #1f77b4"/>
     <use xlink:href="#m1891ac7f62" x="187.244154" y="205.880458" style="fill: #1f77b4; stroke: #1f77b4"/>
     <use xlink:href="#m1891ac7f62" x="132.828435" y="205.880458" style="fill: #1f77b4; stroke: #1f77b4"/>
     <use xlink:href="#m1891ac7f62" x="184.782491" y="205.880458" style="fill: #1f77b4; stroke: #1f77b4"/>
     <use xlink:href="#m1891ac7f62" x="243.603292" y="205.880458" style="fill: #1f77b4; stroke: #1f77b4"/>
     <use xlink:href="#m1891ac7f62" x="107.175311" y="205.880458" style="fill: #1f77b4; stroke: #1f77b4"/>
     <use xlink:href="#m1891ac7f62" x="203.309748" y="205.880458" style="fill: #1f77b4; stroke: #1f77b4"/>
     <use xlink:href="#m1891ac7f62" x="187.632838" y="205.880458" style="fill: #1f77b4; stroke: #1f77b4"/>
     <use xlink:href="#m1891ac7f62" x="104.97277" y="205.880458" style="fill: #1f77b4; stroke: #1f77b4"/>
     <use xlink:href="#m1891ac7f62" x="181.284338" y="205.880458" style="fill: #1f77b4; stroke: #1f77b4"/>
     <use xlink:href="#m1891ac7f62" x="191.778798" y="205.880458" style="fill: #1f77b4; stroke: #1f77b4"/>
     <use xlink:href="#m1891ac7f62" x="227.796821" y="205.880458" style="fill: #1f77b4; stroke: #1f77b4"/>
     <use xlink:href="#m1891ac7f62" x="144.229824" y="205.880458" style="fill: #1f77b4; stroke: #1f77b4"/>
     <use xlink:href="#m1891ac7f62" x="146.95061" y="205.880458" style="fill: #1f77b4; stroke: #1f77b4"/>
     <use xlink:href="#m1891ac7f62" x="154.724284" y="205.880458" style="fill: #1f77b4; stroke: #1f77b4"/>
     <use xlink:href="#m1891ac7f62" x="136.844834" y="205.880458" style="fill: #1f77b4; stroke: #1f77b4"/>
     <use xlink:href="#m1891ac7f62" x="138.270007" y="205.880458" style="fill: #1f77b4; stroke: #1f77b4"/>
     <use xlink:href="#m1891ac7f62" x="135.030976" y="205.880458" style="fill: #1f77b4; stroke: #1f77b4"/>
     <use xlink:href="#m1891ac7f62" x="145.136753" y="205.880458" style="fill: #1f77b4; stroke: #1f77b4"/>
     <use xlink:href="#m1891ac7f62" x="132.828435" y="205.880458" style="fill: #1f77b4; stroke: #1f77b4"/>
     <use xlink:href="#m1891ac7f62" x="151.485253" y="205.880458" style="fill: #1f77b4; stroke: #1f77b4"/>
     <use xlink:href="#m1891ac7f62" x="146.173243" y="205.880458" style="fill: #1f77b4; stroke: #1f77b4"/>
     <use xlink:href="#m1891ac7f62" x="149.800957" y="205.880458" style="fill: #1f77b4; stroke: #1f77b4"/>
     <use xlink:href="#m1891ac7f62" x="204.216676" y="205.880458" style="fill: #1f77b4; stroke: #1f77b4"/>
     <use xlink:href="#m1891ac7f62" x="150.578325" y="205.880458" style="fill: #1f77b4; stroke: #1f77b4"/>
    </g>
   </g>
   <g id="matplotlib.axis_1">
    <g id="xtick_1">
     <g id="line2d_1">
      <defs>
       <path id="m48fe68b3d3" d="M 0 0 
L 0 3.5 
" style="stroke: #000000; stroke-width: 0.8"/>
      </defs>
      <g>
       <use xlink:href="#m48fe68b3d3" x="66.23396" y="288.430125" style="stroke: #000000; stroke-width: 0.8"/>
      </g>
     </g>
     <g id="text_1">
      <!-- 1.510 -->
      <g transform="translate(51.919897 303.028562)scale(0.1 -0.1)">
       <defs>
        <path id="DejaVuSans-31" d="M 794 531 
L 1825 531 
L 1825 4091 
L 703 3866 
L 703 4441 
L 1819 4666 
L 2450 4666 
L 2450 531 
L 3481 531 
L 3481 0 
L 794 0 
L 794 531 
z
" transform="scale(0.015625)"/>
        <path id="DejaVuSans-2e" d="M 684 794 
L 1344 794 
L 1344 0 
L 684 0 
L 684 794 
z
" transform="scale(0.015625)"/>
        <path id="DejaVuSans-35" d="M 691 4666 
L 3169 4666 
L 3169 4134 
L 1269 4134 
L 1269 2991 
Q 1406 3038 1543 3061 
Q 1681 3084 1819 3084 
Q 2600 3084 3056 2656 
Q 3513 2228 3513 1497 
Q 3513 744 3044 326 
Q 2575 -91 1722 -91 
Q 1428 -91 1123 -41 
Q 819 9 494 109 
L 494 744 
Q 775 591 1075 516 
Q 1375 441 1709 441 
Q 2250 441 2565 725 
Q 2881 1009 2881 1497 
Q 2881 1984 2565 2268 
Q 2250 2553 1709 2553 
Q 1456 2553 1204 2497 
Q 953 2441 691 2322 
L 691 4666 
z
" transform="scale(0.015625)"/>
        <path id="DejaVuSans-30" d="M 2034 4250 
Q 1547 4250 1301 3770 
Q 1056 3291 1056 2328 
Q 1056 1369 1301 889 
Q 1547 409 2034 409 
Q 2525 409 2770 889 
Q 3016 1369 3016 2328 
Q 3016 3291 2770 3770 
Q 2525 4250 2034 4250 
z
M 2034 4750 
Q 2819 4750 3233 4129 
Q 3647 3509 3647 2328 
Q 3647 1150 3233 529 
Q 2819 -91 2034 -91 
Q 1250 -91 836 529 
Q 422 1150 422 2328 
Q 422 3509 836 4129 
Q 1250 4750 2034 4750 
z
" transform="scale(0.015625)"/>
       </defs>
       <use xlink:href="#DejaVuSans-31"/>
       <use xlink:href="#DejaVuSans-2e" x="63.623047"/>
       <use xlink:href="#DejaVuSans-35" x="95.410156"/>
       <use xlink:href="#DejaVuSans-31" x="159.033203"/>
       <use xlink:href="#DejaVuSans-30" x="222.65625"/>
      </g>
     </g>
    </g>
    <g id="xtick_2">
     <g id="line2d_2">
      <g>
       <use xlink:href="#m48fe68b3d3" x="131.014578" y="288.430125" style="stroke: #000000; stroke-width: 0.8"/>
      </g>
     </g>
     <g id="text_2">
      <!-- 1.515 -->
      <g transform="translate(116.700515 303.028562)scale(0.1 -0.1)">
       <use xlink:href="#DejaVuSans-31"/>
       <use xlink:href="#DejaVuSans-2e" x="63.623047"/>
       <use xlink:href="#DejaVuSans-35" x="95.410156"/>
       <use xlink:href="#DejaVuSans-31" x="159.033203"/>
       <use xlink:href="#DejaVuSans-35" x="222.65625"/>
      </g>
     </g>
    </g>
    <g id="xtick_3">
     <g id="line2d_3">
      <g>
       <use xlink:href="#m48fe68b3d3" x="195.795196" y="288.430125" style="stroke: #000000; stroke-width: 0.8"/>
      </g>
     </g>
     <g id="text_3">
      <!-- 1.520 -->
      <g transform="translate(181.481134 303.028562)scale(0.1 -0.1)">
       <defs>
        <path id="DejaVuSans-32" d="M 1228 531 
L 3431 531 
L 3431 0 
L 469 0 
L 469 531 
Q 828 903 1448 1529 
Q 2069 2156 2228 2338 
Q 2531 2678 2651 2914 
Q 2772 3150 2772 3378 
Q 2772 3750 2511 3984 
Q 2250 4219 1831 4219 
Q 1534 4219 1204 4116 
Q 875 4013 500 3803 
L 500 4441 
Q 881 4594 1212 4672 
Q 1544 4750 1819 4750 
Q 2544 4750 2975 4387 
Q 3406 4025 3406 3419 
Q 3406 3131 3298 2873 
Q 3191 2616 2906 2266 
Q 2828 2175 2409 1742 
Q 1991 1309 1228 531 
z
" transform="scale(0.015625)"/>
       </defs>
       <use xlink:href="#DejaVuSans-31"/>
       <use xlink:href="#DejaVuSans-2e" x="63.623047"/>
       <use xlink:href="#DejaVuSans-35" x="95.410156"/>
       <use xlink:href="#DejaVuSans-32" x="159.033203"/>
       <use xlink:href="#DejaVuSans-30" x="222.65625"/>
      </g>
     </g>
    </g>
    <g id="xtick_4">
     <g id="line2d_4">
      <g>
       <use xlink:href="#m48fe68b3d3" x="260.575814" y="288.430125" style="stroke: #000000; stroke-width: 0.8"/>
      </g>
     </g>
     <g id="text_4">
      <!-- 1.525 -->
      <g transform="translate(246.261752 303.028562)scale(0.1 -0.1)">
       <use xlink:href="#DejaVuSans-31"/>
       <use xlink:href="#DejaVuSans-2e" x="63.623047"/>
       <use xlink:href="#DejaVuSans-35" x="95.410156"/>
       <use xlink:href="#DejaVuSans-32" x="159.033203"/>
       <use xlink:href="#DejaVuSans-35" x="222.65625"/>
      </g>
     </g>
    </g>
    <g id="xtick_5">
     <g id="line2d_5">
      <g>
       <use xlink:href="#m48fe68b3d3" x="325.356432" y="288.430125" style="stroke: #000000; stroke-width: 0.8"/>
      </g>
     </g>
     <g id="text_5">
      <!-- 1.530 -->
      <g transform="translate(311.04237 303.028562)scale(0.1 -0.1)">
       <defs>
        <path id="DejaVuSans-33" d="M 2597 2516 
Q 3050 2419 3304 2112 
Q 3559 1806 3559 1356 
Q 3559 666 3084 287 
Q 2609 -91 1734 -91 
Q 1441 -91 1130 -33 
Q 819 25 488 141 
L 488 750 
Q 750 597 1062 519 
Q 1375 441 1716 441 
Q 2309 441 2620 675 
Q 2931 909 2931 1356 
Q 2931 1769 2642 2001 
Q 2353 2234 1838 2234 
L 1294 2234 
L 1294 2753 
L 1863 2753 
Q 2328 2753 2575 2939 
Q 2822 3125 2822 3475 
Q 2822 3834 2567 4026 
Q 2313 4219 1838 4219 
Q 1578 4219 1281 4162 
Q 984 4106 628 3988 
L 628 4550 
Q 988 4650 1302 4700 
Q 1616 4750 1894 4750 
Q 2613 4750 3031 4423 
Q 3450 4097 3450 3541 
Q 3450 3153 3228 2886 
Q 3006 2619 2597 2516 
z
" transform="scale(0.015625)"/>
       </defs>
       <use xlink:href="#DejaVuSans-31"/>
       <use xlink:href="#DejaVuSans-2e" x="63.623047"/>
       <use xlink:href="#DejaVuSans-35" x="95.410156"/>
       <use xlink:href="#DejaVuSans-33" x="159.033203"/>
       <use xlink:href="#DejaVuSans-30" x="222.65625"/>
      </g>
     </g>
    </g>
    <g id="xtick_6">
     <g id="line2d_6">
      <g>
       <use xlink:href="#m48fe68b3d3" x="390.13705" y="288.430125" style="stroke: #000000; stroke-width: 0.8"/>
      </g>
     </g>
     <g id="text_6">
      <!-- 1.535 -->
      <g transform="translate(375.822988 303.028562)scale(0.1 -0.1)">
       <use xlink:href="#DejaVuSans-31"/>
       <use xlink:href="#DejaVuSans-2e" x="63.623047"/>
       <use xlink:href="#DejaVuSans-35" x="95.410156"/>
       <use xlink:href="#DejaVuSans-33" x="159.033203"/>
       <use xlink:href="#DejaVuSans-35" x="222.65625"/>
      </g>
     </g>
    </g>
    <g id="text_7">
     <!-- True values -->
     <g transform="translate(200.235 316.706687)scale(0.1 -0.1)">
      <defs>
       <path id="DejaVuSans-54" d="M -19 4666 
L 3928 4666 
L 3928 4134 
L 2272 4134 
L 2272 0 
L 1638 0 
L 1638 4134 
L -19 4134 
L -19 4666 
z
" transform="scale(0.015625)"/>
       <path id="DejaVuSans-72" d="M 2631 2963 
Q 2534 3019 2420 3045 
Q 2306 3072 2169 3072 
Q 1681 3072 1420 2755 
Q 1159 2438 1159 1844 
L 1159 0 
L 581 0 
L 581 3500 
L 1159 3500 
L 1159 2956 
Q 1341 3275 1631 3429 
Q 1922 3584 2338 3584 
Q 2397 3584 2469 3576 
Q 2541 3569 2628 3553 
L 2631 2963 
z
" transform="scale(0.015625)"/>
       <path id="DejaVuSans-75" d="M 544 1381 
L 544 3500 
L 1119 3500 
L 1119 1403 
Q 1119 906 1312 657 
Q 1506 409 1894 409 
Q 2359 409 2629 706 
Q 2900 1003 2900 1516 
L 2900 3500 
L 3475 3500 
L 3475 0 
L 2900 0 
L 2900 538 
Q 2691 219 2414 64 
Q 2138 -91 1772 -91 
Q 1169 -91 856 284 
Q 544 659 544 1381 
z
M 1991 3584 
L 1991 3584 
z
" transform="scale(0.015625)"/>
       <path id="DejaVuSans-65" d="M 3597 1894 
L 3597 1613 
L 953 1613 
Q 991 1019 1311 708 
Q 1631 397 2203 397 
Q 2534 397 2845 478 
Q 3156 559 3463 722 
L 3463 178 
Q 3153 47 2828 -22 
Q 2503 -91 2169 -91 
Q 1331 -91 842 396 
Q 353 884 353 1716 
Q 353 2575 817 3079 
Q 1281 3584 2069 3584 
Q 2775 3584 3186 3129 
Q 3597 2675 3597 1894 
z
M 3022 2063 
Q 3016 2534 2758 2815 
Q 2500 3097 2075 3097 
Q 1594 3097 1305 2825 
Q 1016 2553 972 2059 
L 3022 2063 
z
" transform="scale(0.015625)"/>
       <path id="DejaVuSans-20" transform="scale(0.015625)"/>
       <path id="DejaVuSans-76" d="M 191 3500 
L 800 3500 
L 1894 563 
L 2988 3500 
L 3597 3500 
L 2284 0 
L 1503 0 
L 191 3500 
z
" transform="scale(0.015625)"/>
       <path id="DejaVuSans-61" d="M 2194 1759 
Q 1497 1759 1228 1600 
Q 959 1441 959 1056 
Q 959 750 1161 570 
Q 1363 391 1709 391 
Q 2188 391 2477 730 
Q 2766 1069 2766 1631 
L 2766 1759 
L 2194 1759 
z
M 3341 1997 
L 3341 0 
L 2766 0 
L 2766 531 
Q 2569 213 2275 61 
Q 1981 -91 1556 -91 
Q 1019 -91 701 211 
Q 384 513 384 1019 
Q 384 1609 779 1909 
Q 1175 2209 1959 2209 
L 2766 2209 
L 2766 2266 
Q 2766 2663 2505 2880 
Q 2244 3097 1772 3097 
Q 1472 3097 1187 3025 
Q 903 2953 641 2809 
L 641 3341 
Q 956 3463 1253 3523 
Q 1550 3584 1831 3584 
Q 2591 3584 2966 3190 
Q 3341 2797 3341 1997 
z
" transform="scale(0.015625)"/>
       <path id="DejaVuSans-6c" d="M 603 4863 
L 1178 4863 
L 1178 0 
L 603 0 
L 603 4863 
z
" transform="scale(0.015625)"/>
       <path id="DejaVuSans-73" d="M 2834 3397 
L 2834 2853 
Q 2591 2978 2328 3040 
Q 2066 3103 1784 3103 
Q 1356 3103 1142 2972 
Q 928 2841 928 2578 
Q 928 2378 1081 2264 
Q 1234 2150 1697 2047 
L 1894 2003 
Q 2506 1872 2764 1633 
Q 3022 1394 3022 966 
Q 3022 478 2636 193 
Q 2250 -91 1575 -91 
Q 1294 -91 989 -36 
Q 684 19 347 128 
L 347 722 
Q 666 556 975 473 
Q 1284 391 1588 391 
Q 1994 391 2212 530 
Q 2431 669 2431 922 
Q 2431 1156 2273 1281 
Q 2116 1406 1581 1522 
L 1381 1569 
Q 847 1681 609 1914 
Q 372 2147 372 2553 
Q 372 3047 722 3315 
Q 1072 3584 1716 3584 
Q 2034 3584 2315 3537 
Q 2597 3491 2834 3397 
z
" transform="scale(0.015625)"/>
      </defs>
      <use xlink:href="#DejaVuSans-54"/>
      <use xlink:href="#DejaVuSans-72" x="46.333984"/>
      <use xlink:href="#DejaVuSans-75" x="87.447266"/>
      <use xlink:href="#DejaVuSans-65" x="150.826172"/>
      <use xlink:href="#DejaVuSans-20" x="212.349609"/>
      <use xlink:href="#DejaVuSans-76" x="244.136719"/>
      <use xlink:href="#DejaVuSans-61" x="303.316406"/>
      <use xlink:href="#DejaVuSans-6c" x="364.595703"/>
      <use xlink:href="#DejaVuSans-75" x="392.378906"/>
      <use xlink:href="#DejaVuSans-65" x="455.757812"/>
      <use xlink:href="#DejaVuSans-73" x="517.28125"/>
     </g>
    </g>
   </g>
   <g id="matplotlib.axis_2">
    <g id="ytick_1">
     <g id="line2d_7">
      <defs>
       <path id="mbedc53c016" d="M 0 0 
L -3.5 0 
" style="stroke: #000000; stroke-width: 0.8"/>
      </defs>
      <g>
       <use xlink:href="#mbedc53c016" x="50.14375" y="264.534614" style="stroke: #000000; stroke-width: 0.8"/>
      </g>
     </g>
     <g id="text_8">
      <!-- 1.48 -->
      <g transform="translate(20.878125 268.333833)scale(0.1 -0.1)">
       <defs>
        <path id="DejaVuSans-34" d="M 2419 4116 
L 825 1625 
L 2419 1625 
L 2419 4116 
z
M 2253 4666 
L 3047 4666 
L 3047 1625 
L 3713 1625 
L 3713 1100 
L 3047 1100 
L 3047 0 
L 2419 0 
L 2419 1100 
L 313 1100 
L 313 1709 
L 2253 4666 
z
" transform="scale(0.015625)"/>
        <path id="DejaVuSans-38" d="M 2034 2216 
Q 1584 2216 1326 1975 
Q 1069 1734 1069 1313 
Q 1069 891 1326 650 
Q 1584 409 2034 409 
Q 2484 409 2743 651 
Q 3003 894 3003 1313 
Q 3003 1734 2745 1975 
Q 2488 2216 2034 2216 
z
M 1403 2484 
Q 997 2584 770 2862 
Q 544 3141 544 3541 
Q 544 4100 942 4425 
Q 1341 4750 2034 4750 
Q 2731 4750 3128 4425 
Q 3525 4100 3525 3541 
Q 3525 3141 3298 2862 
Q 3072 2584 2669 2484 
Q 3125 2378 3379 2068 
Q 3634 1759 3634 1313 
Q 3634 634 3220 271 
Q 2806 -91 2034 -91 
Q 1263 -91 848 271 
Q 434 634 434 1313 
Q 434 1759 690 2068 
Q 947 2378 1403 2484 
z
M 1172 3481 
Q 1172 3119 1398 2916 
Q 1625 2713 2034 2713 
Q 2441 2713 2670 2916 
Q 2900 3119 2900 3481 
Q 2900 3844 2670 4047 
Q 2441 4250 2034 4250 
Q 1625 4250 1398 4047 
Q 1172 3844 1172 3481 
z
" transform="scale(0.015625)"/>
       </defs>
       <use xlink:href="#DejaVuSans-31"/>
       <use xlink:href="#DejaVuSans-2e" x="63.623047"/>
       <use xlink:href="#DejaVuSans-34" x="95.410156"/>
       <use xlink:href="#DejaVuSans-38" x="159.033203"/>
      </g>
     </g>
    </g>
    <g id="ytick_2">
     <g id="line2d_8">
      <g>
       <use xlink:href="#mbedc53c016" x="50.14375" y="234.052441" style="stroke: #000000; stroke-width: 0.8"/>
      </g>
     </g>
     <g id="text_9">
      <!-- 1.50 -->
      <g transform="translate(20.878125 237.851659)scale(0.1 -0.1)">
       <use xlink:href="#DejaVuSans-31"/>
       <use xlink:href="#DejaVuSans-2e" x="63.623047"/>
       <use xlink:href="#DejaVuSans-35" x="95.410156"/>
       <use xlink:href="#DejaVuSans-30" x="159.033203"/>
      </g>
     </g>
    </g>
    <g id="ytick_3">
     <g id="line2d_9">
      <g>
       <use xlink:href="#mbedc53c016" x="50.14375" y="203.570267" style="stroke: #000000; stroke-width: 0.8"/>
      </g>
     </g>
     <g id="text_10">
      <!-- 1.52 -->
      <g transform="translate(20.878125 207.369486)scale(0.1 -0.1)">
       <use xlink:href="#DejaVuSans-31"/>
       <use xlink:href="#DejaVuSans-2e" x="63.623047"/>
       <use xlink:href="#DejaVuSans-35" x="95.410156"/>
       <use xlink:href="#DejaVuSans-32" x="159.033203"/>
      </g>
     </g>
    </g>
    <g id="ytick_4">
     <g id="line2d_10">
      <g>
       <use xlink:href="#mbedc53c016" x="50.14375" y="173.088093" style="stroke: #000000; stroke-width: 0.8"/>
      </g>
     </g>
     <g id="text_11">
      <!-- 1.54 -->
      <g transform="translate(20.878125 176.887312)scale(0.1 -0.1)">
       <use xlink:href="#DejaVuSans-31"/>
       <use xlink:href="#DejaVuSans-2e" x="63.623047"/>
       <use xlink:href="#DejaVuSans-35" x="95.410156"/>
       <use xlink:href="#DejaVuSans-34" x="159.033203"/>
      </g>
     </g>
    </g>
    <g id="ytick_5">
     <g id="line2d_11">
      <g>
       <use xlink:href="#mbedc53c016" x="50.14375" y="142.60592" style="stroke: #000000; stroke-width: 0.8"/>
      </g>
     </g>
     <g id="text_12">
      <!-- 1.56 -->
      <g transform="translate(20.878125 146.405138)scale(0.1 -0.1)">
       <defs>
        <path id="DejaVuSans-36" d="M 2113 2584 
Q 1688 2584 1439 2293 
Q 1191 2003 1191 1497 
Q 1191 994 1439 701 
Q 1688 409 2113 409 
Q 2538 409 2786 701 
Q 3034 994 3034 1497 
Q 3034 2003 2786 2293 
Q 2538 2584 2113 2584 
z
M 3366 4563 
L 3366 3988 
Q 3128 4100 2886 4159 
Q 2644 4219 2406 4219 
Q 1781 4219 1451 3797 
Q 1122 3375 1075 2522 
Q 1259 2794 1537 2939 
Q 1816 3084 2150 3084 
Q 2853 3084 3261 2657 
Q 3669 2231 3669 1497 
Q 3669 778 3244 343 
Q 2819 -91 2113 -91 
Q 1303 -91 875 529 
Q 447 1150 447 2328 
Q 447 3434 972 4092 
Q 1497 4750 2381 4750 
Q 2619 4750 2861 4703 
Q 3103 4656 3366 4563 
z
" transform="scale(0.015625)"/>
       </defs>
       <use xlink:href="#DejaVuSans-31"/>
       <use xlink:href="#DejaVuSans-2e" x="63.623047"/>
       <use xlink:href="#DejaVuSans-35" x="95.410156"/>
       <use xlink:href="#DejaVuSans-36" x="159.033203"/>
      </g>
     </g>
    </g>
    <g id="ytick_6">
     <g id="line2d_12">
      <g>
       <use xlink:href="#mbedc53c016" x="50.14375" y="112.123746" style="stroke: #000000; stroke-width: 0.8"/>
      </g>
     </g>
     <g id="text_13">
      <!-- 1.58 -->
      <g transform="translate(20.878125 115.922965)scale(0.1 -0.1)">
       <use xlink:href="#DejaVuSans-31"/>
       <use xlink:href="#DejaVuSans-2e" x="63.623047"/>
       <use xlink:href="#DejaVuSans-35" x="95.410156"/>
       <use xlink:href="#DejaVuSans-38" x="159.033203"/>
      </g>
     </g>
    </g>
    <g id="ytick_7">
     <g id="line2d_13">
      <g>
       <use xlink:href="#mbedc53c016" x="50.14375" y="81.641572" style="stroke: #000000; stroke-width: 0.8"/>
      </g>
     </g>
     <g id="text_14">
      <!-- 1.60 -->
      <g transform="translate(20.878125 85.440791)scale(0.1 -0.1)">
       <use xlink:href="#DejaVuSans-31"/>
       <use xlink:href="#DejaVuSans-2e" x="63.623047"/>
       <use xlink:href="#DejaVuSans-36" x="95.410156"/>
       <use xlink:href="#DejaVuSans-30" x="159.033203"/>
      </g>
     </g>
    </g>
    <g id="ytick_8">
     <g id="line2d_14">
      <g>
       <use xlink:href="#mbedc53c016" x="50.14375" y="51.159399" style="stroke: #000000; stroke-width: 0.8"/>
      </g>
     </g>
     <g id="text_15">
      <!-- 1.62 -->
      <g transform="translate(20.878125 54.958618)scale(0.1 -0.1)">
       <use xlink:href="#DejaVuSans-31"/>
       <use xlink:href="#DejaVuSans-2e" x="63.623047"/>
       <use xlink:href="#DejaVuSans-36" x="95.410156"/>
       <use xlink:href="#DejaVuSans-32" x="159.033203"/>
      </g>
     </g>
    </g>
    <g id="text_16">
     <!-- Predicted values -->
     <g transform="translate(14.798438 196.696)rotate(-90)scale(0.1 -0.1)">
      <defs>
       <path id="DejaVuSans-50" d="M 1259 4147 
L 1259 2394 
L 2053 2394 
Q 2494 2394 2734 2622 
Q 2975 2850 2975 3272 
Q 2975 3691 2734 3919 
Q 2494 4147 2053 4147 
L 1259 4147 
z
M 628 4666 
L 2053 4666 
Q 2838 4666 3239 4311 
Q 3641 3956 3641 3272 
Q 3641 2581 3239 2228 
Q 2838 1875 2053 1875 
L 1259 1875 
L 1259 0 
L 628 0 
L 628 4666 
z
" transform="scale(0.015625)"/>
       <path id="DejaVuSans-64" d="M 2906 2969 
L 2906 4863 
L 3481 4863 
L 3481 0 
L 2906 0 
L 2906 525 
Q 2725 213 2448 61 
Q 2172 -91 1784 -91 
Q 1150 -91 751 415 
Q 353 922 353 1747 
Q 353 2572 751 3078 
Q 1150 3584 1784 3584 
Q 2172 3584 2448 3432 
Q 2725 3281 2906 2969 
z
M 947 1747 
Q 947 1113 1208 752 
Q 1469 391 1925 391 
Q 2381 391 2643 752 
Q 2906 1113 2906 1747 
Q 2906 2381 2643 2742 
Q 2381 3103 1925 3103 
Q 1469 3103 1208 2742 
Q 947 2381 947 1747 
z
" transform="scale(0.015625)"/>
       <path id="DejaVuSans-69" d="M 603 3500 
L 1178 3500 
L 1178 0 
L 603 0 
L 603 3500 
z
M 603 4863 
L 1178 4863 
L 1178 4134 
L 603 4134 
L 603 4863 
z
" transform="scale(0.015625)"/>
       <path id="DejaVuSans-63" d="M 3122 3366 
L 3122 2828 
Q 2878 2963 2633 3030 
Q 2388 3097 2138 3097 
Q 1578 3097 1268 2742 
Q 959 2388 959 1747 
Q 959 1106 1268 751 
Q 1578 397 2138 397 
Q 2388 397 2633 464 
Q 2878 531 3122 666 
L 3122 134 
Q 2881 22 2623 -34 
Q 2366 -91 2075 -91 
Q 1284 -91 818 406 
Q 353 903 353 1747 
Q 353 2603 823 3093 
Q 1294 3584 2113 3584 
Q 2378 3584 2631 3529 
Q 2884 3475 3122 3366 
z
" transform="scale(0.015625)"/>
       <path id="DejaVuSans-74" d="M 1172 4494 
L 1172 3500 
L 2356 3500 
L 2356 3053 
L 1172 3053 
L 1172 1153 
Q 1172 725 1289 603 
Q 1406 481 1766 481 
L 2356 481 
L 2356 0 
L 1766 0 
Q 1100 0 847 248 
Q 594 497 594 1153 
L 594 3053 
L 172 3053 
L 172 3500 
L 594 3500 
L 594 4494 
L 1172 4494 
z
" transform="scale(0.015625)"/>
      </defs>
      <use xlink:href="#DejaVuSans-50"/>
      <use xlink:href="#DejaVuSans-72" x="58.552734"/>
      <use xlink:href="#DejaVuSans-65" x="97.416016"/>
      <use xlink:href="#DejaVuSans-64" x="158.939453"/>
      <use xlink:href="#DejaVuSans-69" x="222.416016"/>
      <use xlink:href="#DejaVuSans-63" x="250.199219"/>
      <use xlink:href="#DejaVuSans-74" x="305.179688"/>
      <use xlink:href="#DejaVuSans-65" x="344.388672"/>
      <use xlink:href="#DejaVuSans-64" x="405.912109"/>
      <use xlink:href="#DejaVuSans-20" x="469.388672"/>
      <use xlink:href="#DejaVuSans-76" x="501.175781"/>
      <use xlink:href="#DejaVuSans-61" x="560.355469"/>
      <use xlink:href="#DejaVuSans-6c" x="621.634766"/>
      <use xlink:href="#DejaVuSans-75" x="649.417969"/>
      <use xlink:href="#DejaVuSans-65" x="712.796875"/>
      <use xlink:href="#DejaVuSans-73" x="774.320312"/>
     </g>
    </g>
   </g>
   <g id="line2d_15">
    <path d="M 66.376477 218.794589 
L 391.031023 180.603473 
" clip-path="url(#p82c6327325)" style="fill: none; stroke: #000000; stroke-width: 1.5; stroke-linecap: square"/>
   </g>
   <g id="patch_3">
    <path d="M 50.14375 288.430125 
L 50.14375 22.318125 
" style="fill: none; stroke: #000000; stroke-width: 0.8; stroke-linejoin: miter; stroke-linecap: square"/>
   </g>
   <g id="patch_4">
    <path d="M 407.26375 288.430125 
L 407.26375 22.318125 
" style="fill: none; stroke: #000000; stroke-width: 0.8; stroke-linejoin: miter; stroke-linecap: square"/>
   </g>
   <g id="patch_5">
    <path d="M 50.14375 288.430125 
L 407.26375 288.430125 
" style="fill: none; stroke: #000000; stroke-width: 0.8; stroke-linejoin: miter; stroke-linecap: square"/>
   </g>
   <g id="patch_6">
    <path d="M 50.14375 22.318125 
L 407.26375 22.318125 
" style="fill: none; stroke: #000000; stroke-width: 0.8; stroke-linejoin: miter; stroke-linecap: square"/>
   </g>
   <g id="text_17">
    <!-- ANN vs. True value -->
    <g transform="translate(172.1875 16.318125)scale(0.12 -0.12)">
     <defs>
      <path id="DejaVuSans-41" d="M 2188 4044 
L 1331 1722 
L 3047 1722 
L 2188 4044 
z
M 1831 4666 
L 2547 4666 
L 4325 0 
L 3669 0 
L 3244 1197 
L 1141 1197 
L 716 0 
L 50 0 
L 1831 4666 
z
" transform="scale(0.015625)"/>
      <path id="DejaVuSans-4e" d="M 628 4666 
L 1478 4666 
L 3547 763 
L 3547 4666 
L 4159 4666 
L 4159 0 
L 3309 0 
L 1241 3903 
L 1241 0 
L 628 0 
L 628 4666 
z
" transform="scale(0.015625)"/>
     </defs>
     <use xlink:href="#DejaVuSans-41"/>
     <use xlink:href="#DejaVuSans-4e" x="68.408203"/>
     <use xlink:href="#DejaVuSans-4e" x="143.212891"/>
     <use xlink:href="#DejaVuSans-20" x="218.017578"/>
     <use xlink:href="#DejaVuSans-76" x="249.804688"/>
     <use xlink:href="#DejaVuSans-73" x="308.984375"/>
     <use xlink:href="#DejaVuSans-2e" x="361.083984"/>
     <use xlink:href="#DejaVuSans-20" x="392.871094"/>
     <use xlink:href="#DejaVuSans-54" x="424.658203"/>
     <use xlink:href="#DejaVuSans-72" x="470.992188"/>
     <use xlink:href="#DejaVuSans-75" x="512.105469"/>
     <use xlink:href="#DejaVuSans-65" x="575.484375"/>
     <use xlink:href="#DejaVuSans-20" x="637.007812"/>
     <use xlink:href="#DejaVuSans-76" x="668.794922"/>
     <use xlink:href="#DejaVuSans-61" x="727.974609"/>
     <use xlink:href="#DejaVuSans-6c" x="789.253906"/>
     <use xlink:href="#DejaVuSans-75" x="817.037109"/>
     <use xlink:href="#DejaVuSans-65" x="880.416016"/>
    </g>
   </g>
   <g id="legend_1">
    <g id="patch_7">
     <path d="M 348.046562 59.674375 
L 400.26375 59.674375 
Q 402.26375 59.674375 402.26375 57.674375 
L 402.26375 29.318125 
Q 402.26375 27.318125 400.26375 27.318125 
L 348.046562 27.318125 
Q 346.046562 27.318125 346.046562 29.318125 
L 346.046562 57.674375 
Q 346.046562 59.674375 348.046562 59.674375 
z
" style="fill: #ffffff; opacity: 0.8; stroke: #cccccc; stroke-linejoin: miter"/>
    </g>
    <g id="PathCollection_2">
     <g>
      <use xlink:href="#m1891ac7f62" x="360.046562" y="36.291562" style="fill: #1f77b4; stroke: #1f77b4"/>
     </g>
    </g>
    <g id="line2d_16">
     <path d="M 350.046562 50.094687 
L 360.046562 50.094687 
L 370.046562 50.094687 
" style="fill: none; stroke: #000000; stroke-width: 1.5; stroke-linecap: square"/>
    </g>
    <g id="text_18">
     <!-- y=x -->
     <g transform="translate(378.046562 53.594687)scale(0.1 -0.1)">
      <defs>
       <path id="DejaVuSans-79" d="M 2059 -325 
Q 1816 -950 1584 -1140 
Q 1353 -1331 966 -1331 
L 506 -1331 
L 506 -850 
L 844 -850 
Q 1081 -850 1212 -737 
Q 1344 -625 1503 -206 
L 1606 56 
L 191 3500 
L 800 3500 
L 1894 763 
L 2988 3500 
L 3597 3500 
L 2059 -325 
z
" transform="scale(0.015625)"/>
       <path id="DejaVuSans-3d" d="M 678 2906 
L 4684 2906 
L 4684 2381 
L 678 2381 
L 678 2906 
z
M 678 1631 
L 4684 1631 
L 4684 1100 
L 678 1100 
L 678 1631 
z
" transform="scale(0.015625)"/>
       <path id="DejaVuSans-78" d="M 3513 3500 
L 2247 1797 
L 3578 0 
L 2900 0 
L 1881 1375 
L 863 0 
L 184 0 
L 1544 1831 
L 300 3500 
L 978 3500 
L 1906 2253 
L 2834 3500 
L 3513 3500 
z
" transform="scale(0.015625)"/>
      </defs>
      <use xlink:href="#DejaVuSans-79"/>
      <use xlink:href="#DejaVuSans-3d" x="59.179688"/>
      <use xlink:href="#DejaVuSans-78" x="142.96875"/>
     </g>
    </g>
   </g>
  </g>
 </g>
 <defs>
  <clipPath id="p82c6327325">
   <rect x="50.14375" y="22.318125" width="357.12" height="266.112"/>
  </clipPath>
 </defs>
</svg>
