<?xml version="1.0" encoding="utf-8" standalone="no"?>
<!DOCTYPE svg PUBLIC "-//W3C//DTD SVG 1.1//EN"
  "http://www.w3.org/Graphics/SVG/1.1/DTD/svg11.dtd">
<svg xmlns:xlink="http://www.w3.org/1999/xlink" width="420.82625pt" height="325.986375pt" viewBox="0 0 420.82625 325.986375" xmlns="http://www.w3.org/2000/svg" version="1.1">
 <metadata>
  <rdf:RDF xmlns:dc="http://purl.org/dc/elements/1.1/" xmlns:cc="http://creativecommons.org/ns#" xmlns:rdf="http://www.w3.org/1999/02/22-rdf-syntax-ns#">
   <cc:Work>
    <dc:type rdf:resource="http://purl.org/dc/dcmitype/StillImage"/>
    <dc:date>2023-04-14T20:45:16.918782</dc:date>
    <dc:format>image/svg+xml</dc:format>
    <dc:creator>
     <cc:Agent>
      <dc:title>Matplotlib v3.5.2, https://matplotlib.org/</dc:title>
     </cc:Agent>
    </dc:creator>
   </cc:Work>
  </rdf:RDF>
 </metadata>
 <defs>
  <style type="text/css">*{stroke-linejoin: round; stroke-linecap: butt}</style>
 </defs>
 <g id="figure_1">
  <g id="patch_1">
   <path d="M 0 325.986375 
L 420.82625 325.986375 
L 420.82625 0 
L 0 0 
z
" style="fill: #ffffff"/>
  </g>
  <g id="axes_1">
   <g id="patch_2">
    <path d="M 56.50625 288.430125 
L 413.62625 288.430125 
L 413.62625 22.318125 
L 56.50625 22.318125 
z
" style="fill: #ffffff"/>
   </g>
   <g id="PathCollection_1">
    <defs>
     <path id="mdd263f90c2" d="M 0 3 
C 0.795609 3 1.55874 2.683901 2.12132 2.12132 
C 2.683901 1.55874 3 0.795609 3 0 
C 3 -0.795609 2.683901 -1.55874 2.12132 -2.12132 
C 1.55874 -2.683901 0.795609 -3 0 -3 
C -0.795609 -3 -1.55874 -2.683901 -2.12132 -2.12132 
C -2.683901 -1.55874 -3 -0.795609 -3 0 
C -3 0.795609 -2.683901 1.55874 -2.12132 2.12132 
C -1.55874 2.683901 -0.795609 3 0 3 
z
" style="stroke: #1f77b4"/>
    </defs>
    <g clip-path="url(#pa8191ebb20)">
     <use xlink:href="#mdd263f90c2" x="215.243381" y="180.120891" style="fill: #1f77b4; stroke: #1f77b4"/>
     <use xlink:href="#mdd263f90c2" x="152.665304" y="217.854456" style="fill: #1f77b4; stroke: #1f77b4"/>
     <use xlink:href="#mdd263f90c2" x="168.730897" y="211.995081" style="fill: #1f77b4; stroke: #1f77b4"/>
     <use xlink:href="#mdd263f90c2" x="149.814957" y="212.332469" style="fill: #1f77b4; stroke: #1f77b4"/>
     <use xlink:href="#mdd263f90c2" x="170.544754" y="209.605902" style="fill: #1f77b4; stroke: #1f77b4"/>
     <use xlink:href="#mdd263f90c2" x="191.533675" y="198.59744" style="fill: #1f77b4; stroke: #1f77b4"/>
     <use xlink:href="#mdd263f90c2" x="170.415193" y="206.642323" style="fill: #1f77b4; stroke: #1f77b4"/>
     <use xlink:href="#mdd263f90c2" x="171.451683" y="204.123082" style="fill: #1f77b4; stroke: #1f77b4"/>
     <use xlink:href="#mdd263f90c2" x="148.908028" y="215.218605" style="fill: #1f77b4; stroke: #1f77b4"/>
     <use xlink:href="#mdd263f90c2" x="169.508265" y="207.883496" style="fill: #1f77b4; stroke: #1f77b4"/>
     <use xlink:href="#mdd263f90c2" x="171.192561" y="209.01199" style="fill: #1f77b4; stroke: #1f77b4"/>
     <use xlink:href="#mdd263f90c2" x="227.551698" y="169.398594" style="fill: #1f77b4; stroke: #1f77b4"/>
     <use xlink:href="#mdd263f90c2" x="167.823968" y="206.705252" style="fill: #1f77b4; stroke: #1f77b4"/>
     <use xlink:href="#mdd263f90c2" x="169.896948" y="205.154601" style="fill: #1f77b4; stroke: #1f77b4"/>
     <use xlink:href="#mdd263f90c2" x="171.581244" y="204.542521" style="fill: #1f77b4; stroke: #1f77b4"/>
     <use xlink:href="#mdd263f90c2" x="175.33852" y="203.280124" style="fill: #1f77b4; stroke: #1f77b4"/>
     <use xlink:href="#mdd263f90c2" x="169.378703" y="206.347005" style="fill: #1f77b4; stroke: #1f77b4"/>
     <use xlink:href="#mdd263f90c2" x="170.156071" y="210.221794" style="fill: #1f77b4; stroke: #1f77b4"/>
     <use xlink:href="#mdd263f90c2" x="174.042908" y="201.24047" style="fill: #1f77b4; stroke: #1f77b4"/>
     <use xlink:href="#mdd263f90c2" x="190.367624" y="186.446343" style="fill: #1f77b4; stroke: #1f77b4"/>
     <use xlink:href="#mdd263f90c2" x="175.856765" y="203.035453" style="fill: #1f77b4; stroke: #1f77b4"/>
     <use xlink:href="#mdd263f90c2" x="229.754239" y="164.288777" style="fill: #1f77b4; stroke: #1f77b4"/>
     <use xlink:href="#mdd263f90c2" x="229.754239" y="164.288777" style="fill: #1f77b4; stroke: #1f77b4"/>
     <use xlink:href="#mdd263f90c2" x="175.33852" y="200.176542" style="fill: #1f77b4; stroke: #1f77b4"/>
     <use xlink:href="#mdd263f90c2" x="173.524663" y="202.154597" style="fill: #1f77b4; stroke: #1f77b4"/>
     <use xlink:href="#mdd263f90c2" x="229.365556" y="164.08171" style="fill: #1f77b4; stroke: #1f77b4"/>
     <use xlink:href="#mdd263f90c2" x="189.201572" y="185.903984" style="fill: #1f77b4; stroke: #1f77b4"/>
     <use xlink:href="#mdd263f90c2" x="181.039215" y="196.566956" style="fill: #1f77b4; stroke: #1f77b4"/>
     <use xlink:href="#mdd263f90c2" x="172.22905" y="205.615087" style="fill: #1f77b4; stroke: #1f77b4"/>
     <use xlink:href="#mdd263f90c2" x="100.452126" y="202.748678" style="fill: #1f77b4; stroke: #1f77b4"/>
     <use xlink:href="#mdd263f90c2" x="179.354918" y="205.24088" style="fill: #1f77b4; stroke: #1f77b4"/>
     <use xlink:href="#mdd263f90c2" x="170.285632" y="211.246455" style="fill: #1f77b4; stroke: #1f77b4"/>
     <use xlink:href="#mdd263f90c2" x="224.442229" y="167.852079" style="fill: #1f77b4; stroke: #1f77b4"/>
     <use xlink:href="#mdd263f90c2" x="231.568097" y="159.601836" style="fill: #1f77b4; stroke: #1f77b4"/>
     <use xlink:href="#mdd263f90c2" x="214.984258" y="175.739395" style="fill: #1f77b4; stroke: #1f77b4"/>
     <use xlink:href="#mdd263f90c2" x="221.851004" y="169.242624" style="fill: #1f77b4; stroke: #1f77b4"/>
     <use xlink:href="#mdd263f90c2" x="182.464388" y="191.28071" style="fill: #1f77b4; stroke: #1f77b4"/>
     <use xlink:href="#mdd263f90c2" x="149.426273" y="219.045757" style="fill: #1f77b4; stroke: #1f77b4"/>
     <use xlink:href="#mdd263f90c2" x="154.3496" y="215.97398" style="fill: #1f77b4; stroke: #1f77b4"/>
     <use xlink:href="#mdd263f90c2" x="149.814957" y="218.72877" style="fill: #1f77b4; stroke: #1f77b4"/>
     <use xlink:href="#mdd263f90c2" x="149.037589" y="217.561769" style="fill: #1f77b4; stroke: #1f77b4"/>
     <use xlink:href="#mdd263f90c2" x="156.163457" y="207.282527" style="fill: #1f77b4; stroke: #1f77b4"/>
     <use xlink:href="#mdd263f90c2" x="152.017498" y="210.723497" style="fill: #1f77b4; stroke: #1f77b4"/>
     <use xlink:href="#mdd263f90c2" x="149.037589" y="217.878531" style="fill: #1f77b4; stroke: #1f77b4"/>
     <use xlink:href="#mdd263f90c2" x="149.296712" y="217.883552" style="fill: #1f77b4; stroke: #1f77b4"/>
     <use xlink:href="#mdd263f90c2" x="149.426273" y="218.719843" style="fill: #1f77b4; stroke: #1f77b4"/>
     <use xlink:href="#mdd263f90c2" x="149.555834" y="212.723547" style="fill: #1f77b4; stroke: #1f77b4"/>
     <use xlink:href="#mdd263f90c2" x="125.587005" y="230.131617" style="fill: #1f77b4; stroke: #1f77b4"/>
     <use xlink:href="#mdd263f90c2" x="150.981008" y="209.91345" style="fill: #1f77b4; stroke: #1f77b4"/>
     <use xlink:href="#mdd263f90c2" x="148.778467" y="210.104321" style="fill: #1f77b4; stroke: #1f77b4"/>
     <use xlink:href="#mdd263f90c2" x="154.090477" y="215.099108" style="fill: #1f77b4; stroke: #1f77b4"/>
     <use xlink:href="#mdd263f90c2" x="157.45907" y="204.82709" style="fill: #1f77b4; stroke: #1f77b4"/>
     <use xlink:href="#mdd263f90c2" x="296.089592" y="122.048336" style="fill: #1f77b4; stroke: #1f77b4"/>
     <use xlink:href="#mdd263f90c2" x="255.277803" y="147.876051" style="fill: #1f77b4; stroke: #1f77b4"/>
     <use xlink:href="#mdd263f90c2" x="347.914087" y="78.521662" style="fill: #1f77b4; stroke: #1f77b4"/>
     <use xlink:href="#mdd263f90c2" x="382.636498" y="58.940397" style="fill: #1f77b4; stroke: #1f77b4"/>
     <use xlink:href="#mdd263f90c2" x="230.92029" y="161.740225" style="fill: #1f77b4; stroke: #1f77b4"/>
     <use xlink:href="#mdd263f90c2" x="302.826776" y="106.869706" style="fill: #1f77b4; stroke: #1f77b4"/>
     <use xlink:href="#mdd263f90c2" x="188.165083" y="202.342307" style="fill: #1f77b4; stroke: #1f77b4"/>
     <use xlink:href="#mdd263f90c2" x="182.334827" y="197.008157" style="fill: #1f77b4; stroke: #1f77b4"/>
     <use xlink:href="#mdd263f90c2" x="180.002725" y="199.103396" style="fill: #1f77b4; stroke: #1f77b4"/>
     <use xlink:href="#mdd263f90c2" x="159.791172" y="206.62235" style="fill: #1f77b4; stroke: #1f77b4"/>
     <use xlink:href="#mdd263f90c2" x="164.196254" y="211.860866" style="fill: #1f77b4; stroke: #1f77b4"/>
     <use xlink:href="#mdd263f90c2" x="159.013804" y="199.753559" style="fill: #1f77b4; stroke: #1f77b4"/>
     <use xlink:href="#mdd263f90c2" x="210.96786" y="183.818794" style="fill: #1f77b4; stroke: #1f77b4"/>
     <use xlink:href="#mdd263f90c2" x="281.708295" y="119.612767" style="fill: #1f77b4; stroke: #1f77b4"/>
     <use xlink:href="#mdd263f90c2" x="177.929745" y="202.052279" style="fill: #1f77b4; stroke: #1f77b4"/>
     <use xlink:href="#mdd263f90c2" x="177.670622" y="206.970828" style="fill: #1f77b4; stroke: #1f77b4"/>
     <use xlink:href="#mdd263f90c2" x="174.820275" y="194.620031" style="fill: #1f77b4; stroke: #1f77b4"/>
     <use xlink:href="#mdd263f90c2" x="182.853072" y="199.930873" style="fill: #1f77b4; stroke: #1f77b4"/>
     <use xlink:href="#mdd263f90c2" x="158.754682" y="204.652874" style="fill: #1f77b4; stroke: #1f77b4"/>
     <use xlink:href="#mdd263f90c2" x="218.611973" y="165.514124" style="fill: #1f77b4; stroke: #1f77b4"/>
     <use xlink:href="#mdd263f90c2" x="173.524663" y="190.629169" style="fill: #1f77b4; stroke: #1f77b4"/>
     <use xlink:href="#mdd263f90c2" x="151.628814" y="203.597522" style="fill: #1f77b4; stroke: #1f77b4"/>
     <use xlink:href="#mdd263f90c2" x="162.511958" y="196.074309" style="fill: #1f77b4; stroke: #1f77b4"/>
     <use xlink:href="#mdd263f90c2" x="156.293018" y="204.044264" style="fill: #1f77b4; stroke: #1f77b4"/>
     <use xlink:href="#mdd263f90c2" x="157.45907" y="199.185649" style="fill: #1f77b4; stroke: #1f77b4"/>
     <use xlink:href="#mdd263f90c2" x="175.727204" y="191.239791" style="fill: #1f77b4; stroke: #1f77b4"/>
     <use xlink:href="#mdd263f90c2" x="229.495117" y="167.046511" style="fill: #1f77b4; stroke: #1f77b4"/>
     <use xlink:href="#mdd263f90c2" x="224.312667" y="166.130189" style="fill: #1f77b4; stroke: #1f77b4"/>
     <use xlink:href="#mdd263f90c2" x="221.721443" y="171.332266" style="fill: #1f77b4; stroke: #1f77b4"/>
     <use xlink:href="#mdd263f90c2" x="198.141298" y="182.725739" style="fill: #1f77b4; stroke: #1f77b4"/>
     <use xlink:href="#mdd263f90c2" x="158.884243" y="208.25226" style="fill: #1f77b4; stroke: #1f77b4"/>
     <use xlink:href="#mdd263f90c2" x="201.380329" y="178.619948" style="fill: #1f77b4; stroke: #1f77b4"/>
     <use xlink:href="#mdd263f90c2" x="114.185617" y="251.591936" style="fill: #1f77b4; stroke: #1f77b4"/>
     <use xlink:href="#mdd263f90c2" x="207.728829" y="147.300162" style="fill: #1f77b4; stroke: #1f77b4"/>
     <use xlink:href="#mdd263f90c2" x="217.575483" y="175.887873" style="fill: #1f77b4; stroke: #1f77b4"/>
     <use xlink:href="#mdd263f90c2" x="189.849379" y="186.23163" style="fill: #1f77b4; stroke: #1f77b4"/>
     <use xlink:href="#mdd263f90c2" x="180.002725" y="192.555848" style="fill: #1f77b4; stroke: #1f77b4"/>
     <use xlink:href="#mdd263f90c2" x="182.982633" y="195.437861" style="fill: #1f77b4; stroke: #1f77b4"/>
     <use xlink:href="#mdd263f90c2" x="191.274552" y="183.697952" style="fill: #1f77b4; stroke: #1f77b4"/>
     <use xlink:href="#mdd263f90c2" x="87.496002" y="263.587632" style="fill: #1f77b4; stroke: #1f77b4"/>
     <use xlink:href="#mdd263f90c2" x="89.568982" y="248.913272" style="fill: #1f77b4; stroke: #1f77b4"/>
     <use xlink:href="#mdd263f90c2" x="181.168776" y="223.439721" style="fill: #1f77b4; stroke: #1f77b4"/>
     <use xlink:href="#mdd263f90c2" x="242.969485" y="193.074744" style="fill: #1f77b4; stroke: #1f77b4"/>
     <use xlink:href="#mdd263f90c2" x="249.447547" y="162.128019" style="fill: #1f77b4; stroke: #1f77b4"/>
     <use xlink:href="#mdd263f90c2" x="152.017498" y="205.55586" style="fill: #1f77b4; stroke: #1f77b4"/>
     <use xlink:href="#mdd263f90c2" x="165.750989" y="205.68824" style="fill: #1f77b4; stroke: #1f77b4"/>
     <use xlink:href="#mdd263f90c2" x="166.787479" y="215.81876" style="fill: #1f77b4; stroke: #1f77b4"/>
     <use xlink:href="#mdd263f90c2" x="138.413568" y="227.104605" style="fill: #1f77b4; stroke: #1f77b4"/>
     <use xlink:href="#mdd263f90c2" x="157.199947" y="243.346227" style="fill: #1f77b4; stroke: #1f77b4"/>
     <use xlink:href="#mdd263f90c2" x="167.435285" y="203.21221" style="fill: #1f77b4; stroke: #1f77b4"/>
     <use xlink:href="#mdd263f90c2" x="180.261847" y="225.929471" style="fill: #1f77b4; stroke: #1f77b4"/>
     <use xlink:href="#mdd263f90c2" x="155.515651" y="208.18137" style="fill: #1f77b4; stroke: #1f77b4"/>
     <use xlink:href="#mdd263f90c2" x="153.31311" y="205.797768" style="fill: #1f77b4; stroke: #1f77b4"/>
     <use xlink:href="#mdd263f90c2" x="161.345907" y="208.920979" style="fill: #1f77b4; stroke: #1f77b4"/>
     <use xlink:href="#mdd263f90c2" x="164.714499" y="209.002998" style="fill: #1f77b4; stroke: #1f77b4"/>
     <use xlink:href="#mdd263f90c2" x="171.192561" y="212.025231" style="fill: #1f77b4; stroke: #1f77b4"/>
     <use xlink:href="#mdd263f90c2" x="171.840367" y="201.736036" style="fill: #1f77b4; stroke: #1f77b4"/>
     <use xlink:href="#mdd263f90c2" x="168.860458" y="207.862088" style="fill: #1f77b4; stroke: #1f77b4"/>
     <use xlink:href="#mdd263f90c2" x="146.575926" y="218.939676" style="fill: #1f77b4; stroke: #1f77b4"/>
     <use xlink:href="#mdd263f90c2" x="171.451683" y="207.886505" style="fill: #1f77b4; stroke: #1f77b4"/>
     <use xlink:href="#mdd263f90c2" x="174.172469" y="200.296222" style="fill: #1f77b4; stroke: #1f77b4"/>
     <use xlink:href="#mdd263f90c2" x="190.626746" y="185.081328" style="fill: #1f77b4; stroke: #1f77b4"/>
     <use xlink:href="#mdd263f90c2" x="169.767387" y="204.767017" style="fill: #1f77b4; stroke: #1f77b4"/>
     <use xlink:href="#mdd263f90c2" x="197.752614" y="168.494697" style="fill: #1f77b4; stroke: #1f77b4"/>
     <use xlink:href="#mdd263f90c2" x="167.95353" y="197.699694" style="fill: #1f77b4; stroke: #1f77b4"/>
     <use xlink:href="#mdd263f90c2" x="165.88055" y="201.054434" style="fill: #1f77b4; stroke: #1f77b4"/>
     <use xlink:href="#mdd263f90c2" x="166.010111" y="205.706264" style="fill: #1f77b4; stroke: #1f77b4"/>
     <use xlink:href="#mdd263f90c2" x="172.099489" y="207.057145" style="fill: #1f77b4; stroke: #1f77b4"/>
     <use xlink:href="#mdd263f90c2" x="174.172469" y="202.200769" style="fill: #1f77b4; stroke: #1f77b4"/>
     <use xlink:href="#mdd263f90c2" x="172.099489" y="203.853083" style="fill: #1f77b4; stroke: #1f77b4"/>
     <use xlink:href="#mdd263f90c2" x="173.006418" y="202.712464" style="fill: #1f77b4; stroke: #1f77b4"/>
     <use xlink:href="#mdd263f90c2" x="146.057681" y="198.66037" style="fill: #1f77b4; stroke: #1f77b4"/>
     <use xlink:href="#mdd263f90c2" x="170.415193" y="202.925282" style="fill: #1f77b4; stroke: #1f77b4"/>
     <use xlink:href="#mdd263f90c2" x="174.431591" y="200.603114" style="fill: #1f77b4; stroke: #1f77b4"/>
     <use xlink:href="#mdd263f90c2" x="185.185174" y="196.122805" style="fill: #1f77b4; stroke: #1f77b4"/>
     <use xlink:href="#mdd263f90c2" x="288.575041" y="157.710839" style="fill: #1f77b4; stroke: #1f77b4"/>
     <use xlink:href="#mdd263f90c2" x="231.049852" y="160.232366" style="fill: #1f77b4; stroke: #1f77b4"/>
     <use xlink:href="#mdd263f90c2" x="188.94245" y="185.520234" style="fill: #1f77b4; stroke: #1f77b4"/>
     <use xlink:href="#mdd263f90c2" x="243.617292" y="153.978278" style="fill: #1f77b4; stroke: #1f77b4"/>
     <use xlink:href="#mdd263f90c2" x="192.570165" y="188.271975" style="fill: #1f77b4; stroke: #1f77b4"/>
     <use xlink:href="#mdd263f90c2" x="177.281939" y="194.861575" style="fill: #1f77b4; stroke: #1f77b4"/>
     <use xlink:href="#mdd263f90c2" x="173.395102" y="198.982746" style="fill: #1f77b4; stroke: #1f77b4"/>
     <use xlink:href="#mdd263f90c2" x="170.285632" y="204.303746" style="fill: #1f77b4; stroke: #1f77b4"/>
     <use xlink:href="#mdd263f90c2" x="189.849379" y="192.740832" style="fill: #1f77b4; stroke: #1f77b4"/>
     <use xlink:href="#mdd263f90c2" x="199.177788" y="176.017744" style="fill: #1f77b4; stroke: #1f77b4"/>
     <use xlink:href="#mdd263f90c2" x="224.442229" y="169.319301" style="fill: #1f77b4; stroke: #1f77b4"/>
     <use xlink:href="#mdd263f90c2" x="221.851004" y="168.696251" style="fill: #1f77b4; stroke: #1f77b4"/>
     <use xlink:href="#mdd263f90c2" x="221.851004" y="170.418627" style="fill: #1f77b4; stroke: #1f77b4"/>
     <use xlink:href="#mdd263f90c2" x="241.026067" y="159.713054" style="fill: #1f77b4; stroke: #1f77b4"/>
     <use xlink:href="#mdd263f90c2" x="146.964609" y="214.338537" style="fill: #1f77b4; stroke: #1f77b4"/>
     <use xlink:href="#mdd263f90c2" x="153.831355" y="211.410977" style="fill: #1f77b4; stroke: #1f77b4"/>
     <use xlink:href="#mdd263f90c2" x="156.293018" y="206.902389" style="fill: #1f77b4; stroke: #1f77b4"/>
     <use xlink:href="#mdd263f90c2" x="153.572232" y="207.727015" style="fill: #1f77b4; stroke: #1f77b4"/>
     <use xlink:href="#mdd263f90c2" x="146.316803" y="217.282778" style="fill: #1f77b4; stroke: #1f77b4"/>
     <use xlink:href="#mdd263f90c2" x="156.163457" y="210.634664" style="fill: #1f77b4; stroke: #1f77b4"/>
     <use xlink:href="#mdd263f90c2" x="152.665304" y="210.276842" style="fill: #1f77b4; stroke: #1f77b4"/>
     <use xlink:href="#mdd263f90c2" x="155.515651" y="223.195356" style="fill: #1f77b4; stroke: #1f77b4"/>
     <use xlink:href="#mdd263f90c2" x="181.557459" y="186.080178" style="fill: #1f77b4; stroke: #1f77b4"/>
     <use xlink:href="#mdd263f90c2" x="149.037589" y="212.51416" style="fill: #1f77b4; stroke: #1f77b4"/>
     <use xlink:href="#mdd263f90c2" x="184.019123" y="194.557518" style="fill: #1f77b4; stroke: #1f77b4"/>
     <use xlink:href="#mdd263f90c2" x="181.557459" y="183.831254" style="fill: #1f77b4; stroke: #1f77b4"/>
     <use xlink:href="#mdd263f90c2" x="168.860458" y="205.367776" style="fill: #1f77b4; stroke: #1f77b4"/>
     <use xlink:href="#mdd263f90c2" x="161.864152" y="213.959158" style="fill: #1f77b4; stroke: #1f77b4"/>
     <use xlink:href="#mdd263f90c2" x="177.670622" y="200.261973" style="fill: #1f77b4; stroke: #1f77b4"/>
     <use xlink:href="#mdd263f90c2" x="167.176162" y="197.316973" style="fill: #1f77b4; stroke: #1f77b4"/>
     <use xlink:href="#mdd263f90c2" x="178.836674" y="197.338954" style="fill: #1f77b4; stroke: #1f77b4"/>
     <use xlink:href="#mdd263f90c2" x="263.699283" y="143.976558" style="fill: #1f77b4; stroke: #1f77b4"/>
     <use xlink:href="#mdd263f90c2" x="178.577551" y="183.627742" style="fill: #1f77b4; stroke: #1f77b4"/>
     <use xlink:href="#mdd263f90c2" x="288.186357" y="115.716778" style="fill: #1f77b4; stroke: #1f77b4"/>
     <use xlink:href="#mdd263f90c2" x="297.90345" y="109.123029" style="fill: #1f77b4; stroke: #1f77b4"/>
     <use xlink:href="#mdd263f90c2" x="182.205266" y="198.957404" style="fill: #1f77b4; stroke: #1f77b4"/>
     <use xlink:href="#mdd263f90c2" x="164.325815" y="209.034083" style="fill: #1f77b4; stroke: #1f77b4"/>
     <use xlink:href="#mdd263f90c2" x="157.070386" y="207.147879" style="fill: #1f77b4; stroke: #1f77b4"/>
     <use xlink:href="#mdd263f90c2" x="181.946143" y="196.978578" style="fill: #1f77b4; stroke: #1f77b4"/>
     <use xlink:href="#mdd263f90c2" x="158.495559" y="217.325219" style="fill: #1f77b4; stroke: #1f77b4"/>
     <use xlink:href="#mdd263f90c2" x="161.605029" y="210.569501" style="fill: #1f77b4; stroke: #1f77b4"/>
     <use xlink:href="#mdd263f90c2" x="225.090035" y="197.993147" style="fill: #1f77b4; stroke: #1f77b4"/>
     <use xlink:href="#mdd263f90c2" x="185.573858" y="201.877917" style="fill: #1f77b4; stroke: #1f77b4"/>
     <use xlink:href="#mdd263f90c2" x="212.652156" y="178.710209" style="fill: #1f77b4; stroke: #1f77b4"/>
     <use xlink:href="#mdd263f90c2" x="204.748921" y="170.424631" style="fill: #1f77b4; stroke: #1f77b4"/>
     <use xlink:href="#mdd263f90c2" x="225.090035" y="162.485154" style="fill: #1f77b4; stroke: #1f77b4"/>
     <use xlink:href="#mdd263f90c2" x="176.245449" y="197.336728" style="fill: #1f77b4; stroke: #1f77b4"/>
     <use xlink:href="#mdd263f90c2" x="177.022816" y="204.160048" style="fill: #1f77b4; stroke: #1f77b4"/>
     <use xlink:href="#mdd263f90c2" x="164.714499" y="213.047577" style="fill: #1f77b4; stroke: #1f77b4"/>
     <use xlink:href="#mdd263f90c2" x="159.920733" y="221.125812" style="fill: #1f77b4; stroke: #1f77b4"/>
     <use xlink:href="#mdd263f90c2" x="159.920733" y="218.802571" style="fill: #1f77b4; stroke: #1f77b4"/>
     <use xlink:href="#mdd263f90c2" x="161.993713" y="208.954031" style="fill: #1f77b4; stroke: #1f77b4"/>
     <use xlink:href="#mdd263f90c2" x="158.365998" y="212.062811" style="fill: #1f77b4; stroke: #1f77b4"/>
     <use xlink:href="#mdd263f90c2" x="164.455376" y="213.116448" style="fill: #1f77b4; stroke: #1f77b4"/>
     <use xlink:href="#mdd263f90c2" x="158.106876" y="201.2595" style="fill: #1f77b4; stroke: #1f77b4"/>
     <use xlink:href="#mdd263f90c2" x="181.298337" y="197.398259" style="fill: #1f77b4; stroke: #1f77b4"/>
     <use xlink:href="#mdd263f90c2" x="172.22905" y="196.822069" style="fill: #1f77b4; stroke: #1f77b4"/>
     <use xlink:href="#mdd263f90c2" x="151.628814" y="202.896698" style="fill: #1f77b4; stroke: #1f77b4"/>
     <use xlink:href="#mdd263f90c2" x="159.402488" y="203.751474" style="fill: #1f77b4; stroke: #1f77b4"/>
     <use xlink:href="#mdd263f90c2" x="155.904335" y="199.138031" style="fill: #1f77b4; stroke: #1f77b4"/>
     <use xlink:href="#mdd263f90c2" x="217.834606" y="160.330709" style="fill: #1f77b4; stroke: #1f77b4"/>
     <use xlink:href="#mdd263f90c2" x="173.135979" y="191.704437" style="fill: #1f77b4; stroke: #1f77b4"/>
     <use xlink:href="#mdd263f90c2" x="180.391408" y="190.553187" style="fill: #1f77b4; stroke: #1f77b4"/>
     <use xlink:href="#mdd263f90c2" x="193.606654" y="185.551129" style="fill: #1f77b4; stroke: #1f77b4"/>
     <use xlink:href="#mdd263f90c2" x="139.190935" y="209.319618" style="fill: #1f77b4; stroke: #1f77b4"/>
     <use xlink:href="#mdd263f90c2" x="191.144991" y="189.786599" style="fill: #1f77b4; stroke: #1f77b4"/>
     <use xlink:href="#mdd263f90c2" x="249.965792" y="152.704305" style="fill: #1f77b4; stroke: #1f77b4"/>
     <use xlink:href="#mdd263f90c2" x="113.537811" y="233.070394" style="fill: #1f77b4; stroke: #1f77b4"/>
     <use xlink:href="#mdd263f90c2" x="209.672248" y="195.272117" style="fill: #1f77b4; stroke: #1f77b4"/>
     <use xlink:href="#mdd263f90c2" x="193.995338" y="184.142009" style="fill: #1f77b4; stroke: #1f77b4"/>
     <use xlink:href="#mdd263f90c2" x="111.33527" y="246.710957" style="fill: #1f77b4; stroke: #1f77b4"/>
     <use xlink:href="#mdd263f90c2" x="187.646838" y="192.001418" style="fill: #1f77b4; stroke: #1f77b4"/>
     <use xlink:href="#mdd263f90c2" x="198.141298" y="168.591346" style="fill: #1f77b4; stroke: #1f77b4"/>
     <use xlink:href="#mdd263f90c2" x="234.159321" y="167.062943" style="fill: #1f77b4; stroke: #1f77b4"/>
     <use xlink:href="#mdd263f90c2" x="150.592324" y="223.3567" style="fill: #1f77b4; stroke: #1f77b4"/>
     <use xlink:href="#mdd263f90c2" x="153.31311" y="231.163441" style="fill: #1f77b4; stroke: #1f77b4"/>
     <use xlink:href="#mdd263f90c2" x="161.086784" y="207.125295" style="fill: #1f77b4; stroke: #1f77b4"/>
     <use xlink:href="#mdd263f90c2" x="143.207334" y="224.815918" style="fill: #1f77b4; stroke: #1f77b4"/>
     <use xlink:href="#mdd263f90c2" x="144.632507" y="212.243177" style="fill: #1f77b4; stroke: #1f77b4"/>
     <use xlink:href="#mdd263f90c2" x="141.393476" y="219.462076" style="fill: #1f77b4; stroke: #1f77b4"/>
     <use xlink:href="#mdd263f90c2" x="151.499253" y="222.421402" style="fill: #1f77b4; stroke: #1f77b4"/>
     <use xlink:href="#mdd263f90c2" x="139.190935" y="235.456005" style="fill: #1f77b4; stroke: #1f77b4"/>
     <use xlink:href="#mdd263f90c2" x="157.847753" y="205.764792" style="fill: #1f77b4; stroke: #1f77b4"/>
     <use xlink:href="#mdd263f90c2" x="152.535743" y="221.251862" style="fill: #1f77b4; stroke: #1f77b4"/>
     <use xlink:href="#mdd263f90c2" x="156.163457" y="203.24902" style="fill: #1f77b4; stroke: #1f77b4"/>
     <use xlink:href="#mdd263f90c2" x="210.579176" y="208.589983" style="fill: #1f77b4; stroke: #1f77b4"/>
     <use xlink:href="#mdd263f90c2" x="156.940825" y="210.636782" style="fill: #1f77b4; stroke: #1f77b4"/>
    </g>
   </g>
   <g id="matplotlib.axis_1">
    <g id="xtick_1">
     <g id="line2d_1">
      <defs>
       <path id="mbabd35eb54" d="M 0 0 
L 0 3.5 
" style="stroke: #000000; stroke-width: 0.8"/>
      </defs>
      <g>
       <use xlink:href="#mbabd35eb54" x="72.59646" y="288.430125" style="stroke: #000000; stroke-width: 0.8"/>
      </g>
     </g>
     <g id="text_1">
      <!-- 1.510 -->
      <g transform="translate(58.282397 303.028562)scale(0.1 -0.1)">
       <defs>
        <path id="DejaVuSans-31" d="M 794 531 
L 1825 531 
L 1825 4091 
L 703 3866 
L 703 4441 
L 1819 4666 
L 2450 4666 
L 2450 531 
L 3481 531 
L 3481 0 
L 794 0 
L 794 531 
z
" transform="scale(0.015625)"/>
        <path id="DejaVuSans-2e" d="M 684 794 
L 1344 794 
L 1344 0 
L 684 0 
L 684 794 
z
" transform="scale(0.015625)"/>
        <path id="DejaVuSans-35" d="M 691 4666 
L 3169 4666 
L 3169 4134 
L 1269 4134 
L 1269 2991 
Q 1406 3038 1543 3061 
Q 1681 3084 1819 3084 
Q 2600 3084 3056 2656 
Q 3513 2228 3513 1497 
Q 3513 744 3044 326 
Q 2575 -91 1722 -91 
Q 1428 -91 1123 -41 
Q 819 9 494 109 
L 494 744 
Q 775 591 1075 516 
Q 1375 441 1709 441 
Q 2250 441 2565 725 
Q 2881 1009 2881 1497 
Q 2881 1984 2565 2268 
Q 2250 2553 1709 2553 
Q 1456 2553 1204 2497 
Q 953 2441 691 2322 
L 691 4666 
z
" transform="scale(0.015625)"/>
        <path id="DejaVuSans-30" d="M 2034 4250 
Q 1547 4250 1301 3770 
Q 1056 3291 1056 2328 
Q 1056 1369 1301 889 
Q 1547 409 2034 409 
Q 2525 409 2770 889 
Q 3016 1369 3016 2328 
Q 3016 3291 2770 3770 
Q 2525 4250 2034 4250 
z
M 2034 4750 
Q 2819 4750 3233 4129 
Q 3647 3509 3647 2328 
Q 3647 1150 3233 529 
Q 2819 -91 2034 -91 
Q 1250 -91 836 529 
Q 422 1150 422 2328 
Q 422 3509 836 4129 
Q 1250 4750 2034 4750 
z
" transform="scale(0.015625)"/>
       </defs>
       <use xlink:href="#DejaVuSans-31"/>
       <use xlink:href="#DejaVuSans-2e" x="63.623047"/>
       <use xlink:href="#DejaVuSans-35" x="95.410156"/>
       <use xlink:href="#DejaVuSans-31" x="159.033203"/>
       <use xlink:href="#DejaVuSans-30" x="222.65625"/>
      </g>
     </g>
    </g>
    <g id="xtick_2">
     <g id="line2d_2">
      <g>
       <use xlink:href="#mbabd35eb54" x="137.377078" y="288.430125" style="stroke: #000000; stroke-width: 0.8"/>
      </g>
     </g>
     <g id="text_2">
      <!-- 1.515 -->
      <g transform="translate(123.063015 303.028562)scale(0.1 -0.1)">
       <use xlink:href="#DejaVuSans-31"/>
       <use xlink:href="#DejaVuSans-2e" x="63.623047"/>
       <use xlink:href="#DejaVuSans-35" x="95.410156"/>
       <use xlink:href="#DejaVuSans-31" x="159.033203"/>
       <use xlink:href="#DejaVuSans-35" x="222.65625"/>
      </g>
     </g>
    </g>
    <g id="xtick_3">
     <g id="line2d_3">
      <g>
       <use xlink:href="#mbabd35eb54" x="202.157696" y="288.430125" style="stroke: #000000; stroke-width: 0.8"/>
      </g>
     </g>
     <g id="text_3">
      <!-- 1.520 -->
      <g transform="translate(187.843634 303.028562)scale(0.1 -0.1)">
       <defs>
        <path id="DejaVuSans-32" d="M 1228 531 
L 3431 531 
L 3431 0 
L 469 0 
L 469 531 
Q 828 903 1448 1529 
Q 2069 2156 2228 2338 
Q 2531 2678 2651 2914 
Q 2772 3150 2772 3378 
Q 2772 3750 2511 3984 
Q 2250 4219 1831 4219 
Q 1534 4219 1204 4116 
Q 875 4013 500 3803 
L 500 4441 
Q 881 4594 1212 4672 
Q 1544 4750 1819 4750 
Q 2544 4750 2975 4387 
Q 3406 4025 3406 3419 
Q 3406 3131 3298 2873 
Q 3191 2616 2906 2266 
Q 2828 2175 2409 1742 
Q 1991 1309 1228 531 
z
" transform="scale(0.015625)"/>
       </defs>
       <use xlink:href="#DejaVuSans-31"/>
       <use xlink:href="#DejaVuSans-2e" x="63.623047"/>
       <use xlink:href="#DejaVuSans-35" x="95.410156"/>
       <use xlink:href="#DejaVuSans-32" x="159.033203"/>
       <use xlink:href="#DejaVuSans-30" x="222.65625"/>
      </g>
     </g>
    </g>
    <g id="xtick_4">
     <g id="line2d_4">
      <g>
       <use xlink:href="#mbabd35eb54" x="266.938314" y="288.430125" style="stroke: #000000; stroke-width: 0.8"/>
      </g>
     </g>
     <g id="text_4">
      <!-- 1.525 -->
      <g transform="translate(252.624252 303.028562)scale(0.1 -0.1)">
       <use xlink:href="#DejaVuSans-31"/>
       <use xlink:href="#DejaVuSans-2e" x="63.623047"/>
       <use xlink:href="#DejaVuSans-35" x="95.410156"/>
       <use xlink:href="#DejaVuSans-32" x="159.033203"/>
       <use xlink:href="#DejaVuSans-35" x="222.65625"/>
      </g>
     </g>
    </g>
    <g id="xtick_5">
     <g id="line2d_5">
      <g>
       <use xlink:href="#mbabd35eb54" x="331.718932" y="288.430125" style="stroke: #000000; stroke-width: 0.8"/>
      </g>
     </g>
     <g id="text_5">
      <!-- 1.530 -->
      <g transform="translate(317.40487 303.028562)scale(0.1 -0.1)">
       <defs>
        <path id="DejaVuSans-33" d="M 2597 2516 
Q 3050 2419 3304 2112 
Q 3559 1806 3559 1356 
Q 3559 666 3084 287 
Q 2609 -91 1734 -91 
Q 1441 -91 1130 -33 
Q 819 25 488 141 
L 488 750 
Q 750 597 1062 519 
Q 1375 441 1716 441 
Q 2309 441 2620 675 
Q 2931 909 2931 1356 
Q 2931 1769 2642 2001 
Q 2353 2234 1838 2234 
L 1294 2234 
L 1294 2753 
L 1863 2753 
Q 2328 2753 2575 2939 
Q 2822 3125 2822 3475 
Q 2822 3834 2567 4026 
Q 2313 4219 1838 4219 
Q 1578 4219 1281 4162 
Q 984 4106 628 3988 
L 628 4550 
Q 988 4650 1302 4700 
Q 1616 4750 1894 4750 
Q 2613 4750 3031 4423 
Q 3450 4097 3450 3541 
Q 3450 3153 3228 2886 
Q 3006 2619 2597 2516 
z
" transform="scale(0.015625)"/>
       </defs>
       <use xlink:href="#DejaVuSans-31"/>
       <use xlink:href="#DejaVuSans-2e" x="63.623047"/>
       <use xlink:href="#DejaVuSans-35" x="95.410156"/>
       <use xlink:href="#DejaVuSans-33" x="159.033203"/>
       <use xlink:href="#DejaVuSans-30" x="222.65625"/>
      </g>
     </g>
    </g>
    <g id="xtick_6">
     <g id="line2d_6">
      <g>
       <use xlink:href="#mbabd35eb54" x="396.49955" y="288.430125" style="stroke: #000000; stroke-width: 0.8"/>
      </g>
     </g>
     <g id="text_6">
      <!-- 1.535 -->
      <g transform="translate(382.185488 303.028562)scale(0.1 -0.1)">
       <use xlink:href="#DejaVuSans-31"/>
       <use xlink:href="#DejaVuSans-2e" x="63.623047"/>
       <use xlink:href="#DejaVuSans-35" x="95.410156"/>
       <use xlink:href="#DejaVuSans-33" x="159.033203"/>
       <use xlink:href="#DejaVuSans-35" x="222.65625"/>
      </g>
     </g>
    </g>
    <g id="text_7">
     <!-- True values -->
     <g transform="translate(206.5975 316.706687)scale(0.1 -0.1)">
      <defs>
       <path id="DejaVuSans-54" d="M -19 4666 
L 3928 4666 
L 3928 4134 
L 2272 4134 
L 2272 0 
L 1638 0 
L 1638 4134 
L -19 4134 
L -19 4666 
z
" transform="scale(0.015625)"/>
       <path id="DejaVuSans-72" d="M 2631 2963 
Q 2534 3019 2420 3045 
Q 2306 3072 2169 3072 
Q 1681 3072 1420 2755 
Q 1159 2438 1159 1844 
L 1159 0 
L 581 0 
L 581 3500 
L 1159 3500 
L 1159 2956 
Q 1341 3275 1631 3429 
Q 1922 3584 2338 3584 
Q 2397 3584 2469 3576 
Q 2541 3569 2628 3553 
L 2631 2963 
z
" transform="scale(0.015625)"/>
       <path id="DejaVuSans-75" d="M 544 1381 
L 544 3500 
L 1119 3500 
L 1119 1403 
Q 1119 906 1312 657 
Q 1506 409 1894 409 
Q 2359 409 2629 706 
Q 2900 1003 2900 1516 
L 2900 3500 
L 3475 3500 
L 3475 0 
L 2900 0 
L 2900 538 
Q 2691 219 2414 64 
Q 2138 -91 1772 -91 
Q 1169 -91 856 284 
Q 544 659 544 1381 
z
M 1991 3584 
L 1991 3584 
z
" transform="scale(0.015625)"/>
       <path id="DejaVuSans-65" d="M 3597 1894 
L 3597 1613 
L 953 1613 
Q 991 1019 1311 708 
Q 1631 397 2203 397 
Q 2534 397 2845 478 
Q 3156 559 3463 722 
L 3463 178 
Q 3153 47 2828 -22 
Q 2503 -91 2169 -91 
Q 1331 -91 842 396 
Q 353 884 353 1716 
Q 353 2575 817 3079 
Q 1281 3584 2069 3584 
Q 2775 3584 3186 3129 
Q 3597 2675 3597 1894 
z
M 3022 2063 
Q 3016 2534 2758 2815 
Q 2500 3097 2075 3097 
Q 1594 3097 1305 2825 
Q 1016 2553 972 2059 
L 3022 2063 
z
" transform="scale(0.015625)"/>
       <path id="DejaVuSans-20" transform="scale(0.015625)"/>
       <path id="DejaVuSans-76" d="M 191 3500 
L 800 3500 
L 1894 563 
L 2988 3500 
L 3597 3500 
L 2284 0 
L 1503 0 
L 191 3500 
z
" transform="scale(0.015625)"/>
       <path id="DejaVuSans-61" d="M 2194 1759 
Q 1497 1759 1228 1600 
Q 959 1441 959 1056 
Q 959 750 1161 570 
Q 1363 391 1709 391 
Q 2188 391 2477 730 
Q 2766 1069 2766 1631 
L 2766 1759 
L 2194 1759 
z
M 3341 1997 
L 3341 0 
L 2766 0 
L 2766 531 
Q 2569 213 2275 61 
Q 1981 -91 1556 -91 
Q 1019 -91 701 211 
Q 384 513 384 1019 
Q 384 1609 779 1909 
Q 1175 2209 1959 2209 
L 2766 2209 
L 2766 2266 
Q 2766 2663 2505 2880 
Q 2244 3097 1772 3097 
Q 1472 3097 1187 3025 
Q 903 2953 641 2809 
L 641 3341 
Q 956 3463 1253 3523 
Q 1550 3584 1831 3584 
Q 2591 3584 2966 3190 
Q 3341 2797 3341 1997 
z
" transform="scale(0.015625)"/>
       <path id="DejaVuSans-6c" d="M 603 4863 
L 1178 4863 
L 1178 0 
L 603 0 
L 603 4863 
z
" transform="scale(0.015625)"/>
       <path id="DejaVuSans-73" d="M 2834 3397 
L 2834 2853 
Q 2591 2978 2328 3040 
Q 2066 3103 1784 3103 
Q 1356 3103 1142 2972 
Q 928 2841 928 2578 
Q 928 2378 1081 2264 
Q 1234 2150 1697 2047 
L 1894 2003 
Q 2506 1872 2764 1633 
Q 3022 1394 3022 966 
Q 3022 478 2636 193 
Q 2250 -91 1575 -91 
Q 1294 -91 989 -36 
Q 684 19 347 128 
L 347 722 
Q 666 556 975 473 
Q 1284 391 1588 391 
Q 1994 391 2212 530 
Q 2431 669 2431 922 
Q 2431 1156 2273 1281 
Q 2116 1406 1581 1522 
L 1381 1569 
Q 847 1681 609 1914 
Q 372 2147 372 2553 
Q 372 3047 722 3315 
Q 1072 3584 1716 3584 
Q 2034 3584 2315 3537 
Q 2597 3491 2834 3397 
z
" transform="scale(0.015625)"/>
      </defs>
      <use xlink:href="#DejaVuSans-54"/>
      <use xlink:href="#DejaVuSans-72" x="46.333984"/>
      <use xlink:href="#DejaVuSans-75" x="87.447266"/>
      <use xlink:href="#DejaVuSans-65" x="150.826172"/>
      <use xlink:href="#DejaVuSans-20" x="212.349609"/>
      <use xlink:href="#DejaVuSans-76" x="244.136719"/>
      <use xlink:href="#DejaVuSans-61" x="303.316406"/>
      <use xlink:href="#DejaVuSans-6c" x="364.595703"/>
      <use xlink:href="#DejaVuSans-75" x="392.378906"/>
      <use xlink:href="#DejaVuSans-65" x="455.757812"/>
      <use xlink:href="#DejaVuSans-73" x="517.28125"/>
     </g>
    </g>
   </g>
   <g id="matplotlib.axis_2">
    <g id="ytick_1">
     <g id="line2d_7">
      <defs>
       <path id="m4c3fdd97e1" d="M 0 0 
L -3.5 0 
" style="stroke: #000000; stroke-width: 0.8"/>
      </defs>
      <g>
       <use xlink:href="#m4c3fdd97e1" x="56.50625" y="276.440323" style="stroke: #000000; stroke-width: 0.8"/>
      </g>
     </g>
     <g id="text_8">
      <!-- 1.510 -->
      <g transform="translate(20.878125 280.239542)scale(0.1 -0.1)">
       <use xlink:href="#DejaVuSans-31"/>
       <use xlink:href="#DejaVuSans-2e" x="63.623047"/>
       <use xlink:href="#DejaVuSans-35" x="95.410156"/>
       <use xlink:href="#DejaVuSans-31" x="159.033203"/>
       <use xlink:href="#DejaVuSans-30" x="222.65625"/>
      </g>
     </g>
    </g>
    <g id="ytick_2">
     <g id="line2d_8">
      <g>
       <use xlink:href="#m4c3fdd97e1" x="56.50625" y="228.168314" style="stroke: #000000; stroke-width: 0.8"/>
      </g>
     </g>
     <g id="text_9">
      <!-- 1.515 -->
      <g transform="translate(20.878125 231.967533)scale(0.1 -0.1)">
       <use xlink:href="#DejaVuSans-31"/>
       <use xlink:href="#DejaVuSans-2e" x="63.623047"/>
       <use xlink:href="#DejaVuSans-35" x="95.410156"/>
       <use xlink:href="#DejaVuSans-31" x="159.033203"/>
       <use xlink:href="#DejaVuSans-35" x="222.65625"/>
      </g>
     </g>
    </g>
    <g id="ytick_3">
     <g id="line2d_9">
      <g>
       <use xlink:href="#m4c3fdd97e1" x="56.50625" y="179.896306" style="stroke: #000000; stroke-width: 0.8"/>
      </g>
     </g>
     <g id="text_10">
      <!-- 1.520 -->
      <g transform="translate(20.878125 183.695524)scale(0.1 -0.1)">
       <use xlink:href="#DejaVuSans-31"/>
       <use xlink:href="#DejaVuSans-2e" x="63.623047"/>
       <use xlink:href="#DejaVuSans-35" x="95.410156"/>
       <use xlink:href="#DejaVuSans-32" x="159.033203"/>
       <use xlink:href="#DejaVuSans-30" x="222.65625"/>
      </g>
     </g>
    </g>
    <g id="ytick_4">
     <g id="line2d_10">
      <g>
       <use xlink:href="#m4c3fdd97e1" x="56.50625" y="131.624297" style="stroke: #000000; stroke-width: 0.8"/>
      </g>
     </g>
     <g id="text_11">
      <!-- 1.525 -->
      <g transform="translate(20.878125 135.423515)scale(0.1 -0.1)">
       <use xlink:href="#DejaVuSans-31"/>
       <use xlink:href="#DejaVuSans-2e" x="63.623047"/>
       <use xlink:href="#DejaVuSans-35" x="95.410156"/>
       <use xlink:href="#DejaVuSans-32" x="159.033203"/>
       <use xlink:href="#DejaVuSans-35" x="222.65625"/>
      </g>
     </g>
    </g>
    <g id="ytick_5">
     <g id="line2d_11">
      <g>
       <use xlink:href="#m4c3fdd97e1" x="56.50625" y="83.352288" style="stroke: #000000; stroke-width: 0.8"/>
      </g>
     </g>
     <g id="text_12">
      <!-- 1.530 -->
      <g transform="translate(20.878125 87.151506)scale(0.1 -0.1)">
       <use xlink:href="#DejaVuSans-31"/>
       <use xlink:href="#DejaVuSans-2e" x="63.623047"/>
       <use xlink:href="#DejaVuSans-35" x="95.410156"/>
       <use xlink:href="#DejaVuSans-33" x="159.033203"/>
       <use xlink:href="#DejaVuSans-30" x="222.65625"/>
      </g>
     </g>
    </g>
    <g id="ytick_6">
     <g id="line2d_12">
      <g>
       <use xlink:href="#m4c3fdd97e1" x="56.50625" y="35.080279" style="stroke: #000000; stroke-width: 0.8"/>
      </g>
     </g>
     <g id="text_13">
      <!-- 1.535 -->
      <g transform="translate(20.878125 38.879497)scale(0.1 -0.1)">
       <use xlink:href="#DejaVuSans-31"/>
       <use xlink:href="#DejaVuSans-2e" x="63.623047"/>
       <use xlink:href="#DejaVuSans-35" x="95.410156"/>
       <use xlink:href="#DejaVuSans-33" x="159.033203"/>
       <use xlink:href="#DejaVuSans-35" x="222.65625"/>
      </g>
     </g>
    </g>
    <g id="text_14">
     <!-- Predicted values -->
     <g transform="translate(14.798437 196.696)rotate(-90)scale(0.1 -0.1)">
      <defs>
       <path id="DejaVuSans-50" d="M 1259 4147 
L 1259 2394 
L 2053 2394 
Q 2494 2394 2734 2622 
Q 2975 2850 2975 3272 
Q 2975 3691 2734 3919 
Q 2494 4147 2053 4147 
L 1259 4147 
z
M 628 4666 
L 2053 4666 
Q 2838 4666 3239 4311 
Q 3641 3956 3641 3272 
Q 3641 2581 3239 2228 
Q 2838 1875 2053 1875 
L 1259 1875 
L 1259 0 
L 628 0 
L 628 4666 
z
" transform="scale(0.015625)"/>
       <path id="DejaVuSans-64" d="M 2906 2969 
L 2906 4863 
L 3481 4863 
L 3481 0 
L 2906 0 
L 2906 525 
Q 2725 213 2448 61 
Q 2172 -91 1784 -91 
Q 1150 -91 751 415 
Q 353 922 353 1747 
Q 353 2572 751 3078 
Q 1150 3584 1784 3584 
Q 2172 3584 2448 3432 
Q 2725 3281 2906 2969 
z
M 947 1747 
Q 947 1113 1208 752 
Q 1469 391 1925 391 
Q 2381 391 2643 752 
Q 2906 1113 2906 1747 
Q 2906 2381 2643 2742 
Q 2381 3103 1925 3103 
Q 1469 3103 1208 2742 
Q 947 2381 947 1747 
z
" transform="scale(0.015625)"/>
       <path id="DejaVuSans-69" d="M 603 3500 
L 1178 3500 
L 1178 0 
L 603 0 
L 603 3500 
z
M 603 4863 
L 1178 4863 
L 1178 4134 
L 603 4134 
L 603 4863 
z
" transform="scale(0.015625)"/>
       <path id="DejaVuSans-63" d="M 3122 3366 
L 3122 2828 
Q 2878 2963 2633 3030 
Q 2388 3097 2138 3097 
Q 1578 3097 1268 2742 
Q 959 2388 959 1747 
Q 959 1106 1268 751 
Q 1578 397 2138 397 
Q 2388 397 2633 464 
Q 2878 531 3122 666 
L 3122 134 
Q 2881 22 2623 -34 
Q 2366 -91 2075 -91 
Q 1284 -91 818 406 
Q 353 903 353 1747 
Q 353 2603 823 3093 
Q 1294 3584 2113 3584 
Q 2378 3584 2631 3529 
Q 2884 3475 3122 3366 
z
" transform="scale(0.015625)"/>
       <path id="DejaVuSans-74" d="M 1172 4494 
L 1172 3500 
L 2356 3500 
L 2356 3053 
L 1172 3053 
L 1172 1153 
Q 1172 725 1289 603 
Q 1406 481 1766 481 
L 2356 481 
L 2356 0 
L 1766 0 
Q 1100 0 847 248 
Q 594 497 594 1153 
L 594 3053 
L 172 3053 
L 172 3500 
L 594 3500 
L 594 4494 
L 1172 4494 
z
" transform="scale(0.015625)"/>
      </defs>
      <use xlink:href="#DejaVuSans-50"/>
      <use xlink:href="#DejaVuSans-72" x="58.552734"/>
      <use xlink:href="#DejaVuSans-65" x="97.416016"/>
      <use xlink:href="#DejaVuSans-64" x="158.939453"/>
      <use xlink:href="#DejaVuSans-69" x="222.416016"/>
      <use xlink:href="#DejaVuSans-63" x="250.199219"/>
      <use xlink:href="#DejaVuSans-74" x="305.179688"/>
      <use xlink:href="#DejaVuSans-65" x="344.388672"/>
      <use xlink:href="#DejaVuSans-64" x="405.912109"/>
      <use xlink:href="#DejaVuSans-20" x="469.388672"/>
      <use xlink:href="#DejaVuSans-76" x="501.175781"/>
      <use xlink:href="#DejaVuSans-61" x="560.355469"/>
      <use xlink:href="#DejaVuSans-6c" x="621.634766"/>
      <use xlink:href="#DejaVuSans-75" x="649.417969"/>
      <use xlink:href="#DejaVuSans-65" x="712.796875"/>
      <use xlink:href="#DejaVuSans-73" x="774.320312"/>
     </g>
    </g>
   </g>
   <g id="line2d_13">
    <path d="M 72.738977 276.334125 
L 397.393523 34.414125 
" clip-path="url(#pa8191ebb20)" style="fill: none; stroke: #000000; stroke-width: 1.5; stroke-linecap: square"/>
   </g>
   <g id="patch_3">
    <path d="M 56.50625 288.430125 
L 56.50625 22.318125 
" style="fill: none; stroke: #000000; stroke-width: 0.8; stroke-linejoin: miter; stroke-linecap: square"/>
   </g>
   <g id="patch_4">
    <path d="M 413.62625 288.430125 
L 413.62625 22.318125 
" style="fill: none; stroke: #000000; stroke-width: 0.8; stroke-linejoin: miter; stroke-linecap: square"/>
   </g>
   <g id="patch_5">
    <path d="M 56.50625 288.430125 
L 413.62625 288.430125 
" style="fill: none; stroke: #000000; stroke-width: 0.8; stroke-linejoin: miter; stroke-linecap: square"/>
   </g>
   <g id="patch_6">
    <path d="M 56.50625 22.318125 
L 413.62625 22.318125 
" style="fill: none; stroke: #000000; stroke-width: 0.8; stroke-linejoin: miter; stroke-linecap: square"/>
   </g>
   <g id="text_15">
    <!-- RLR vs. True value -->
    <g transform="translate(179.950625 16.318125)scale(0.12 -0.12)">
     <defs>
      <path id="DejaVuSans-52" d="M 2841 2188 
Q 3044 2119 3236 1894 
Q 3428 1669 3622 1275 
L 4263 0 
L 3584 0 
L 2988 1197 
Q 2756 1666 2539 1819 
Q 2322 1972 1947 1972 
L 1259 1972 
L 1259 0 
L 628 0 
L 628 4666 
L 2053 4666 
Q 2853 4666 3247 4331 
Q 3641 3997 3641 3322 
Q 3641 2881 3436 2590 
Q 3231 2300 2841 2188 
z
M 1259 4147 
L 1259 2491 
L 2053 2491 
Q 2509 2491 2742 2702 
Q 2975 2913 2975 3322 
Q 2975 3731 2742 3939 
Q 2509 4147 2053 4147 
L 1259 4147 
z
" transform="scale(0.015625)"/>
      <path id="DejaVuSans-4c" d="M 628 4666 
L 1259 4666 
L 1259 531 
L 3531 531 
L 3531 0 
L 628 0 
L 628 4666 
z
" transform="scale(0.015625)"/>
     </defs>
     <use xlink:href="#DejaVuSans-52"/>
     <use xlink:href="#DejaVuSans-4c" x="69.482422"/>
     <use xlink:href="#DejaVuSans-52" x="125.195312"/>
     <use xlink:href="#DejaVuSans-20" x="194.677734"/>
     <use xlink:href="#DejaVuSans-76" x="226.464844"/>
     <use xlink:href="#DejaVuSans-73" x="285.644531"/>
     <use xlink:href="#DejaVuSans-2e" x="337.744141"/>
     <use xlink:href="#DejaVuSans-20" x="369.53125"/>
     <use xlink:href="#DejaVuSans-54" x="401.318359"/>
     <use xlink:href="#DejaVuSans-72" x="447.652344"/>
     <use xlink:href="#DejaVuSans-75" x="488.765625"/>
     <use xlink:href="#DejaVuSans-65" x="552.144531"/>
     <use xlink:href="#DejaVuSans-20" x="613.667969"/>
     <use xlink:href="#DejaVuSans-76" x="645.455078"/>
     <use xlink:href="#DejaVuSans-61" x="704.634766"/>
     <use xlink:href="#DejaVuSans-6c" x="765.914062"/>
     <use xlink:href="#DejaVuSans-75" x="793.697266"/>
     <use xlink:href="#DejaVuSans-65" x="857.076172"/>
    </g>
   </g>
   <g id="legend_1">
    <g id="patch_7">
     <path d="M 63.50625 59.674375 
L 115.723437 59.674375 
Q 117.723437 59.674375 117.723437 57.674375 
L 117.723437 29.318125 
Q 117.723437 27.318125 115.723437 27.318125 
L 63.50625 27.318125 
Q 61.50625 27.318125 61.50625 29.318125 
L 61.50625 57.674375 
Q 61.50625 59.674375 63.50625 59.674375 
z
" style="fill: #ffffff; opacity: 0.8; stroke: #cccccc; stroke-linejoin: miter"/>
    </g>
    <g id="PathCollection_2">
     <g>
      <use xlink:href="#mdd263f90c2" x="75.50625" y="36.291562" style="fill: #1f77b4; stroke: #1f77b4"/>
     </g>
    </g>
    <g id="line2d_14">
     <path d="M 65.50625 50.094687 
L 75.50625 50.094687 
L 85.50625 50.094687 
" style="fill: none; stroke: #000000; stroke-width: 1.5; stroke-linecap: square"/>
    </g>
    <g id="text_16">
     <!-- y=x -->
     <g transform="translate(93.50625 53.594687)scale(0.1 -0.1)">
      <defs>
       <path id="DejaVuSans-79" d="M 2059 -325 
Q 1816 -950 1584 -1140 
Q 1353 -1331 966 -1331 
L 506 -1331 
L 506 -850 
L 844 -850 
Q 1081 -850 1212 -737 
Q 1344 -625 1503 -206 
L 1606 56 
L 191 3500 
L 800 3500 
L 1894 763 
L 2988 3500 
L 3597 3500 
L 2059 -325 
z
" transform="scale(0.015625)"/>
       <path id="DejaVuSans-3d" d="M 678 2906 
L 4684 2906 
L 4684 2381 
L 678 2381 
L 678 2906 
z
M 678 1631 
L 4684 1631 
L 4684 1100 
L 678 1100 
L 678 1631 
z
" transform="scale(0.015625)"/>
       <path id="DejaVuSans-78" d="M 3513 3500 
L 2247 1797 
L 3578 0 
L 2900 0 
L 1881 1375 
L 863 0 
L 184 0 
L 1544 1831 
L 300 3500 
L 978 3500 
L 1906 2253 
L 2834 3500 
L 3513 3500 
z
" transform="scale(0.015625)"/>
      </defs>
      <use xlink:href="#DejaVuSans-79"/>
      <use xlink:href="#DejaVuSans-3d" x="59.179688"/>
      <use xlink:href="#DejaVuSans-78" x="142.96875"/>
     </g>
    </g>
   </g>
  </g>
 </g>
 <defs>
  <clipPath id="pa8191ebb20">
   <rect x="56.50625" y="22.318125" width="357.12" height="266.112"/>
  </clipPath>
 </defs>
</svg>
